<svg xmlns="http://www.w3.org/2000/svg" viewBox="0 0 140 142" width="140" height="142">
	<defs>
		<clipPath clipPathUnits="userSpaceOnUse" id="cp1">
			<path d="M-1443 -4088L477 -4088L477 3545L-1443 3545Z" />
		</clipPath>
	</defs>
	<style>
		tspan { white-space:pre }
		.shp0 { fill: #033d2e;stroke: #ffffff;stroke-width: 2 } 
	</style>
	<g id="01a_strona_glowna" clip-path="url(#cp1)">
		<g id="11">
			<path id="Path 226" fill-rule="evenodd" class="shp0" d="M136.66 91.19L128.01 99.48C127.53 99.94 126.89 100.21 126.21 100.18C125.54 100.16 124.9 99.88 124.44 99.39L115.03 89.5L115.03 130.45C115.03 131.84 113.9 132.97 112.51 132.97L95.83 132.97C94.44 132.97 93.31 131.84 93.31 130.45C93.31 129.06 94.44 127.93 95.83 127.93L109.99 127.93L109.99 84.2L70.22 42.37L30.45 84.2L30.45 127.93L45.66 127.93C47.05 127.93 48.18 129.06 48.18 130.45C48.18 131.84 47.05 132.97 45.66 132.97L27.93 132.97C26.53 132.97 25.4 131.84 25.4 130.45L25.4 89.5L16 99.39C15.54 99.88 14.9 100.16 14.23 100.18L14.17 100.18C13.52 100.18 12.9 99.93 12.43 99.48L3.78 91.19C3.29 90.72 3.01 90.08 3 89.41C2.99 88.74 3.24 88.09 3.71 87.61L68.73 20.36C69.21 19.87 69.86 19.59 70.55 19.59L70.55 19.59C71.24 19.59 71.9 19.87 72.37 20.37L136.74 87.62C137.7 88.63 137.67 90.22 136.66 91.19ZM131.35 89.29L70.54 25.75L9.1 89.3L14.09 94.08L68.39 36.97C68.87 36.47 69.53 36.19 70.22 36.19C70.91 36.19 71.57 36.47 72.04 36.97L126.35 94.08L131.35 89.29Z" />
			<path id="Path 227" fill-rule="evenodd" class="shp0" d="M95.37 120.74C89.45 131.19 79.17 137.71 65.63 139.59C65.5 139.61 65.37 139.62 65.23 139.62C65.09 139.62 64.95 139.61 64.82 139.59C64.49 139.53 64.18 139.42 63.89 139.25C48.02 131.09 39.55 113.22 41.77 92.56C41.91 91.19 43.12 90.2 44.5 90.32C51.39 90.93 59.6 93.87 64.29 98.55C68.64 88.65 77.01 79.1 93.02 76.44C94.17 76.25 95.3 76.86 95.76 77.94C102.27 93.19 102.13 108.79 95.37 120.74ZM59.69 121.82C59.69 118.21 60.04 111.38 62.27 104.06C59.86 99.93 52.9 96.79 46.57 95.68C45.67 110.35 50.76 123.17 60.35 130.95C59.75 127.12 59.69 123.17 59.69 121.82ZM90.97 118.26C96.6 108.32 96.9 94.81 91.88 81.79C80.73 84.19 72.86 90.81 68.46 101.48C63.02 114.67 64.77 130.25 66.33 134.38C77.56 132.48 86.07 126.93 90.97 118.26Z" />
			<path id="Path 228" class="shp0" d="M87.5 102.88C84.77 105.52 81.58 107.04 79.02 107.91C82.11 101.7 85.77 95.81 89.66 90.96C90.54 89.88 90.37 88.29 89.28 87.41C88.19 86.54 86.61 86.71 85.73 87.8C80.73 94.01 76.1 101.87 72.49 109.97C72.22 110.31 72.04 110.71 71.97 111.15C69.64 116.54 67.78 122.01 66.59 127.15C66.27 128.5 67.12 129.86 68.47 130.17C68.67 130.22 68.86 130.24 69.05 130.24C70.19 130.24 71.23 129.45 71.5 128.28C72.58 123.64 74.23 118.71 76.3 113.83C79.28 113.3 85.72 111.62 91.01 106.51C92.01 105.54 92.04 103.95 91.07 102.94C90.11 101.94 88.51 101.91 87.5 102.88Z" />
			<path id="Path 229" fill-rule="evenodd" class="shp0" d="M12.98 33.17C11.65 30.72 11.78 27.75 13.31 25.42L26.18 5.82C27.29 4.13 28.99 2.97 30.97 2.56C32.95 2.15 34.97 2.54 36.66 3.64C40.52 6.18 38.04 12.26 37.38 13.72L34.3 22L39.16 22C41.94 22 44.5 23.53 45.82 25.98C47.14 28.43 47.02 31.4 45.49 33.73L32.61 53.33C31.21 55.47 28.84 56.75 26.28 56.75C24.81 56.75 23.37 56.31 22.13 55.5C18.27 52.97 20.75 46.88 21.42 45.43L24.5 37.14L19.64 37.14C16.85 37.14 14.3 35.62 12.98 33.17ZM17.42 30.77C17.86 31.59 18.71 32.1 19.64 32.1L28.12 32.1C28.95 32.1 29.72 32.5 30.2 33.18C30.67 33.86 30.78 34.72 30.49 35.5L26.11 47.28C26.09 47.35 26.06 47.41 26.03 47.47C25.39 48.86 24.95 50.7 25.07 51.39C26.19 52 27.69 51.63 28.39 50.56L41.27 30.96C41.78 30.18 41.82 29.19 41.38 28.37C40.94 27.56 40.09 27.05 39.16 27.05L30.67 27.05C29.84 27.05 29.07 26.64 28.6 25.97C28.13 25.29 28.02 24.42 28.31 23.65L32.68 11.86C32.71 11.8 32.73 11.73 32.76 11.67C33.4 10.29 33.85 8.45 33.72 7.76C33.2 7.47 32.59 7.38 32 7.5C31.34 7.64 30.77 8.02 30.4 8.59L17.53 28.19C17.02 28.96 16.97 29.95 17.42 30.77Z" />
			<path id="Path 230" class="shp0" d="M91.66 32.45C92.78 33.27 94.36 33.03 95.18 31.9C96.96 29.46 99.82 28 102.83 28C108.04 28 112.28 32.25 112.28 37.46C112.28 40.84 110.46 43.98 107.52 45.67C106.32 46.36 105.9 47.9 106.59 49.11C107.05 49.92 107.91 50.38 108.78 50.38C109.21 50.38 109.64 50.27 110.03 50.04C114.53 47.46 117.33 42.64 117.33 37.46C117.33 29.46 110.83 22.96 102.83 22.96C98.21 22.96 93.83 25.19 91.11 28.93C90.28 30.06 90.53 31.63 91.66 32.45Z" />
			<path id="Path 231" class="shp0" d="M121.56 37.69C121.56 39.08 122.69 40.21 124.08 40.21L130.14 40.21C131.53 40.21 132.67 39.08 132.67 37.69C132.67 36.3 131.53 35.17 130.14 35.17L124.08 35.17C122.69 35.17 121.56 36.3 121.56 37.69Z" />
			<path id="Path 232" class="shp0" d="M102.6 18.03C103.99 18.03 105.12 16.9 105.12 15.51L105.12 9.45C105.12 8.05 103.99 6.93 102.6 6.93C101.21 6.93 100.08 8.05 100.08 9.45L100.08 15.51C100.08 16.9 101.21 18.03 102.6 18.03Z" />
			<path id="Path 233" class="shp0" d="M85.98 24.64C86.47 25.13 87.12 25.38 87.76 25.38C88.41 25.38 89.05 25.13 89.55 24.64C90.53 23.65 90.53 22.05 89.55 21.07L83.7 15.22C82.71 14.24 81.12 14.24 80.13 15.22C79.15 16.21 79.15 17.81 80.13 18.79L85.98 24.64Z" />
			<path id="Path 234" class="shp0" d="M115.65 50.74C114.66 51.73 114.66 53.33 115.65 54.31L121.5 60.16C121.99 60.65 122.64 60.9 123.28 60.9C123.93 60.9 124.57 60.65 125.07 60.16C126.05 59.17 126.05 57.58 125.07 56.59L119.22 50.74C118.23 49.76 116.64 49.76 115.65 50.74Z" />
			<path id="Path 235" class="shp0" d="M117.43 25.38C118.08 25.38 118.73 25.13 119.22 24.64L125.07 18.79C126.05 17.81 126.05 16.21 125.07 15.22C124.08 14.24 122.48 14.24 121.5 15.22L115.65 21.07C114.66 22.05 114.66 23.65 115.65 24.64C116.14 25.13 116.79 25.38 117.43 25.38Z" />
		</g>
	</g>
</svg>