<svg xmlns="http://www.w3.org/2000/svg" viewBox="0 0 127 126" width="127" height="126">
	<defs>
		<clipPath clipPathUnits="userSpaceOnUse" id="cp1">
			<path d="M-328 -4624L1592 -4624L1592 3009L-328 3009Z" />
		</clipPath>
	</defs>
	<style>
		tspan { white-space:pre }
		.shp0 { fill: none;stroke: #033d2e;stroke-linecap:round;stroke-width: 4 } 
	</style>
	<g id="01a_strona_glowna" clip-path="url(#cp1)">
		<g id="eco world-green earth">
			<path id="Path 236" class="shp0" d="M84.66 32.85L81.1 32.85C79.77 32.85 78.57 33.66 78.08 34.9L75.74 40.74C74.99 42.61 76.1 44.7 78.07 45.13L85.94 46.86C86.51 46.98 87.03 47.25 87.45 47.64L89.3 49.34C89.97 49.96 90.35 50.83 90.35 51.74L90.35 52.36C90.35 54.15 88.9 55.61 87.1 55.61L81.78 55.61C81.43 55.61 81.08 55.56 80.75 55.45L77.1 54.23C75.56 53.72 73.88 54.41 73.16 55.86L70.54 61.09C70.12 61.95 70.09 62.95 70.47 63.83L75.85 76.4C76.37 77.6 77.54 78.37 78.84 78.37L79.85 78.37C81.22 78.37 82.45 79.23 82.92 80.52L89.88 99.68C90.64 101.75 93.19 102.49 94.94 101.14L98.58 98.32C99.37 97.7 99.84 96.75 99.84 95.74L99.84 90.95C99.84 90.31 100.03 89.68 100.38 89.15L108.31 77.25C108.82 76.49 108.99 75.55 108.76 74.66L106.88 67.13C106.82 66.9 106.74 66.67 106.63 66.46L104.51 62.22C103.43 60.06 105.01 57.51 107.43 57.51L107.43 57.51" />
			<g id="Group 5520">
				<path id="Path 237" class="shp0" d="M77.08 16.32C102.81 20 122.6 42.13 122.6 68.89C122.6 98.22 98.82 122 69.49 122C53.63 122 39.39 115.05 29.66 104.02" />
				<path id="Path 238" class="shp0" d="M16.38 68.89C16.38 51.69 24.56 36.39 37.25 26.69" />
			</g>
			<g id="Group 5521">
				<path id="Path 239" class="shp0" d="M15.26 59.22C8.16 46.43 9.58 31.52 20.81 21.67C34.22 9.89 52.22 6.08 69.49 4.4C68.02 5.18 66.83 6.5 65.95 7.91C62.23 13.85 60.95 20.89 60.64 27.79C60.33 34.8 61.26 41.86 58.33 48.48C53.42 59.58 38.29 65.08 27.02 62.16" />
				<path id="Path 240" class="shp0" d="M30.48 103.97C36.17 77.41 5 78.48 5 78.48C5 78.48 6.34 109.33 30.48 103.97Z" />
				<path id="Path 241" class="shp0" d="M35.35 77.35C43.68 70.29 56.22 69.03 56.22 69.03C56.22 69.03 58.45 93.46 43.31 101.14" />
			</g>
		</g>
	</g>
</svg>