<svg xmlns="http://www.w3.org/2000/svg" viewBox="0 0 147 119" width="147" height="119">
	<defs>
		<clipPath clipPathUnits="userSpaceOnUse" id="cp1">
			<path d="M-882 -4100L1038 -4100L1038 3533L-882 3533Z" />
		</clipPath>
	</defs>
	<style>
		tspan { white-space:pre }
		.shp0 { fill: none;stroke: #033d2e;stroke-width: 4 } 
	</style>
	<g id="01a_strona_glowna" clip-path="url(#cp1)">
		<g id="Group 5917">
			<g id="Group 5526">
				<path id="Path 258" class="shp0" d="M132.85 95.91C135.97 94.53 138.33 91.33 141.16 85.83C133.56 81.05 125.24 83.89 119.83 94.1" />
				<path id="Path 259" class="shp0" d="M108.99 109.21C114.35 114.71 122.31 118.44 132.34 107.16C125.71 100.36 116.55 100.71 108.99 109.21Z" />
				<path id="Path 260" class="shp0" d="M135.85 73.56C139.17 71.09 141.66 66.5 142.16 58.41C133 57.76 126.19 64.34 125.46 76.07" />
				<path id="Path 261" class="shp0" d="M133.73 50.5C135.97 46.89 136.71 41.63 134.39 33.9C125.66 36.92 121.59 45.74 124.95 56.93" />
				<path id="Path 262" class="shp0" d="M14.31 95.75C11.18 94.36 8.82 91.17 5.99 85.67C13.6 80.89 21.92 83.73 27.33 93.94" />
				<path id="Path 263" class="shp0" d="M38.17 109.05C32.81 114.54 24.85 118.27 14.82 107C21.45 100.2 30.61 100.55 38.17 109.05Z" />
				<path id="Path 264" class="shp0" d="M11.31 73.4C7.99 70.93 5.5 66.34 5 58.25C14.15 57.6 20.97 64.18 21.7 75.9" />
				<path id="Path 265" class="shp0" d="M13.43 50.33C11.19 46.72 10.45 41.46 12.77 33.74C21.5 36.76 25.57 45.58 22.21 56.77" />
				<path id="Path 266" class="shp0" d="M52.66 90.5L37.77 90.5L37.77 4.11L109.26 4.11L109.26 90.5L94.36 90.5" />
				<path id="Path 267" class="shp0" d="M88.4 81.56C88.4 89.79 81.74 96.45 73.51 96.45C65.28 96.45 58.62 89.79 58.62 81.56C58.62 73.33 65.28 66.67 73.51 66.67C81.74 66.67 88.4 73.33 88.4 81.56Z" />
				<path id="Path 268" class="shp0" d="M79.47 93.48L85.43 114.33L73.51 108.37L61.6 114.33L67.55 93.48" />
				<path id="Line 29" class="shp0" d="M52.73 43.23L93.29 43.23L52.73 43.23Z" />
				<path id="Line 30" class="shp0" d="M61.74 30.6L85.18 30.6L61.74 30.6Z" />
			</g>
		</g>
	</g>
</svg>