<svg xmlns="http://www.w3.org/2000/svg" viewBox="0 0 254 60" width="254" height="60">
	<defs>
		<clipPath clipPathUnits="userSpaceOnUse" id="cp1">
			<path d="M-668 -2061L1252 -2061L1252 5572L-668 5572Z" />
		</clipPath>
	</defs>
	<style>
		tspan { white-space:pre }
		.shp0 { fill: #161615 } 
		.shp1 { fill: #ffffff } 
		.shp2 { fill: #a40b1f } 
		.shp3 { fill: #757474 } 
	</style>
	<g id="01a_strona_glowna" clip-path="url(#cp1)">
		<g id="Group 6090">
			<g id="Group 5992">
				<g id="Group 5990">
					<path id="Path 8398" fill-rule="evenodd" class="shp0" d="M111.74 13.28C113.87 13.28 115.49 13.67 116.62 14.45C117.75 15.23 118.31 16.42 118.31 18.02C118.31 20.02 117.33 21.37 115.35 22.08C115.63 22.41 115.93 22.81 116.27 23.28C116.61 23.74 116.96 24.25 117.31 24.79C117.67 25.34 118 25.9 118.33 26.48C118.66 27.05 118.95 27.61 119.21 28.17L116.21 28.17C115.94 27.65 115.65 27.14 115.33 26.62C115.02 26.11 114.71 25.6 114.39 25.11C114.07 24.63 113.75 24.17 113.44 23.73C113.13 23.3 112.84 22.91 112.57 22.57C112.37 22.59 112.2 22.59 112.06 22.59L110.36 22.59L110.36 28.17L107.68 28.17L107.68 13.64C108.33 13.5 109.03 13.4 109.76 13.35C110.5 13.31 111.16 13.28 111.74 13.28ZM111.93 15.6C111.36 15.6 110.84 15.62 110.36 15.66L110.36 20.43L111.53 20.43C112.18 20.43 112.75 20.39 113.25 20.32C113.75 20.25 114.16 20.12 114.49 19.94C114.83 19.75 115.08 19.51 115.25 19.19C115.42 18.88 115.5 18.48 115.5 18C115.5 17.55 115.42 17.17 115.25 16.85C115.08 16.54 114.83 16.29 114.51 16.11C114.2 15.92 113.82 15.79 113.38 15.72C112.94 15.64 112.45 15.6 111.93 15.6Z" />
					<path id="Path 8399" class="shp0" d="M129.11 18.85C128.83 19.15 128.46 19.57 128 20.11C127.54 20.65 127.04 21.24 126.52 21.9C125.99 22.56 125.47 23.25 124.94 23.97C124.4 24.68 123.92 25.37 123.5 26.02L129.24 26.02L129.24 28.16L120.4 28.16L120.4 26.57C120.71 26 121.1 25.39 121.57 24.72C122.03 24.05 122.52 23.38 123.01 22.71C123.51 22.04 124 21.4 124.49 20.79C124.98 20.18 125.41 19.64 125.8 19.19L120.67 19.19L120.67 17.04L129.11 17.04L129.11 18.85Z" />
					<path id="Path 8400" fill-rule="evenodd" class="shp0" d="M130.64 22.66C130.64 21.68 130.79 20.82 131.08 20.09C131.37 19.35 131.76 18.73 132.24 18.25C132.72 17.76 133.27 17.39 133.9 17.14C134.52 16.89 135.16 16.77 135.81 16.77C137.34 16.77 138.54 17.24 139.39 18.19C140.25 19.14 140.68 20.56 140.68 22.44C140.68 22.59 140.68 22.75 140.67 22.92C140.66 23.1 140.65 23.26 140.64 23.4L133.3 23.4C133.37 24.3 133.69 24.99 134.25 25.47C134.81 25.96 135.62 26.21 136.68 26.21C137.3 26.21 137.88 26.15 138.39 26.04C138.91 25.93 139.32 25.8 139.62 25.68L139.96 27.78C139.82 27.85 139.62 27.93 139.37 28.01C139.12 28.09 138.84 28.16 138.52 28.22C138.2 28.28 137.86 28.34 137.49 28.38C137.12 28.42 136.74 28.44 136.37 28.44C135.38 28.44 134.54 28.3 133.81 28.01C133.09 27.71 132.49 27.31 132.02 26.79C131.56 26.28 131.21 25.67 130.98 24.96C130.76 24.26 130.64 23.5 130.64 22.66ZM138.11 21.51C138.11 21.16 138.06 20.82 137.96 20.5C137.86 20.18 137.71 19.9 137.52 19.67C137.33 19.44 137.1 19.25 136.82 19.12C136.55 18.98 136.22 18.92 135.83 18.92C135.43 18.92 135.09 18.99 134.79 19.14C134.49 19.29 134.24 19.48 134.04 19.72C133.83 19.97 133.67 20.24 133.56 20.55C133.44 20.86 133.37 21.18 133.32 21.51L138.11 21.51Z" />
					<path id="Path 8401" class="shp0" d="M142.78 22.62C142.78 21.79 142.91 21.02 143.17 20.31C143.42 19.59 143.79 18.97 144.26 18.45C144.74 17.92 145.32 17.51 146 17.22C146.68 16.92 147.44 16.77 148.29 16.77C149.34 16.77 150.33 16.96 151.27 17.34L150.72 19.45C150.42 19.32 150.08 19.21 149.71 19.13C149.33 19.04 148.93 19 148.51 19C147.5 19 146.73 19.31 146.21 19.95C145.69 20.58 145.42 21.47 145.42 22.62C145.42 23.72 145.67 24.6 146.17 25.24C146.66 25.89 147.5 26.21 148.68 26.21C149.12 26.21 149.55 26.16 149.97 26.08C150.4 26 150.77 25.89 151.08 25.76L151.44 27.89C151.16 28.03 150.73 28.16 150.15 28.27C149.58 28.39 148.99 28.44 148.38 28.44C147.43 28.44 146.6 28.3 145.9 28.01C145.2 27.71 144.62 27.31 144.16 26.79C143.7 26.28 143.35 25.66 143.13 24.94C142.9 24.23 142.78 23.45 142.78 22.62Z" />
					<path id="Path 8402" class="shp0" d="M161.22 18.85C160.94 19.15 160.56 19.57 160.1 20.11C159.64 20.65 159.15 21.24 158.63 21.9C158.1 22.56 157.57 23.25 157.04 23.97C156.51 24.68 156.03 25.37 155.6 26.02L161.35 26.02L161.35 28.16L152.5 28.16L152.5 26.57C152.81 26 153.2 25.39 153.67 24.72C154.14 24.05 154.62 23.38 155.12 22.71C155.61 22.04 156.11 21.4 156.59 20.79C157.09 20.18 157.52 19.64 157.9 19.19L152.78 19.19L152.78 17.04L161.22 17.04L161.22 18.85Z" />
					<path id="Path 8403" fill-rule="evenodd" class="shp0" d="M173.74 22.62C173.74 23.47 173.63 24.25 173.41 24.96C173.19 25.66 172.88 26.27 172.47 26.78C172.06 27.29 171.54 27.69 170.93 27.97C170.31 28.26 169.61 28.4 168.83 28.4C168.3 28.4 167.82 28.34 167.39 28.21C166.95 28.08 166.59 27.94 166.3 27.78L166.3 32.1L163.73 32.1L163.73 17.41C164.25 17.27 164.9 17.13 165.66 17C166.43 16.88 167.24 16.81 168.09 16.81C168.97 16.81 169.75 16.94 170.45 17.22C171.14 17.48 171.73 17.87 172.22 18.37C172.71 18.88 173.09 19.49 173.35 20.2C173.61 20.92 173.74 21.72 173.74 22.62ZM171.11 22.66C171.11 21.51 170.85 20.62 170.33 19.98C169.81 19.34 168.98 19.02 167.83 19.02C167.59 19.02 167.34 19.03 167.08 19.05C166.82 19.08 166.56 19.12 166.3 19.19L166.3 25.55C166.53 25.7 166.83 25.85 167.2 25.98C167.58 26.12 167.98 26.19 168.4 26.19C169.34 26.19 170.03 25.87 170.46 25.23C170.89 24.59 171.11 23.74 171.11 22.66Z" />
					<path id="Path 8404" fill-rule="evenodd" class="shp0" d="M186.46 22.59C186.46 23.48 186.33 24.27 186.08 25C185.82 25.72 185.46 26.34 184.99 26.85C184.52 27.36 183.96 27.75 183.3 28.04C182.64 28.32 181.92 28.46 181.12 28.46C180.33 28.46 179.6 28.32 178.95 28.04C178.3 27.75 177.74 27.36 177.27 26.85C176.81 26.34 176.44 25.72 176.18 25C175.91 24.27 175.78 23.48 175.78 22.59C175.78 21.72 175.91 20.92 176.18 20.2C176.44 19.49 176.81 18.87 177.28 18.36C177.76 17.85 178.32 17.46 178.98 17.18C179.62 16.91 180.34 16.77 181.12 16.77C181.9 16.77 182.62 16.91 183.28 17.18C183.94 17.46 184.5 17.85 184.97 18.36C185.44 18.87 185.8 19.49 186.07 20.2C186.33 20.92 186.46 21.72 186.46 22.59ZM183.82 22.59C183.82 21.49 183.59 20.61 183.11 19.97C182.63 19.32 181.97 19 181.12 19C180.27 19 179.61 19.32 179.13 19.97C178.66 20.61 178.42 21.49 178.42 22.59C178.42 23.71 178.66 24.6 179.13 25.25C179.61 25.9 180.27 26.23 181.12 26.23C181.97 26.23 182.63 25.9 183.11 25.25C183.59 24.6 183.82 23.71 183.82 22.59Z" />
					<path id="Path 8405" class="shp0" d="M191.9 26.31C192.58 26.31 193.08 26.23 193.39 26.07C193.7 25.91 193.86 25.63 193.86 25.23C193.86 24.86 193.69 24.56 193.36 24.32C193.03 24.07 192.47 23.81 191.71 23.53C191.24 23.36 190.81 23.18 190.42 22.99C190.03 22.8 189.7 22.57 189.41 22.32C189.13 22.06 188.9 21.75 188.74 21.39C188.58 21.03 188.5 20.59 188.5 20.06C188.5 19.04 188.87 18.24 189.63 17.65C190.38 17.06 191.4 16.77 192.69 16.77C193.34 16.77 193.96 16.83 194.56 16.95C195.16 17.07 195.6 17.19 195.9 17.3L195.43 19.38C195.15 19.26 194.79 19.14 194.35 19.03C193.91 18.93 193.4 18.87 192.82 18.87C192.29 18.87 191.87 18.96 191.54 19.14C191.21 19.31 191.05 19.59 191.05 19.96C191.05 20.14 191.08 20.3 191.15 20.45C191.21 20.59 191.32 20.72 191.47 20.84C191.63 20.96 191.83 21.08 192.09 21.2C192.35 21.32 192.66 21.45 193.03 21.57C193.64 21.8 194.16 22.02 194.58 22.24C195.01 22.46 195.36 22.71 195.63 22.99C195.91 23.26 196.11 23.58 196.24 23.94C196.37 24.29 196.43 24.71 196.43 25.21C196.43 26.27 196.04 27.08 195.25 27.62C194.46 28.17 193.34 28.44 191.88 28.44C190.9 28.44 190.11 28.36 189.52 28.2C188.92 28.04 188.51 27.9 188.26 27.8L188.71 25.65C189.09 25.81 189.55 25.96 190.08 26.1C190.61 26.25 191.22 26.31 191.9 26.31Z" />
					<path id="Path 8406" fill-rule="evenodd" class="shp0" d="M208.85 22.62C208.85 23.47 208.74 24.25 208.52 24.96C208.3 25.66 207.98 26.27 207.57 26.78C207.16 27.29 206.64 27.69 206.03 27.97C205.41 28.26 204.72 28.4 203.94 28.4C203.41 28.4 202.93 28.34 202.49 28.21C202.05 28.08 201.69 27.94 201.41 27.78L201.41 32.1L198.83 32.1L198.83 17.41C199.36 17.27 200 17.13 200.77 17C201.54 16.88 202.34 16.81 203.19 16.81C204.07 16.81 204.86 16.94 205.56 17.22C206.25 17.48 206.84 17.87 207.33 18.37C207.82 18.88 208.19 19.49 208.45 20.2C208.72 20.92 208.85 21.72 208.85 22.62ZM206.21 22.66C206.21 21.51 205.95 20.62 205.44 19.98C204.92 19.34 204.09 19.02 202.94 19.02C202.69 19.02 202.44 19.03 202.18 19.05C201.92 19.08 201.66 19.12 201.41 19.19L201.41 25.55C201.63 25.7 201.93 25.85 202.31 25.98C202.69 26.12 203.09 26.19 203.51 26.19C204.45 26.19 205.13 25.87 205.56 25.23C206 24.59 206.21 23.74 206.21 22.66Z" />
					<path id="Path 8407" fill-rule="evenodd" class="shp0" d="M221.56 22.59C221.56 23.48 221.44 24.27 221.18 25C220.93 25.72 220.56 26.34 220.1 26.85C219.63 27.36 219.07 27.75 218.41 28.04C217.75 28.32 217.02 28.46 216.23 28.46C215.43 28.46 214.71 28.32 214.06 28.04C213.41 27.75 212.85 27.36 212.38 26.85C211.91 26.34 211.55 25.72 211.29 25C211.02 24.27 210.89 23.48 210.89 22.59C210.89 21.72 211.02 20.92 211.29 20.2C211.55 19.49 211.91 18.87 212.39 18.36C212.86 17.85 213.43 17.46 214.08 17.18C214.73 16.91 215.45 16.77 216.23 16.77C217 16.77 217.73 16.91 218.39 17.18C219.04 17.46 219.61 17.85 220.08 18.36C220.55 18.87 220.91 19.49 221.17 20.2C221.43 20.92 221.56 21.72 221.56 22.59ZM218.93 22.59C218.93 21.49 218.69 20.61 218.22 19.97C217.74 19.32 217.08 19 216.23 19C215.38 19 214.71 19.32 214.24 19.97C213.76 20.61 213.53 21.49 213.53 22.59C213.53 23.71 213.76 24.6 214.24 25.25C214.71 25.9 215.38 26.23 216.23 26.23C217.08 26.23 217.74 25.9 218.22 25.25C218.69 24.6 218.93 23.71 218.93 22.59Z" />
					<path id="Path 8408" class="shp0" d="M228.09 28.38C227.32 28.36 226.69 28.28 226.19 28.12C225.68 27.97 225.28 27.75 224.99 27.45C224.69 27.16 224.48 26.8 224.36 26.37C224.24 25.94 224.18 25.44 224.18 24.89L224.18 14L226.75 13.58L226.75 24.4C226.75 24.71 226.78 24.98 226.82 25.19C226.88 25.4 226.96 25.58 227.09 25.73C227.22 25.88 227.39 25.99 227.61 26.07C227.83 26.15 228.11 26.21 228.45 26.25L228.09 28.38Z" />
					<path id="Path 8409" class="shp0" d="M233.13 28.16L230.56 28.16L230.56 17.04L233.13 17.04L233.13 28.16ZM233.41 13.79C233.41 14.27 233.25 14.66 232.94 14.94C232.63 15.22 232.26 15.36 231.83 15.36C231.4 15.36 231.02 15.22 230.71 14.94C230.4 14.66 230.24 14.27 230.24 13.79C230.24 13.3 230.4 12.91 230.71 12.62C231.02 12.34 231.4 12.2 231.83 12.2C232.26 12.2 232.63 12.34 232.94 12.62C233.25 12.91 233.41 13.3 233.41 13.79Z" />
					<path id="Path 8410" class="shp0" d="M236.28 14L238.85 13.58L238.85 17.04L242.8 17.04L242.8 19.19L238.85 19.19L238.85 23.72C238.85 24.61 238.99 25.25 239.27 25.63C239.56 26.02 240.04 26.21 240.72 26.21C241.19 26.21 241.6 26.16 241.97 26.06C242.33 25.96 242.61 25.87 242.83 25.78L243.25 27.83C242.95 27.95 242.56 28.08 242.08 28.22C241.6 28.35 241.03 28.42 240.38 28.42C239.58 28.42 238.92 28.31 238.39 28.1C237.86 27.89 237.44 27.58 237.13 27.18C236.81 26.77 236.6 26.28 236.47 25.71C236.34 25.14 236.28 24.48 236.28 23.74L236.28 14Z" />
					<path id="Path 8411" fill-rule="evenodd" class="shp0" d="M248.99 16.77C249.84 16.77 250.56 16.87 251.14 17.09C251.72 17.3 252.18 17.6 252.53 17.98C252.88 18.36 253.13 18.83 253.28 19.37C253.42 19.92 253.5 20.52 253.5 21.17L253.5 27.91C253.1 27.99 252.5 28.1 251.7 28.22C250.9 28.34 250 28.4 248.99 28.4C248.33 28.4 247.72 28.34 247.16 28.21C246.61 28.08 246.14 27.88 245.75 27.59C245.36 27.31 245.05 26.94 244.84 26.49C244.62 26.03 244.51 25.47 244.51 24.81C244.51 24.17 244.63 23.63 244.88 23.19C245.13 22.75 245.46 22.39 245.89 22.12C246.31 21.84 246.8 21.64 247.37 21.52C247.93 21.4 248.51 21.34 249.12 21.34C249.4 21.34 249.7 21.36 250.01 21.39C250.32 21.43 250.66 21.49 251.01 21.57L251.01 21.15C251.01 20.85 250.98 20.57 250.91 20.3C250.83 20.03 250.71 19.79 250.53 19.59C250.35 19.38 250.12 19.22 249.83 19.11C249.54 18.99 249.18 18.94 248.74 18.94C248.14 18.94 247.6 18.98 247.1 19.07C246.6 19.15 246.2 19.25 245.89 19.36L245.57 17.28C245.89 17.16 246.37 17.05 246.99 16.94C247.62 16.83 248.28 16.77 248.99 16.77ZM249.2 26.36C250 26.36 250.6 26.31 251.01 26.23L251.01 23.38C250.87 23.34 250.66 23.3 250.4 23.25C250.12 23.21 249.83 23.19 249.5 23.19C249.22 23.19 248.93 23.21 248.64 23.25C248.35 23.3 248.09 23.37 247.85 23.49C247.62 23.6 247.43 23.76 247.29 23.97C247.15 24.17 247.08 24.43 247.08 24.74C247.08 25.35 247.27 25.77 247.65 26.01C248.03 26.24 248.55 26.36 249.2 26.36Z" />
					<path id="Path 8412" fill-rule="evenodd" class="shp0" d="M111.85 33C113.99 33 115.62 33.38 116.77 34.17C117.91 34.95 118.48 36.16 118.48 37.82C118.48 38.69 118.32 39.43 118.02 40.05C117.72 40.66 117.27 41.16 116.7 41.55C116.11 41.95 115.4 42.23 114.57 42.42C113.73 42.6 112.78 42.69 111.7 42.69L110.36 42.69L110.36 47.88L107.68 47.88L107.68 33.36C108.3 33.22 108.99 33.12 109.75 33.07C110.51 33.02 111.21 33 111.85 33ZM112.03 35.31C111.36 35.31 110.8 35.34 110.36 35.38L110.36 40.4L111.66 40.4C112.94 40.4 113.94 40.22 114.63 39.85C115.33 39.49 115.67 38.81 115.67 37.8C115.67 37.32 115.58 36.92 115.4 36.59C115.22 36.26 114.96 36.01 114.63 35.82C114.31 35.64 113.92 35.51 113.47 35.43C113.02 35.35 112.55 35.31 112.03 35.31Z" />
					<path id="Path 8413" fill-rule="evenodd" class="shp0" d="M130.47 42.31C130.47 43.19 130.34 43.99 130.09 44.71C129.84 45.44 129.47 46.05 129.01 46.56C128.54 47.07 127.98 47.47 127.31 47.75C126.66 48.04 125.93 48.18 125.13 48.18C124.34 48.18 123.62 48.04 122.97 47.75C122.31 47.47 121.75 47.07 121.29 46.56C120.82 46.05 120.45 45.44 120.19 44.71C119.93 43.99 119.8 43.19 119.8 42.31C119.8 41.43 119.93 40.63 120.19 39.92C120.45 39.2 120.82 38.59 121.3 38.08C121.77 37.57 122.34 37.17 122.99 36.9C123.64 36.62 124.35 36.48 125.13 36.48C125.92 36.48 126.63 36.62 127.29 36.9C127.95 37.17 128.52 37.57 128.98 38.08C129.45 38.59 129.82 39.2 130.08 39.92C130.34 40.63 130.47 41.43 130.47 42.31ZM127.84 42.31C127.84 41.2 127.6 40.33 127.12 39.68C126.65 39.04 125.98 38.72 125.13 38.72C124.29 38.72 123.62 39.04 123.15 39.68C122.67 40.33 122.43 41.2 122.43 42.31C122.43 43.43 122.67 44.32 123.15 44.97C123.62 45.62 124.29 45.95 125.13 45.95C125.98 45.95 126.65 45.62 127.12 44.97C127.6 44.32 127.84 43.43 127.84 42.31Z" />
					<path id="Path 8414" class="shp0" d="M137 48.09C136.23 48.08 135.6 47.99 135.1 47.84C134.59 47.68 134.19 47.46 133.89 47.17C133.6 46.88 133.39 46.52 133.27 46.08C133.15 45.65 133.09 45.16 133.09 44.61L133.09 33.74L135.66 33.32L135.66 44.12C135.66 44.43 135.69 44.69 135.74 44.9C135.79 45.12 135.87 45.3 136 45.45C136.13 45.59 136.3 45.71 136.52 45.79C136.74 45.87 137.02 45.92 137.36 45.97L137 48.09Z" />
					<path id="Path 8415" class="shp0" d="M142.23 46.03C142.91 46.03 143.41 45.95 143.72 45.79C144.03 45.62 144.19 45.34 144.19 44.95C144.19 44.58 144.02 44.27 143.69 44.03C143.35 43.79 142.8 43.53 142.04 43.25C141.57 43.08 141.14 42.89 140.75 42.7C140.36 42.51 140.03 42.29 139.74 42.03C139.46 41.78 139.23 41.47 139.07 41.11C138.91 40.74 138.83 40.3 138.83 39.78C138.83 38.76 139.2 37.95 139.95 37.37C140.71 36.78 141.73 36.48 143.02 36.48C143.67 36.48 144.29 36.54 144.89 36.66C145.49 36.79 145.93 36.9 146.23 37.02L145.76 39.1C145.48 38.97 145.11 38.85 144.68 38.75C144.24 38.64 143.73 38.59 143.15 38.59C142.62 38.59 142.2 38.68 141.87 38.85C141.54 39.03 141.38 39.3 141.38 39.67C141.38 39.86 141.41 40.02 141.48 40.16C141.54 40.3 141.65 40.43 141.81 40.56C141.96 40.68 142.17 40.8 142.42 40.92C142.68 41.04 142.99 41.16 143.36 41.29C143.97 41.52 144.48 41.74 144.91 41.96C145.34 42.18 145.69 42.43 145.97 42.7C146.24 42.98 146.44 43.3 146.57 43.65C146.7 44 146.76 44.43 146.76 44.93C146.76 45.99 146.37 46.79 145.58 47.34C144.79 47.88 143.67 48.16 142.21 48.16C141.23 48.16 140.45 48.07 139.85 47.91C139.26 47.75 138.84 47.62 138.6 47.52L139.04 45.37C139.43 45.53 139.88 45.68 140.41 45.82C140.94 45.96 141.55 46.03 142.23 46.03Z" />
					<path id="Path 8416" class="shp0" d="M151.73 41.1C152.06 40.76 152.41 40.39 152.78 40C153.15 39.61 153.51 39.22 153.86 38.83C154.21 38.44 154.55 38.07 154.87 37.71C155.19 37.35 155.46 37.03 155.69 36.76L158.73 36.76C158.02 37.55 157.28 38.37 156.5 39.23C155.71 40.08 154.92 40.91 154.13 41.72C154.55 42.07 155 42.5 155.46 43C155.93 43.5 156.39 44.04 156.83 44.61C157.26 45.17 157.67 45.74 158.05 46.31C158.44 46.87 158.75 47.4 159.01 47.88L156.03 47.88C155.78 47.44 155.48 46.98 155.15 46.5C154.82 46.02 154.46 45.55 154.07 45.09C153.69 44.64 153.3 44.21 152.91 43.81C152.51 43.4 152.12 43.06 151.73 42.78L151.73 47.88L149.16 47.88L149.16 33.74L151.73 33.32L151.73 41.1Z" />
					<path id="Path 8417" fill-rule="evenodd" class="shp0" d="M164.58 36.48C165.43 36.48 166.14 36.59 166.73 36.8C167.31 37.02 167.77 37.31 168.12 37.69C168.46 38.08 168.71 38.54 168.86 39.09C169.01 39.63 169.09 40.23 169.09 40.88L169.09 47.63C168.69 47.71 168.09 47.81 167.29 47.93C166.48 48.05 165.58 48.11 164.58 48.11C163.91 48.11 163.3 48.05 162.75 47.92C162.2 47.8 161.72 47.59 161.33 47.31C160.95 47.02 160.64 46.65 160.42 46.2C160.2 45.75 160.09 45.19 160.09 44.52C160.09 43.88 160.22 43.35 160.46 42.9C160.71 42.47 161.05 42.11 161.47 41.83C161.9 41.55 162.39 41.36 162.95 41.24C163.51 41.11 164.09 41.06 164.7 41.06C164.99 41.06 165.28 41.07 165.6 41.11C165.91 41.14 166.24 41.2 166.6 41.29L166.6 40.86C166.6 40.56 166.56 40.28 166.49 40.01C166.42 39.74 166.3 39.51 166.12 39.3C165.94 39.1 165.71 38.93 165.42 38.82C165.13 38.71 164.76 38.65 164.32 38.65C163.73 38.65 163.18 38.7 162.68 38.78C162.19 38.86 161.79 38.96 161.47 39.08L161.15 36.99C161.48 36.88 161.96 36.77 162.58 36.65C163.2 36.54 163.87 36.48 164.58 36.48ZM164.79 46.07C165.58 46.07 166.18 46.03 166.6 45.95L166.6 43.1C166.45 43.05 166.25 43.01 165.98 42.97C165.71 42.93 165.41 42.9 165.09 42.9C164.8 42.9 164.52 42.93 164.23 42.97C163.94 43.01 163.68 43.09 163.44 43.2C163.2 43.32 163.02 43.48 162.87 43.68C162.73 43.89 162.66 44.14 162.66 44.46C162.66 45.07 162.85 45.49 163.24 45.72C163.62 45.96 164.14 46.07 164.79 46.07Z" />
				</g>
				<g id="Group 5991">
					<path id="Rectangle 279" class="shp1" d="M0.66 0.97L88.26 0.97L88.26 30.21L0.66 30.21L0.66 0.97Z" />
					<path id="Rectangle 280" class="shp2" d="M0.66 30.21L88.26 30.21L88.26 59.44L0.66 59.44L0.66 30.21Z" />
				</g>
				<path id="Path 8418" fill-rule="evenodd" class="shp3" d="M0.65 0.97L88.26 0.97L88.26 59.44L0.65 59.44L0.65 0.97ZM0.93 59.16L87.99 59.16L87.99 1.24L0.93 1.24L0.93 59.16Z" />
			</g>
		</g>
	</g>
</svg>