<svg xmlns="http://www.w3.org/2000/svg" viewBox="0 0 175 76" width="175" height="76">
	<defs>
		<clipPath clipPathUnits="userSpaceOnUse" id="cp1">
			<path d="M-412 -2050L1508 -2050L1508 5583L-412 5583Z" />
		</clipPath>
	</defs>
	<style>
		tspan { white-space:pre }
		.shp0 { fill: #164194 } 
		.shp1 { fill: #000000 } 
		.shp2 { fill: #ffed00 } 
		.shp3 { fill: #e30613 } 
		.shp4 { fill: #ffffff } 
	</style>
	<g id="01a_strona_glowna" clip-path="url(#cp1)">
		<g id="Group 6090">
			<g id="Group 6001">
				<g id="Group 6000">
					<path id="Path 8459" class="shp0" d="M38.12 75.95L0.46 68.88L0.46 12.39L38.12 0.62L38.12 75.95Z" />
					<path id="Path 8460" class="shp1" d="M56.95 28.87L56.95 14.74L65.87 14.74L65.87 16.92L59.51 16.92L59.51 20.53L65.16 20.53L65.16 22.71L59.51 22.71L59.51 28.87L56.95 28.87Z" />
					<g id="Group 5995">
						<g id="Group 5994">
							<path id="Path 8461" class="shp1" d="M76.23 28.32C75.75 28.44 75.14 28.57 74.37 28.69C73.61 28.83 72.78 28.89 71.87 28.89C71.01 28.89 70.29 28.77 69.72 28.52C69.14 28.28 68.68 27.94 68.33 27.5C67.98 27.07 67.74 26.55 67.59 25.94C67.44 25.34 67.36 24.68 67.36 23.96L67.36 17.98L69.83 17.98L69.83 23.57C69.83 24.71 70 25.53 70.33 26.02C70.66 26.5 71.24 26.75 72.07 26.75C72.37 26.75 72.69 26.73 73.02 26.71C73.35 26.68 73.6 26.65 73.76 26.61L73.76 17.98L76.23 17.98L76.23 28.32Z" />
							<path id="Path 8462" class="shp1" d="M79.25 18.55C79.72 18.42 80.34 18.29 81.1 18.17C81.86 18.04 82.7 17.98 83.63 17.98C84.5 17.98 85.22 18.1 85.81 18.34C86.39 18.58 86.86 18.91 87.2 19.34C87.55 19.77 87.79 20.28 87.94 20.89C88.08 21.49 88.15 22.16 88.15 22.88L88.15 28.87L85.69 28.87L85.69 23.26C85.69 22.69 85.65 22.21 85.57 21.81C85.5 21.41 85.38 21.08 85.21 20.83C85.04 20.58 84.81 20.39 84.51 20.28C84.22 20.16 83.87 20.1 83.45 20.1C83.13 20.1 82.81 20.12 82.47 20.17C82.12 20.21 81.88 20.24 81.71 20.27L81.71 28.87L79.25 28.87L79.25 18.55Z" />
							<path id="Path 8463" fill-rule="evenodd" class="shp1" d="M100.06 28.3C99.57 28.45 98.95 28.58 98.21 28.71C97.47 28.83 96.69 28.89 95.88 28.89C95.03 28.89 94.28 28.76 93.62 28.5C92.95 28.24 92.38 27.87 91.91 27.39C91.45 26.91 91.08 26.32 90.83 25.64C90.58 24.95 90.46 24.18 90.46 23.32C90.46 22.48 90.56 21.72 90.77 21.03C90.98 20.35 91.29 19.76 91.7 19.27C92.11 18.78 92.6 18.4 93.19 18.14C93.77 17.87 94.45 17.74 95.21 17.74C95.72 17.74 96.18 17.8 96.57 17.92C96.97 18.04 97.31 18.18 97.59 18.33L97.59 15.15L100.06 14.74L100.06 28.3ZM92.98 23.26C92.98 24.35 93.24 25.2 93.76 25.82C94.28 26.44 94.99 26.75 95.9 26.75C96.29 26.75 96.63 26.73 96.91 26.7C97.19 26.67 97.41 26.63 97.59 26.59L97.59 20.47C97.37 20.32 97.08 20.18 96.72 20.05C96.36 19.92 95.98 19.86 95.57 19.86C94.67 19.86 94.02 20.16 93.61 20.78C93.19 21.39 92.98 22.22 92.98 23.26Z" />
							<path id="Path 8464" class="shp1" d="M111.82 28.32C111.34 28.44 110.73 28.57 109.96 28.69C109.2 28.83 108.37 28.89 107.46 28.89C106.6 28.89 105.88 28.77 105.31 28.52C104.73 28.28 104.27 27.94 103.92 27.5C103.57 27.07 103.32 26.55 103.18 25.94C103.03 25.34 102.95 24.68 102.95 23.96L102.95 17.98L105.42 17.98L105.42 23.57C105.42 24.71 105.58 25.53 105.92 26.02C106.25 26.5 106.83 26.75 107.66 26.75C107.96 26.75 108.28 26.73 108.61 26.71C108.94 26.68 109.19 26.65 109.35 26.61L109.35 17.98L111.82 17.98L111.82 28.32Z" />
							<path id="Path 8465" class="shp1" d="M117.51 26.85C118.16 26.85 118.63 26.77 118.93 26.62C119.23 26.46 119.38 26.19 119.38 25.81C119.38 25.46 119.22 25.17 118.9 24.94C118.58 24.7 118.06 24.45 117.32 24.18C116.87 24.02 116.46 23.84 116.09 23.66C115.72 23.48 115.39 23.26 115.12 23.02C114.85 22.77 114.63 22.48 114.48 22.13C114.32 21.79 114.25 21.36 114.25 20.86C114.25 19.88 114.61 19.11 115.33 18.54C116.05 17.98 117.02 17.7 118.26 17.7C118.89 17.7 119.48 17.76 120.05 17.87C120.62 17.99 121.05 18.1 121.34 18.21L120.89 20.2C120.62 20.08 120.27 19.97 119.85 19.87C119.43 19.77 118.94 19.71 118.38 19.71C117.88 19.71 117.47 19.8 117.16 19.97C116.85 20.14 116.69 20.4 116.69 20.75C116.69 20.93 116.72 21.09 116.78 21.22C116.85 21.36 116.95 21.49 117.1 21.6C117.25 21.72 117.44 21.83 117.69 21.95C117.93 22.06 118.23 22.18 118.59 22.31C119.17 22.52 119.67 22.74 120.07 22.95C120.48 23.16 120.82 23.4 121.08 23.66C121.35 23.93 121.54 24.23 121.66 24.57C121.79 24.91 121.85 25.32 121.85 25.79C121.85 26.81 121.47 27.58 120.72 28.1C119.96 28.63 118.89 28.89 117.49 28.89C116.55 28.89 115.79 28.81 115.22 28.65C114.65 28.5 114.25 28.37 114.02 28.28L114.45 26.22C114.82 26.37 115.25 26.51 115.76 26.65C116.27 26.78 116.85 26.85 117.51 26.85Z" />
							<path id="Path 8466" class="shp1" d="M131.49 19.94C131.22 20.23 130.86 20.63 130.42 21.14C129.98 21.66 129.51 22.23 129 22.86C128.5 23.5 127.99 24.16 127.48 24.84C126.97 25.53 126.52 26.18 126.11 26.81L131.61 26.81L131.61 28.87L123.13 28.87L123.13 27.34C123.43 26.79 123.81 26.2 124.25 25.57C124.7 24.93 125.17 24.29 125.64 23.64C126.12 22.99 126.59 22.38 127.06 21.8C127.53 21.21 127.94 20.7 128.31 20.27L123.4 20.27L123.4 18.21L131.49 18.21L131.49 19.94Z" />
							<path id="Path 8467" fill-rule="evenodd" class="shp1" d="M132.84 23.34C132.84 22.41 132.97 21.58 133.25 20.88C133.53 20.17 133.9 19.58 134.37 19.11C134.83 18.64 135.36 18.29 135.95 18.05C136.55 17.82 137.16 17.7 137.79 17.7C139.26 17.7 140.4 18.15 141.23 19.06C142.05 19.97 142.46 21.33 142.46 23.14C142.46 23.27 142.45 23.43 142.45 23.6C142.44 23.77 142.43 23.92 142.42 24.06L135.38 24.06C135.45 24.91 135.75 25.57 136.29 26.04C136.83 26.51 137.61 26.75 138.63 26.75C139.22 26.75 139.77 26.69 140.27 26.58C140.76 26.47 141.15 26.36 141.44 26.24L141.76 28.26C141.63 28.32 141.44 28.4 141.2 28.47C140.96 28.54 140.69 28.61 140.39 28.67C140.08 28.73 139.75 28.79 139.4 28.83C139.05 28.87 138.69 28.89 138.32 28.89C137.38 28.89 136.57 28.75 135.87 28.47C135.18 28.19 134.61 27.8 134.16 27.31C133.71 26.81 133.38 26.23 133.16 25.55C132.95 24.88 132.84 24.14 132.84 23.34ZM139.99 22.24C139.99 21.9 139.94 21.58 139.85 21.27C139.75 20.97 139.61 20.7 139.43 20.48C139.25 20.25 139.02 20.08 138.76 19.95C138.49 19.82 138.18 19.75 137.81 19.75C137.43 19.75 137.1 19.83 136.81 19.97C136.52 20.11 136.28 20.3 136.09 20.53C135.89 20.76 135.74 21.03 135.63 21.33C135.52 21.62 135.44 21.93 135.4 22.24L139.99 22.24Z" />
						</g>
					</g>
					<path id="Path 8468" class="shp1" d="M56.95 47.7L56.95 33.57L66.02 33.57L66.02 35.75L59.51 35.75L59.51 39.24L65.3 39.24L65.3 41.38L59.51 41.38L59.51 45.52L66.5 45.52L66.5 47.7L56.95 47.7Z" />
					<path id="Rectangle 286" class="shp1" d="M56.96 57.22L58.27 57.22L58.27 66.54L56.96 66.54L56.96 57.22Z" />
					<path id="Path 8469" class="shp1" d="M60.43 59.75C60.72 59.68 61.1 59.6 61.57 59.52C62.05 59.44 62.6 59.4 63.22 59.4C63.77 59.4 64.23 59.48 64.6 59.64C64.97 59.79 65.26 60.01 65.48 60.3C65.7 60.58 65.86 60.91 65.95 61.31C66.04 61.71 66.08 62.14 66.08 62.62L66.08 66.54L64.83 66.54L64.83 62.88C64.83 62.45 64.8 62.09 64.74 61.78C64.68 61.48 64.59 61.23 64.45 61.04C64.32 60.85 64.14 60.72 63.92 60.63C63.69 60.54 63.41 60.5 63.08 60.5C62.95 60.5 62.81 60.51 62.67 60.52C62.52 60.52 62.38 60.54 62.25 60.55C62.12 60.56 62.01 60.58 61.9 60.6C61.8 60.62 61.73 60.63 61.68 60.64L61.68 66.54L60.43 66.54L60.43 59.75Z" />
					<path id="Path 8470" class="shp1" d="M69.26 59.39L71.91 59.39L71.91 60.44L69.26 60.44L69.26 63.67C69.26 64.01 69.28 64.3 69.34 64.53C69.39 64.76 69.47 64.94 69.58 65.07C69.69 65.2 69.82 65.29 69.98 65.35C70.14 65.4 70.33 65.43 70.55 65.43C70.92 65.43 71.23 65.38 71.45 65.3C71.68 65.21 71.84 65.15 71.93 65.12L72.18 66.15C72.05 66.21 71.83 66.3 71.52 66.39C71.2 66.48 70.84 66.53 70.44 66.53C69.96 66.53 69.57 66.47 69.26 66.35C68.95 66.23 68.7 66.05 68.51 65.8C68.33 65.56 68.19 65.26 68.12 64.91C68.04 64.55 68 64.14 68 63.68L68 57.44L69.26 57.22L69.26 59.39Z" />
					<path id="Path 8471" fill-rule="evenodd" class="shp1" d="M72.9 62.9C72.9 62.28 72.99 61.74 73.17 61.28C73.35 60.81 73.59 60.43 73.88 60.13C74.18 59.82 74.52 59.59 74.91 59.44C75.29 59.29 75.69 59.21 76.09 59.21C77.03 59.21 77.76 59.51 78.26 60.09C78.76 60.68 79.01 61.58 79.01 62.78L79.01 62.99C79.01 63.07 79 63.15 79 63.22L74.21 63.22C74.26 63.95 74.47 64.5 74.84 64.88C75.21 65.25 75.78 65.44 76.56 65.44C77 65.44 77.37 65.4 77.67 65.33C77.97 65.25 78.2 65.18 78.35 65.1L78.53 66.15C78.37 66.23 78.1 66.32 77.73 66.41C77.34 66.5 76.91 66.54 76.43 66.54C75.82 66.54 75.29 66.45 74.85 66.27C74.4 66.08 74.04 65.83 73.75 65.51C73.46 65.18 73.25 64.8 73.11 64.36C72.97 63.91 72.9 63.43 72.9 62.9ZM77.7 62.21C77.71 61.65 77.57 61.18 77.28 60.82C76.99 60.46 76.59 60.28 76.08 60.28C75.79 60.28 75.54 60.33 75.32 60.44C75.1 60.56 74.91 60.7 74.76 60.88C74.61 61.06 74.49 61.27 74.4 61.5C74.32 61.73 74.26 61.97 74.23 62.21L77.7 62.21Z" />
					<path id="Path 8472" class="shp1" d="M82.84 66.54C82.07 66.52 81.53 66.36 81.2 66.04C80.88 65.73 80.72 65.24 80.72 64.58L80.72 56.19L81.97 55.97L81.97 64.38C81.97 64.58 81.99 64.75 82.02 64.89C82.06 65.02 82.12 65.13 82.2 65.21C82.28 65.29 82.39 65.35 82.52 65.39C82.65 65.43 82.82 65.47 83.02 65.5L82.84 66.54Z" />
					<path id="Path 8473" class="shp1" d="M85.6 66.54L84.35 66.54L84.35 59.55L85.6 59.55L85.6 66.54ZM84.97 58.28C84.74 58.28 84.55 58.21 84.4 58.06C84.24 57.91 84.16 57.71 84.16 57.46C84.16 57.21 84.24 57.01 84.4 56.86C84.55 56.71 84.74 56.64 84.97 56.64C85.19 56.64 85.38 56.71 85.54 56.86C85.7 57.01 85.78 57.21 85.78 57.46C85.78 57.71 85.7 57.91 85.54 58.06C85.38 58.21 85.19 58.28 84.97 58.28Z" />
					<path id="Path 8474" fill-rule="evenodd" class="shp1" d="M92.07 65.85C91.96 65.92 91.75 66.01 91.45 66.12C91.14 66.23 90.77 66.29 90.36 66.29C89.94 66.29 89.54 66.22 89.17 66.09C88.8 65.95 88.47 65.75 88.2 65.46C87.92 65.18 87.7 64.83 87.54 64.41C87.38 63.98 87.29 63.48 87.29 62.9C87.29 62.39 87.37 61.92 87.52 61.49C87.68 61.07 87.9 60.7 88.19 60.39C88.48 60.08 88.84 59.84 89.26 59.66C89.68 59.49 90.16 59.4 90.69 59.4C91.27 59.4 91.78 59.44 92.21 59.53C92.65 59.61 93.01 59.69 93.31 59.77L93.31 66.01C93.31 67.08 93.03 67.86 92.47 68.35C91.92 68.83 91.08 69.07 89.94 69.07C89.51 69.07 89.09 69.04 88.7 68.97C88.31 68.89 87.97 68.81 87.69 68.71L87.91 67.62C88.16 67.72 88.47 67.81 88.83 67.88C89.2 67.96 89.58 68 89.97 68C90.72 68 91.25 67.85 91.58 67.55C91.91 67.26 92.07 66.79 92.07 66.14L92.07 65.85ZM92.06 60.65C91.93 60.62 91.76 60.58 91.55 60.55C91.34 60.52 91.06 60.5 90.7 60.5C90.03 60.5 89.51 60.73 89.14 61.16C88.78 61.6 88.6 62.19 88.6 62.91C88.6 63.32 88.65 63.66 88.75 63.95C88.86 64.24 89 64.47 89.17 64.66C89.35 64.85 89.55 64.99 89.78 65.08C90.01 65.17 90.24 65.21 90.48 65.21C90.81 65.21 91.12 65.17 91.4 65.07C91.68 64.98 91.89 64.87 92.06 64.74L92.06 60.65Z" />
					<path id="Path 8475" fill-rule="evenodd" class="shp1" d="M95 62.9C95 62.28 95.09 61.74 95.27 61.28C95.45 60.81 95.69 60.43 95.98 60.13C96.28 59.82 96.62 59.59 97.01 59.44C97.39 59.29 97.79 59.21 98.19 59.21C99.13 59.21 99.85 59.51 100.36 60.09C100.86 60.68 101.11 61.58 101.11 62.78L101.11 62.99C101.11 63.07 101.1 63.15 101.1 63.22L96.31 63.22C96.36 63.95 96.57 64.5 96.94 64.88C97.31 65.25 97.88 65.44 98.66 65.44C99.1 65.44 99.47 65.4 99.77 65.33C100.07 65.25 100.3 65.18 100.45 65.1L100.63 66.15C100.47 66.23 100.2 66.32 99.83 66.41C99.44 66.5 99.01 66.54 98.53 66.54C97.92 66.54 97.39 66.45 96.95 66.27C96.5 66.08 96.14 65.83 95.85 65.51C95.56 65.18 95.35 64.8 95.21 64.36C95.07 63.91 95 63.43 95 62.9ZM99.8 62.21C99.81 61.65 99.67 61.18 99.38 60.82C99.09 60.46 98.69 60.28 98.18 60.28C97.89 60.28 97.64 60.33 97.42 60.44C97.2 60.56 97.01 60.7 96.86 60.88C96.71 61.06 96.59 61.27 96.5 61.5C96.42 61.73 96.36 61.97 96.33 62.21L99.8 62.21Z" />
					<path id="Path 8476" class="shp1" d="M102.85 59.75C103.13 59.68 103.51 59.6 103.99 59.52C104.46 59.44 105.01 59.4 105.63 59.4C106.19 59.4 106.65 59.48 107.02 59.64C107.38 59.79 107.68 60.01 107.9 60.3C108.12 60.58 108.27 60.91 108.36 61.31C108.45 61.71 108.5 62.14 108.5 62.62L108.5 66.54L107.24 66.54L107.24 62.88C107.24 62.45 107.22 62.09 107.16 61.78C107.1 61.48 107 61.23 106.87 61.04C106.73 60.85 106.55 60.72 106.33 60.63C106.11 60.54 105.83 60.5 105.5 60.5C105.36 60.5 105.22 60.51 105.08 60.52C104.93 60.52 104.8 60.54 104.67 60.55C104.54 60.56 104.42 60.58 104.32 60.6C104.22 60.62 104.14 60.63 104.1 60.64L104.1 66.54L102.85 66.54L102.85 59.75Z" />
					<path id="Path 8477" class="shp1" d="M111.67 59.39L114.32 59.39L114.32 60.44L111.67 60.44L111.67 63.67C111.67 64.01 111.7 64.3 111.75 64.53C111.81 64.76 111.89 64.94 111.99 65.07C112.1 65.2 112.24 65.29 112.4 65.35C112.56 65.4 112.75 65.43 112.96 65.43C113.34 65.43 113.64 65.38 113.87 65.3C114.1 65.21 114.26 65.15 114.35 65.12L114.59 66.15C114.46 66.21 114.24 66.3 113.93 66.39C113.62 66.48 113.26 66.53 112.85 66.53C112.38 66.53 111.99 66.47 111.68 66.35C111.37 66.23 111.12 66.05 110.93 65.8C110.74 65.56 110.61 65.26 110.53 64.91C110.46 64.55 110.42 64.14 110.42 63.68L110.42 57.44L111.67 57.22L111.67 59.39Z" />
					<path id="Path 8478" class="shp1" d="M115.84 59.75C116.13 59.68 116.51 59.6 116.98 59.52C117.46 59.44 118.01 59.4 118.62 59.4C119.18 59.4 119.64 59.48 120.01 59.64C120.38 59.79 120.67 60.01 120.89 60.3C121.11 60.58 121.27 60.91 121.36 61.31C121.45 61.71 121.49 62.14 121.49 62.62L121.49 66.54L120.24 66.54L120.24 62.88C120.24 62.45 120.21 62.09 120.15 61.78C120.09 61.48 120 61.23 119.86 61.04C119.73 60.85 119.55 60.72 119.32 60.63C119.1 60.54 118.82 60.5 118.49 60.5C118.36 60.5 118.22 60.51 118.07 60.52C117.93 60.52 117.79 60.54 117.66 60.55C117.53 60.56 117.42 60.58 117.32 60.6C117.21 60.62 117.14 60.63 117.09 60.64L117.09 66.54L115.84 66.54L115.84 59.75Z" />
					<path id="Path 8479" class="shp1" d="M122.43 67.85C122.53 67.89 122.66 67.93 122.81 67.97C122.97 68.02 123.13 68.03 123.28 68.03C123.77 68.03 124.16 67.93 124.44 67.71C124.71 67.49 124.97 67.13 125.19 66.64C124.62 65.56 124.1 64.42 123.61 63.21C123.12 62.01 122.71 60.79 122.39 59.55L123.74 59.55C123.83 59.95 123.95 60.38 124.09 60.85C124.23 61.32 124.39 61.8 124.56 62.29C124.73 62.79 124.91 63.28 125.11 63.77C125.31 64.26 125.51 64.74 125.73 65.2C126.07 64.26 126.36 63.32 126.61 62.4C126.86 61.48 127.1 60.52 127.33 59.55L128.62 59.55C128.3 60.87 127.94 62.13 127.54 63.35C127.15 64.56 126.72 65.7 126.27 66.76C126.09 67.16 125.9 67.51 125.71 67.8C125.51 68.09 125.3 68.33 125.07 68.52C124.83 68.71 124.57 68.85 124.28 68.94C123.99 69.03 123.66 69.07 123.29 69.07C123.19 69.07 123.09 69.06 122.98 69.05C122.88 69.04 122.77 69.02 122.66 69C122.56 68.97 122.47 68.95 122.38 68.92C122.3 68.9 122.24 68.88 122.2 68.86L122.43 67.85Z" />
					<path id="Path 8480" fill-rule="evenodd" class="shp1" d="M137.55 62.64C137.7 62.82 137.88 63.06 138.1 63.35C138.32 63.64 138.54 63.96 138.78 64.32C139.01 64.67 139.24 65.04 139.47 65.43C139.7 65.81 139.89 66.19 140.06 66.54L138.63 66.54C138.45 66.2 138.25 65.86 138.05 65.51C137.83 65.16 137.62 64.83 137.41 64.51C137.19 64.19 136.98 63.89 136.76 63.61C136.56 63.34 136.36 63.09 136.19 62.89C136.08 62.89 135.96 62.9 135.84 62.9L134.3 62.9L134.3 66.54L132.99 66.54L132.99 57.36C133.36 57.27 133.77 57.21 134.22 57.17C134.68 57.14 135.09 57.13 135.47 57.13C136.78 57.13 137.78 57.37 138.46 57.87C139.15 58.36 139.49 59.1 139.49 60.07C139.49 60.69 139.33 61.22 139 61.66C138.67 62.1 138.19 62.43 137.55 62.64ZM135.58 58.27C135.02 58.27 134.59 58.28 134.3 58.31L134.3 61.82L135.23 61.82C135.67 61.82 136.08 61.8 136.44 61.76C136.8 61.71 137.1 61.62 137.34 61.5C137.59 61.38 137.78 61.2 137.92 60.97C138.05 60.74 138.12 60.44 138.12 60.06C138.12 59.71 138.05 59.42 137.92 59.19C137.78 58.95 137.6 58.77 137.37 58.63C137.14 58.5 136.87 58.41 136.56 58.35C136.25 58.3 135.93 58.27 135.58 58.27Z" />
					<path id="Path 8481" fill-rule="evenodd" class="shp1" d="M147.48 62.88C147.48 63.44 147.4 63.94 147.24 64.39C147.08 64.84 146.85 65.22 146.56 65.55C146.27 65.87 145.92 66.12 145.52 66.29C145.11 66.47 144.67 66.56 144.2 66.56C143.72 66.56 143.28 66.47 142.88 66.29C142.48 66.12 142.13 65.87 141.84 65.55C141.54 65.22 141.32 64.84 141.16 64.39C141 63.94 140.91 63.44 140.91 62.88C140.91 62.34 141 61.84 141.16 61.38C141.32 60.93 141.54 60.54 141.84 60.22C142.13 59.9 142.48 59.65 142.88 59.47C143.28 59.3 143.72 59.21 144.2 59.21C144.67 59.21 145.11 59.3 145.52 59.47C145.92 59.65 146.27 59.9 146.56 60.22C146.85 60.54 147.08 60.93 147.24 61.38C147.4 61.84 147.48 62.34 147.48 62.88ZM146.17 62.88C146.17 62.1 146 61.47 145.64 61.01C145.29 60.54 144.81 60.31 144.2 60.31C143.59 60.31 143.11 60.54 142.75 61.01C142.4 61.47 142.22 62.1 142.22 62.88C142.22 63.67 142.4 64.3 142.75 64.76C143.11 65.22 143.59 65.45 144.2 65.45C144.81 65.45 145.29 65.22 145.64 64.76C146 64.3 146.17 63.67 146.17 62.88Z" />
					<path id="Path 8482" class="shp1" d="M153.55 60.49C153.36 60.7 153.11 60.99 152.8 61.36C152.49 61.74 152.16 62.16 151.81 62.62C151.45 63.07 151.1 63.55 150.74 64.05C150.39 64.56 150.08 65.04 149.81 65.49L153.66 65.49L153.66 66.54L148.31 66.54L148.31 65.71C148.53 65.32 148.8 64.88 149.11 64.4C149.42 63.93 149.75 63.46 150.1 62.99C150.44 62.51 150.78 62.07 151.11 61.65C151.43 61.24 151.72 60.88 151.96 60.6L148.5 60.6L148.5 59.55L153.55 59.55L153.55 60.49Z" />
					<path id="Path 8483" class="shp1" d="M160.89 66.54C160.64 65.9 160.37 65.16 160.09 64.33C159.81 63.5 159.55 62.64 159.32 61.74C159.08 62.64 158.83 63.5 158.55 64.33C158.27 65.16 158.01 65.9 157.76 66.54L156.67 66.54C156.25 65.62 155.85 64.57 155.46 63.38C155.06 62.2 154.69 60.92 154.34 59.55L155.69 59.55C155.78 59.97 155.88 60.43 156.01 60.92C156.13 61.41 156.27 61.91 156.41 62.4C156.54 62.89 156.69 63.37 156.84 63.83C156.99 64.28 157.14 64.68 157.27 65.02C157.43 64.6 157.57 64.15 157.72 63.68C157.87 63.21 158.01 62.74 158.15 62.26C158.28 61.78 158.41 61.31 158.53 60.85C158.65 60.38 158.76 59.95 158.85 59.55L159.88 59.55C159.96 59.95 160.06 60.38 160.18 60.85C160.29 61.31 160.42 61.78 160.55 62.26C160.69 62.74 160.83 63.21 160.98 63.68C161.13 64.15 161.28 64.6 161.43 65.02C161.56 64.68 161.71 64.28 161.85 63.83C162 63.37 162.15 62.89 162.29 62.4C162.43 61.91 162.57 61.41 162.7 60.92C162.82 60.43 162.93 59.97 163.02 59.55L164.31 59.55C163.96 60.92 163.59 62.2 163.19 63.38C162.8 64.57 162.39 65.62 161.98 66.54L160.89 66.54Z" />
					<path id="Path 8484" fill-rule="evenodd" class="shp1" d="M169.92 56.9L168.02 58.74L167.39 58.17L169.11 56.1L169.92 56.9ZM171.57 62.88C171.57 63.44 171.49 63.94 171.33 64.39C171.17 64.84 170.94 65.22 170.65 65.55C170.36 65.87 170.01 66.12 169.61 66.29C169.21 66.47 168.77 66.56 168.29 66.56C167.82 66.56 167.38 66.47 166.97 66.29C166.57 66.12 166.22 65.87 165.93 65.55C165.64 65.22 165.41 64.84 165.25 64.39C165.09 63.94 165.01 63.44 165.01 62.88C165.01 62.34 165.09 61.84 165.25 61.38C165.41 60.93 165.64 60.54 165.93 60.22C166.22 59.9 166.57 59.65 166.97 59.47C167.38 59.3 167.82 59.21 168.29 59.21C168.77 59.21 169.21 59.3 169.61 59.47C170.01 59.65 170.36 59.9 170.65 60.22C170.94 60.54 171.17 60.93 171.33 61.38C171.49 61.84 171.57 62.34 171.57 62.88ZM170.27 62.88C170.27 62.1 170.09 61.47 169.74 61.01C169.38 60.54 168.9 60.31 168.29 60.31C167.68 60.31 167.2 60.54 166.84 61.01C166.49 61.47 166.31 62.1 166.31 62.88C166.31 63.67 166.49 64.3 166.84 64.76C167.2 65.22 167.68 65.45 168.29 65.45C168.9 65.45 169.38 65.22 169.74 64.76C170.09 64.3 170.27 63.67 170.27 62.88Z" />
					<path id="Path 8485" class="shp1" d="M173.89 58.28C173.66 58.28 173.47 58.21 173.31 58.06C173.16 57.91 173.08 57.71 173.08 57.46C173.08 57.21 173.16 57.01 173.31 56.86C173.47 56.72 173.66 56.64 173.89 56.64C174.11 56.64 174.3 56.72 174.46 56.86C174.61 57.01 174.69 57.21 174.69 57.46C174.69 57.71 174.61 57.91 174.46 58.06C174.3 58.21 174.11 58.28 173.89 58.28ZM172.12 69.06C172.02 69.06 171.88 69.05 171.71 69.02C171.54 68.99 171.39 68.96 171.28 68.91L171.44 67.89C171.53 67.92 171.63 67.94 171.75 67.96C171.86 67.97 171.97 67.98 172.07 67.98C172.5 67.98 172.81 67.85 172.99 67.59C173.18 67.32 173.27 66.93 173.27 66.42L173.27 59.55L174.52 59.55L174.52 66.41C174.52 67.31 174.31 67.97 173.91 68.41C173.5 68.84 172.9 69.06 172.12 69.06Z" />
					<g id="Group 5997">
						<g id="Group 5996">
							<path id="Path 8486" class="shp2" d="M0.46 55.31L0.46 40.64C2.36 41.16 4.47 41.4 5.86 40.56C8.9 38.75 13.51 33.19 13.51 33.19C13.51 33.19 11.08 39.18 11.99 41.38C12.96 43.72 18.72 43.84 18.72 43.84C18.72 43.84 12.21 47.8 9.18 50.42C6.07 53.1 3.91 62.93 3.91 62.93C3.91 62.93 2.4 56.63 0.46 55.31Z" />
							<path id="Path 8487" class="shp3" d="M38.12 29.43C36.82 30.25 35.54 30.9 34.58 31.08C31.55 31.67 28.32 28.19 28.32 28.19C28.32 28.19 29.08 33.28 27.17 36.41C25.17 39.71 18.72 43.84 18.72 43.84C18.72 43.84 25.85 42.46 27.23 44.67C28.7 47.04 28.9 55.3 28.9 55.3C28.9 55.3 32.53 45.39 35.82 44.04C36.47 43.76 37.27 43.51 38.12 43.27L38.12 29.43Z" />
							<path id="Path 8488" class="shp4" d="M13.51 33.19C13.51 33.19 17.15 27.49 16.93 25.45C16.71 23.53 12.94 22.83 12.94 22.83C12.94 22.83 17.88 21.62 20.04 19.68C22.12 17.81 23.93 13.92 23.93 13.92C23.93 13.92 24.4 17.14 26.24 17.6C28.15 18.08 33.25 16.02 33.25 16.02C33.25 16.02 29.23 19.83 27.65 21.91C26 24.07 28.31 28.19 28.31 28.19C28.31 28.19 24.04 26.71 21.65 27.15C19.3 27.6 13.51 33.19 13.51 33.19Z" />
						</g>
					</g>
					<g id="Group 5999">
						<g id="Group 5998">
							<path id="Path 8489" class="shp1" d="M77.04 47.15C76.57 47.27 75.95 47.4 75.19 47.52C74.43 47.66 73.59 47.72 72.68 47.72C71.83 47.72 71.11 47.6 70.53 47.35C69.95 47.11 69.49 46.77 69.15 46.33C68.8 45.9 68.55 45.38 68.4 44.77C68.25 44.17 68.18 43.51 68.18 42.79L68.18 36.81L70.64 36.81L70.64 42.4C70.64 43.54 70.81 44.36 71.14 44.85C71.48 45.34 72.06 45.58 72.89 45.58C73.18 45.58 73.5 45.57 73.84 45.54C74.17 45.51 74.41 45.48 74.58 45.44L74.58 36.81L77.04 36.81L77.04 47.15Z" />
							<path id="Path 8490" class="shp1" d="M86.14 39.26C85.93 39.19 85.65 39.12 85.29 39.05C84.93 38.97 84.51 38.94 84.04 38.94C83.77 38.94 83.48 38.96 83.17 39.02C82.86 39.07 82.65 39.12 82.53 39.16L82.53 47.7L80.06 47.7L80.06 37.55C80.54 37.37 81.13 37.2 81.84 37.05C82.56 36.89 83.35 36.81 84.22 36.81C84.38 36.81 84.57 36.82 84.79 36.85C85.01 36.86 85.22 36.89 85.44 36.93C85.66 36.96 85.87 37 86.08 37.05C86.28 37.1 86.44 37.14 86.56 37.18L86.14 39.26Z" />
							<path id="Path 8491" fill-rule="evenodd" class="shp1" d="M97.79 42.09C97.79 42.93 97.67 43.7 97.43 44.4C97.18 45.09 96.84 45.68 96.39 46.17C95.94 46.66 95.4 47.04 94.77 47.31C94.14 47.58 93.44 47.72 92.68 47.72C91.92 47.72 91.22 47.58 90.6 47.31C89.98 47.04 89.44 46.66 88.99 46.17C88.54 45.68 88.19 45.09 87.94 44.4C87.69 43.7 87.56 42.93 87.56 42.09C87.56 41.25 87.69 40.49 87.94 39.8C88.19 39.11 88.54 38.53 89 38.04C89.45 37.55 90 37.17 90.62 36.9C91.24 36.64 91.93 36.51 92.68 36.51C93.43 36.51 94.12 36.64 94.75 36.9C95.38 37.17 95.92 37.55 96.37 38.04C96.82 38.53 97.17 39.11 97.42 39.8C97.67 40.49 97.79 41.25 97.79 42.09ZM95.27 42.09C95.27 41.03 95.04 40.19 94.59 39.58C94.13 38.96 93.49 38.65 92.68 38.65C91.86 38.65 91.23 38.96 90.77 39.58C90.32 40.19 90.09 41.03 90.09 42.09C90.09 43.17 90.32 44.02 90.77 44.64C91.23 45.27 91.86 45.58 92.68 45.58C93.49 45.58 94.13 45.27 94.59 44.64C95.04 44.02 95.27 43.17 95.27 42.09Z" />
							<path id="Path 8492" fill-rule="evenodd" class="shp1" d="M109.82 42.38C109.82 43.19 109.72 43.94 109.5 44.62C109.3 45.3 108.99 45.88 108.6 46.37C108.2 46.86 107.71 47.24 107.12 47.52C106.53 47.79 105.86 47.92 105.11 47.92C104.61 47.92 104.15 47.86 103.73 47.74C103.3 47.62 102.96 47.48 102.69 47.33L102.69 51.47L100.22 51.47L100.22 37.38C100.72 37.25 101.34 37.12 102.08 37C102.81 36.88 103.58 36.81 104.4 36.81C105.24 36.81 106 36.94 106.66 37.2C107.33 37.46 107.89 37.83 108.36 38.31C108.83 38.79 109.19 39.38 109.44 40.06C109.69 40.75 109.82 41.52 109.82 42.38ZM107.29 42.42C107.29 41.32 107.04 40.46 106.55 39.85C106.05 39.24 105.26 38.93 104.16 38.93C103.92 38.93 103.68 38.94 103.43 38.96C103.18 38.98 102.93 39.03 102.69 39.1L102.69 45.19C102.9 45.34 103.19 45.48 103.55 45.61C103.91 45.74 104.3 45.8 104.71 45.8C105.6 45.8 106.26 45.5 106.67 44.89C107.09 44.27 107.29 43.45 107.29 42.42Z" />
							<path id="Path 8493" fill-rule="evenodd" class="shp1" d="M111.66 42.18C111.66 41.24 111.79 40.41 112.07 39.71C112.35 39 112.72 38.41 113.19 37.95C113.65 37.48 114.18 37.12 114.77 36.89C115.37 36.65 115.98 36.53 116.61 36.53C118.08 36.53 119.22 36.98 120.05 37.9C120.87 38.8 121.28 40.16 121.28 41.97C121.28 42.11 121.27 42.26 121.27 42.43C121.26 42.6 121.25 42.75 121.24 42.89L114.2 42.89C114.27 43.75 114.58 44.41 115.11 44.87C115.65 45.34 116.43 45.58 117.45 45.58C118.04 45.58 118.59 45.53 119.09 45.42C119.58 45.31 119.97 45.19 120.26 45.07L120.58 47.09C120.45 47.16 120.26 47.23 120.02 47.3C119.79 47.38 119.51 47.44 119.21 47.5C118.9 47.57 118.57 47.62 118.22 47.66C117.87 47.7 117.51 47.72 117.14 47.72C116.2 47.72 115.39 47.58 114.69 47.3C114 47.02 113.43 46.64 112.98 46.14C112.53 45.64 112.2 45.06 111.98 44.39C111.77 43.71 111.66 42.98 111.66 42.18ZM118.81 41.07C118.81 40.73 118.76 40.41 118.67 40.11C118.57 39.8 118.43 39.53 118.25 39.31C118.07 39.09 117.84 38.91 117.58 38.78C117.31 38.65 117 38.59 116.63 38.59C116.25 38.59 115.92 38.66 115.63 38.8C115.35 38.94 115.1 39.13 114.91 39.36C114.71 39.59 114.56 39.86 114.45 40.16C114.34 40.46 114.26 40.76 114.22 41.07L118.81 41.07Z" />
							<path id="Path 8494" class="shp1" d="M126.5 33.92C126.5 34.38 126.34 34.75 126.05 35.02C125.75 35.29 125.4 35.43 124.99 35.43C124.56 35.43 124.21 35.29 123.91 35.02C123.61 34.75 123.46 34.38 123.46 33.92C123.46 33.45 123.61 33.07 123.91 32.8C124.21 32.53 124.56 32.39 124.99 32.39C125.4 32.39 125.75 32.53 126.05 32.8C126.34 33.07 126.5 33.45 126.5 33.92ZM122.4 51.49C122.22 51.49 121.97 51.47 121.65 51.44C121.34 51.41 121.05 51.34 120.81 51.25L121.14 49.23C121.43 49.32 121.79 49.37 122.21 49.37C122.79 49.37 123.19 49.2 123.42 48.87C123.65 48.54 123.76 48.04 123.76 47.37L123.76 37.04L126.23 37.04L126.23 47.41C126.23 48.8 125.9 49.83 125.24 50.49C124.58 51.16 123.63 51.49 122.4 51.49Z" />
							<path id="Path 8495" class="shp1" d="M131.92 45.68C132.57 45.68 133.05 45.6 133.35 45.45C133.64 45.29 133.79 45.02 133.79 44.64C133.79 44.29 133.63 43.99 133.31 43.77C132.99 43.53 132.47 43.28 131.73 43.01C131.29 42.85 130.87 42.67 130.5 42.49C130.13 42.31 129.8 42.09 129.53 41.85C129.26 41.6 129.05 41.31 128.89 40.96C128.73 40.62 128.66 40.19 128.66 39.69C128.66 38.71 129.02 37.94 129.74 37.37C130.46 36.81 131.44 36.53 132.67 36.53C133.3 36.53 133.9 36.59 134.47 36.7C135.04 36.82 135.46 36.93 135.75 37.04L135.3 39.04C135.03 38.91 134.68 38.8 134.26 38.7C133.84 38.6 133.35 38.55 132.79 38.55C132.29 38.55 131.89 38.63 131.57 38.8C131.26 38.97 131.1 39.23 131.1 39.59C131.1 39.76 131.13 39.92 131.19 40.06C131.26 40.19 131.36 40.32 131.51 40.43C131.66 40.55 131.86 40.66 132.1 40.78C132.35 40.9 132.64 41.01 133 41.14C133.58 41.35 134.08 41.57 134.49 41.78C134.89 41.99 135.23 42.22 135.5 42.49C135.76 42.76 135.95 43.06 136.08 43.4C136.2 43.74 136.26 44.15 136.26 44.62C136.26 45.64 135.88 46.41 135.13 46.93C134.38 47.46 133.3 47.72 131.9 47.72C130.96 47.72 130.21 47.64 129.64 47.48C129.06 47.33 128.66 47.2 128.43 47.11L128.86 45.05C129.23 45.2 129.66 45.34 130.17 45.48C130.68 45.61 131.27 45.68 131.92 45.68Z" />
							<path id="Path 8496" class="shp1" d="M140.91 41.2C141.22 40.87 141.55 40.52 141.91 40.15C142.26 39.77 142.61 39.4 142.95 39.03C143.29 38.65 143.61 38.29 143.91 37.95C144.22 37.6 144.48 37.3 144.7 37.04L147.61 37.04C146.93 37.8 146.22 38.59 145.46 39.4C144.71 40.22 143.95 41.01 143.19 41.79C143.6 42.13 144.03 42.54 144.47 43.02C144.92 43.51 145.36 44.02 145.78 44.56C146.2 45.1 146.6 45.65 146.96 46.19C147.33 46.73 147.64 47.24 147.88 47.7L145.02 47.7C144.78 47.28 144.5 46.84 144.18 46.38C143.86 45.91 143.52 45.46 143.15 45.03C142.78 44.59 142.41 44.18 142.03 43.8C141.65 43.41 141.27 43.08 140.91 42.81L140.91 47.7L138.44 47.7L138.44 33.98L140.91 33.57L140.91 41.2Z" />
							<path id="Path 8497" class="shp1" d="M152.04 47.7L149.57 47.7L149.57 37.04L152.04 37.04L152.04 47.7ZM152.3 33.92C152.3 34.38 152.15 34.75 151.85 35.02C151.56 35.29 151.2 35.43 150.8 35.43C150.37 35.43 150.01 35.29 149.72 35.02C149.41 34.75 149.27 34.38 149.27 33.92C149.27 33.45 149.41 33.07 149.72 32.8C150.01 32.53 150.37 32.39 150.8 32.39C151.2 32.39 151.56 32.53 151.85 32.8C152.15 33.07 152.3 33.45 152.3 33.92Z" />
							<path id="Path 8498" fill-rule="evenodd" class="shp1" d="M154.46 42.18C154.46 41.24 154.6 40.41 154.88 39.71C155.16 39 155.53 38.41 155.99 37.95C156.45 37.48 156.98 37.12 157.58 36.89C158.18 36.65 158.79 36.53 159.42 36.53C160.88 36.53 162.03 36.98 162.85 37.9C163.67 38.8 164.08 40.16 164.08 41.97C164.08 42.11 164.08 42.26 164.08 42.43C164.07 42.6 164.06 42.75 164.04 42.89L157.01 42.89C157.08 43.75 157.38 44.41 157.92 44.87C158.45 45.34 159.23 45.58 160.25 45.58C160.85 45.58 161.4 45.53 161.89 45.42C162.39 45.31 162.78 45.19 163.06 45.07L163.39 47.09C163.26 47.16 163.07 47.23 162.83 47.3C162.59 47.38 162.32 47.44 162.02 47.5C161.71 47.57 161.38 47.62 161.03 47.66C160.67 47.7 160.31 47.72 159.95 47.72C159.01 47.72 158.19 47.58 157.5 47.3C156.81 47.02 156.24 46.64 155.79 46.14C155.34 45.64 155.01 45.06 154.79 44.39C154.57 43.71 154.46 42.98 154.46 42.18ZM161.62 41.07C161.62 40.73 161.57 40.41 161.48 40.11C161.38 39.8 161.24 39.53 161.06 39.31C160.87 39.09 160.65 38.91 160.39 38.78C160.12 38.65 159.8 38.59 159.44 38.59C159.06 38.59 158.72 38.66 158.44 38.8C158.15 38.94 157.91 39.13 157.72 39.36C157.52 39.59 157.37 39.86 157.26 40.16C157.15 40.46 157.07 40.76 157.03 41.07L161.62 41.07Z" />
						</g>
					</g>
				</g>
			</g>
		</g>
	</g>
</svg>