<svg xmlns="http://www.w3.org/2000/svg" viewBox="0 0 140 160" width="140" height="160">
	<defs>
		<clipPath clipPathUnits="userSpaceOnUse" id="cp1">
			<path d="M-891 -4607L1029 -4607L1029 3026L-891 3026Z" />
		</clipPath>
	</defs>
	<style>
		tspan { white-space:pre }
		.shp0 { fill: none;stroke: #033d2e;stroke-linecap:round;stroke-width: 4 } 
	</style>
	<g id="01a_strona_glowna" clip-path="url(#cp1)">
		<g id="Group 5918">
			<g id="Group 5522">
				<path id="Path 242" class="shp0" d="M64.1 47.4C66.02 37.04 74.55 28.73 85.56 27.59C98.96 26.18 110.97 35.91 112.37 49.31C113.11 56.47 110.69 63.21 106.24 68.17" />
				<path id="Path 243" class="shp0" d="M84.41 13.59L83.45 4.37L84.41 13.59L84.41 13.59Z" />
				<path id="Path 244" class="shp0" d="M65.77 20.56L60.33 13.06L65.77 20.56L65.77 20.56Z" />
				<path id="Path 245" class="shp0" d="M53.11 35.91L44.65 32.14L53.11 35.91L53.11 35.91Z" />
				<path id="Path 246" class="shp0" d="M123.08 67.79L131.54 71.57L123.08 67.79L123.08 67.79Z" />
				<path id="Path 247" class="shp0" d="M126.36 48.17L135.58 47.2L126.36 48.17L126.36 48.17Z" />
				<path id="Path 248" class="shp0" d="M119.39 29.53L126.89 24.09L119.39 29.53L119.39 29.53Z" />
				<path id="Path 249" class="shp0" d="M104.04 16.87L107.81 8.41L104.04 16.87L104.04 16.87Z" />
				<path id="Path 250" class="shp0" d="M68.12 110.98C94.24 110.98 83.77 110.98 89.62 110.98C103.09 110.98 114 101 114 88.68C114 76.35 103.09 66.36 89.62 66.36C87.93 66.36 86.27 66.52 84.68 66.82C80.15 56.2 68.86 48.67 55.64 48.67C38.42 48.67 24.47 61.43 24.47 77.18L24.47 77.59C24.08 77.57 23.68 77.55 23.27 77.55C13.18 77.55 5 85.03 5 94.27C5 100.84 9.15 106.53 15.18 109.26" />
				<path id="Path 251" class="shp0" d="M19.74 155.05L34.82 119.5L19.99 119.72L36.84 81.38L58.56 81.32L39.72 109.18L58.25 109.27L19.74 155.05L19.74 155.05Z" />
				<path id="Line 20" class="shp0" d="M62.96 122.01L49.5 145.49L62.96 122.01Z" />
				<path id="Line 21" class="shp0" d="M81.96 122.01L68.5 145.49L81.96 122.01Z" />
				<path id="Line 22" class="shp0" d="M100.95 122.01L87.49 145.49L100.95 122.01Z" />
			</g>
		</g>
	</g>
</svg>