<svg xmlns="http://www.w3.org/2000/svg" viewBox="0 0 64 70" width="64" height="70">
	<defs>
		<clipPath clipPathUnits="userSpaceOnUse" id="cp1">
			<path d="M-834 -925L1086 -925L1086 155L-834 155Z" />
		</clipPath>
	</defs>
	<style>
		tspan { white-space:pre }
		.shp0 { fill: #033d2e } 
	</style>
	<g id="01b_strona_glowna" clip-path="url(#cp1)">
		<g id="Group 6004">
			<path id="Path 8499" class="shp0" d="M1.25 20.84C1.94 20.84 2.5 20.28 2.5 19.59L2.5 15.14L6.12 13.71C6.76 13.46 7.07 12.73 6.82 12.09C6.56 11.45 5.84 11.14 5.2 11.39L0.79 13.13C0.31 13.32 0 13.78 0 14.29L0 19.59C0 20.28 0.56 20.84 1.25 20.84Z" />
			<path id="Path 8500" class="shp0" d="M13.32 10.76C13.48 10.76 13.63 10.73 13.78 10.67L19.68 8.34C20.32 8.09 20.63 7.36 20.38 6.72C20.12 6.08 19.4 5.77 18.76 6.02L12.86 8.35C12.22 8.61 11.91 9.33 12.16 9.97C12.36 10.46 12.83 10.76 13.32 10.76Z" />
			<path id="Path 8501" fill-rule="evenodd" class="shp0" d="M63.36 14.29L63.36 55.87C63.36 56.38 63.05 56.84 62.57 57.03L32.14 69.08C31.99 69.14 31.84 69.16 31.68 69.16C31.52 69.16 31.37 69.14 31.22 69.08L0.79 57.03C0.31 56.84 0 56.38 0 55.87L0 41.93C0 41.25 0.56 40.69 1.25 40.69C1.94 40.69 2.5 41.25 2.5 41.93L2.5 46.67L30.43 35.61L30.43 4.08L26.83 5.51C26.68 5.57 26.53 5.6 26.37 5.6C25.88 5.6 25.41 5.3 25.21 4.81C24.96 4.17 25.27 3.44 25.91 3.19L31.22 1.09C31.22 1.09 31.22 1.09 31.23 1.09C31.52 0.97 31.84 0.97 32.14 1.09L62.57 13.13C63.05 13.32 63.36 13.78 63.36 14.29ZM32.93 35.61L39.24 38.11L39.24 20.84C39.24 20.42 39.44 20.04 39.78 19.8C40.13 19.57 40.56 19.52 40.95 19.68L53.76 24.75C54.24 24.94 54.55 25.4 54.55 25.91L54.55 44.17L60.86 46.67L60.86 15.14L32.93 4.08L32.93 35.61ZM52.06 43.18L52.06 26.76L41.74 22.67L41.74 39.09L52.06 43.18ZM4.64 48.5L31.68 59.21L58.72 48.5L31.68 37.8L4.64 48.5ZM60.86 55.02L60.86 50.34L32.14 61.71C31.99 61.77 31.84 61.8 31.68 61.8C31.52 61.8 31.37 61.77 31.22 61.71L2.5 50.34L2.5 55.02L31.68 66.57L60.86 55.02Z" />
			<path id="Path 8502" class="shp0" d="M1.25 34.86C1.94 34.86 2.5 34.3 2.5 33.61L2.5 26.98C2.5 26.29 1.94 25.73 1.25 25.73C0.56 25.73 0 26.29 0 26.98L0 33.61C0 34.3 0.56 34.86 1.25 34.86Z" />
		</g>
	</g>
</svg>