<svg xmlns="http://www.w3.org/2000/svg" viewBox="0 0 67 66" width="67" height="66">
	<defs>
		<clipPath clipPathUnits="userSpaceOnUse" id="cp1">
			<path d="M-1020 -925L900 -925L900 155L-1020 155Z" />
		</clipPath>
	</defs>
	<style>
		tspan { white-space:pre }
		.shp0 { fill: #033d2e;stroke: #ffffff;stroke-width: 0.25 } 
	</style>
	<g id="01b_strona_glowna" clip-path="url(#cp1)">
		<g id="Group 6013">
			<path id="Path 8520" fill-rule="evenodd" class="shp0" d="M9.93 33.74C9.48 33.19 9.56 32.38 10.11 31.93L24.81 19.81C25.28 19.42 25.97 19.42 26.44 19.81L41.14 31.93C41.69 32.38 41.77 33.19 41.32 33.74C41.06 34.05 40.7 34.21 40.32 34.21C40.04 34.21 39.75 34.11 39.51 33.91L38.48 33.07L38.48 44.71C38.48 45.42 37.9 46 37.19 46L14.06 46C13.35 46 12.77 45.42 12.77 44.71L12.77 33.07L11.74 33.91C11.19 34.37 10.38 34.29 9.93 33.74ZM15.34 30.94L15.34 43.42L20.28 43.42L20.28 34.55C20.28 33.84 20.86 33.26 21.57 33.26L29.68 33.26C30.39 33.26 30.97 33.84 30.97 34.55L30.97 43.42L35.91 43.42L35.91 30.94L25.62 22.47L15.34 30.94ZM28.39 43.42L28.39 35.84L22.86 35.84L22.86 43.42L28.39 43.42Z" />
			<path id="Path 8521" class="shp0" d="M40.33 50.55C39.61 50.55 39.04 51.13 39.04 51.84L39.04 52.79L12.21 52.79L12.21 51.84C12.21 51.13 11.63 50.55 10.92 50.55C10.21 50.55 9.64 51.13 9.64 51.84L9.64 56.32C9.64 57.03 10.21 57.61 10.92 57.61C11.63 57.61 12.21 57.03 12.21 56.32L12.21 55.37L39.04 55.37L39.04 56.32C39.04 57.03 39.61 57.61 40.33 57.61C41.04 57.61 41.61 57.03 41.61 56.32L41.61 51.84C41.61 51.13 41.04 50.55 40.33 50.55Z" />
			<path id="Path 8522" fill-rule="evenodd" class="shp0" d="M65.71 10.68L65.71 55.36C65.71 60.61 61.44 64.88 56.19 64.88L3.29 64.88C2.58 64.88 2 64.3 2 63.59L2 12.66C2 11.95 2.58 11.37 3.29 11.37L46.68 11.37L46.68 10.68C46.68 5.43 50.95 1.16 56.19 1.16C61.44 1.16 65.71 5.43 65.71 10.68ZM49.69 62.3C47.84 60.56 46.68 58.1 46.68 55.36L46.68 13.95L4.57 13.95L4.57 62.3L49.69 62.3ZM63.14 55.36C63.14 51.53 60.02 48.41 56.19 48.41C52.37 48.41 49.25 51.53 49.25 55.36C49.25 59.19 52.37 62.3 56.19 62.3C60.02 62.3 63.14 59.19 63.14 55.36ZM63.14 48.86L63.14 10.68C63.14 6.85 60.02 3.74 56.19 3.74C52.37 3.74 49.25 6.85 49.25 10.68L49.25 48.86C50.99 47 53.46 45.84 56.19 45.84C58.93 45.84 61.4 47 63.14 48.86Z" />
			<path id="Path 8523" class="shp0" d="M56.19 53.43C55.13 53.43 54.26 54.29 54.26 55.36C54.26 56.42 55.13 57.29 56.19 57.29C57.26 57.29 58.12 56.42 58.12 55.36C58.12 54.29 57.26 53.43 56.19 53.43Z" />
		</g>
	</g>
</svg>