<svg xmlns="http://www.w3.org/2000/svg" viewBox="0 0 159 123" width="159" height="123">
	<defs>
		<clipPath clipPathUnits="userSpaceOnUse" id="cp1">
			<path d="M-1434 -4626L486 -4626L486 3007L-1434 3007Z" />
		</clipPath>
	</defs>
	<style>
		tspan { white-space:pre }
		.shp0 { fill: none;stroke: #033d2e;stroke-width: 4 } 
	</style>
	<g id="01a_strona_glowna" clip-path="url(#cp1)">
		<g id="Group 5919">
			<g id="Group 5524">
				<path id="Path 252" class="shp0" d="M107.91 61.5L152.5 19.33C155.87 15.96 155.81 10.45 152.45 7.08C149.08 3.72 143.57 3.67 140.21 7.03L95.62 49.2L38.94 64C37.15 74.26 43.41 89.06 55.74 101.38C68.06 113.71 82.85 119.96 93.11 118.18L107.91 61.5Z" />
				<path id="Path 253" class="shp0" d="M108.63 60.78C107.31 62.1 103.5 60.41 100.1 57.02C96.7 53.62 95.02 49.8 96.33 48.49" />
				<path id="Path 254" class="shp0" d="M117.05 52.36C115.73 53.68 111.91 51.99 108.52 48.6C105.12 45.2 103.44 41.38 104.76 40.07" />
				<path id="Line 23" class="shp0" d="M61.01 75.08L43.71 85.35L61.01 75.08Z" />
				<path id="Line 24" class="shp0" d="M66.09 92.39L56.63 102.26L66.09 92.39Z" />
				<path id="Line 25" class="shp0" d="M84.52 97.93L75.69 115.28L84.52 97.93Z" />
				<path id="Path 255" class="shp0" d="M36.86 93.49C34.83 95.48 32.04 96.71 28.97 96.71C22.73 96.71 17.68 91.66 17.68 85.43C17.68 79.19 22.73 74.14 28.97 74.14" />
				<path id="Path 256" class="shp0" d="M27.35 65.96C23.5 63.73 20.91 59.57 20.91 54.79C20.91 47.67 26.68 41.9 33.8 41.9C39.81 41.9 44.86 46 46.29 51.57C46.56 52.6 46.7 53.68 46.7 54.79" />
				<path id="Ellipse 34" class="shp0" d="M17.68 29C12.33 29 8.01 24.68 8.01 19.33C8.01 13.98 12.33 9.65 17.68 9.65C23.03 9.65 27.35 13.98 27.35 19.33C27.35 24.68 23.03 29 17.68 29Z" />
				<path id="Line 26" class="shp0" d="M11.23 70.92L4.78 70.92L11.23 70.92Z" />
				<path id="Line 27" class="shp0" d="M46.7 112.83L40.25 112.83L46.7 112.83Z" />
				<path id="Path 257" class="shp0" d="M41.59 32.22C44.08 26.53 49.76 22.55 56.37 22.55C65.28 22.55 72.5 29.77 72.5 38.67C72.5 40.96 72.02 43.15 71.15 45.12" />
				<path id="Line 28" class="shp0" d="M43.48 12.88L37.03 12.88L43.48 12.88Z" />
			</g>
		</g>
	</g>
</svg>