<svg xmlns="http://www.w3.org/2000/svg" viewBox="0 0 145 85" width="145" height="85">
	<defs>
		<clipPath clipPathUnits="userSpaceOnUse" id="cp1">
			<path d="M-268 -7320L1652 -7320L1652 313L-268 313Z" />
		</clipPath>
	</defs>
	<style>
		tspan { white-space:pre }
		.shp0 { fill: #774639 } 
		.shp1 { fill: #421106 } 
	</style>
	<g id="01a_strona_glowna" clip-path="url(#cp1)">
		<g id="Group 6060">
			<path id="Path 34" fill-rule="evenodd" class="shp0" d="M2.63 32.97C2.82 32.81 3 32.65 3.19 32.49C3.39 32.34 3.58 32.18 3.77 32.02C3.97 31.86 4.16 31.71 4.36 31.55C4.56 31.39 4.76 31.24 4.96 31.08C5.17 30.92 5.37 30.77 5.57 30.61C5.77 30.46 5.98 30.3 6.18 30.15C6.39 29.99 6.59 29.84 6.8 29.68C7 29.53 7.21 29.37 7.41 29.21C7.62 29.06 7.82 28.9 8.03 28.75C8.23 28.59 8.43 28.44 8.63 28.28C8.83 28.12 9.04 27.97 9.23 27.81C9.43 27.65 9.63 27.5 9.82 27.34C10.02 27.18 10.21 27.03 10.4 26.87C10.59 26.71 10.78 26.55 10.97 26.39C11.15 26.23 11.33 26.07 11.51 25.91C11.64 25.8 11.76 25.69 11.88 25.57C11.99 25.46 12.11 25.35 12.22 25.24C12.33 25.13 12.44 25.02 12.55 24.91C12.66 24.8 12.76 24.69 12.87 24.58C12.97 24.47 13.07 24.36 13.17 24.25C13.27 24.15 13.37 24.04 13.46 23.93C14.01 24.48 14.59 25.04 15.18 25.56C16 26.26 16.48 26.2 17.12 26.76C17.21 26.83 17.33 26.96 17.48 27.12C16.38 28.03 15.5 28.69 14.13 29.93C13.49 30.5 12.41 31.01 11.78 31.58C10.51 32.72 9.69 33.92 8.42 35.06C6.13 37.12 6.3 37.22 6.3 40.54C6.3 41.27 6.51 42.56 6.51 43.28C6.51 44 6.81 44.46 6.81 45.18C6.81 46.43 6.21 48.35 6.21 49.46C6.21 50.18 6.51 51.23 6.51 51.95C6.51 52.68 6.3 53.88 6.3 54.6C6.3 57.49 6.51 59.91 6.51 62.8C6.51 62.85 6.51 62.91 6.51 62.98C5.62 63.53 4.74 64.06 3.86 64.44C2.92 64.85 1.99 65.2 1.07 65.52L1.07 64.84C1.07 64.06 0.91 63.54 1.07 62.51C1.11 62.25 1.25 61.63 1.25 61.37C1.25 60.76 1.07 60.51 1.07 59.91C1.07 59.7 1.34 57.97 1.34 57.77C1.34 56.15 1.07 56.06 1.07 54.44L1.07 48.88C1.07 48.78 1.31 45.9 1.31 45.8C1.31 43.46 1.07 43.91 1.07 41.57L1.07 35.57C1.07 35.51 1.07 35.46 1.08 35.41C1.08 35.36 1.09 35.3 1.09 35.25C1.1 35.2 1.1 35.15 1.11 35.1C1.12 35.05 1.13 35 1.14 34.95C1.16 34.9 1.17 34.85 1.18 34.8C1.2 34.75 1.21 34.7 1.23 34.65C1.25 34.61 1.27 34.56 1.29 34.51C1.3 34.47 1.33 34.42 1.35 34.38C1.37 34.33 1.39 34.29 1.42 34.24C1.44 34.2 1.47 34.16 1.49 34.11C1.52 34.07 1.55 34.03 1.58 33.99C1.61 33.95 1.64 33.91 1.67 33.87C1.7 33.83 1.73 33.8 1.76 33.76C1.8 33.72 1.83 33.69 1.86 33.65C1.9 33.61 1.94 33.58 1.97 33.55C2.01 33.51 2.05 33.48 2.09 33.45C2.26 33.29 2.45 33.13 2.63 32.97ZM14.55 22.71L14.63 22.61C14.72 22.51 14.82 22.4 14.92 22.29C15.02 22.18 15.12 22.07 15.22 21.96C15.32 21.85 15.42 21.74 15.53 21.62C15.63 21.51 15.74 21.4 15.85 21.29C15.96 21.18 16.07 21.07 16.18 20.96C16.3 20.84 16.41 20.73 16.53 20.62C16.58 20.58 16.62 20.53 16.67 20.49C16.72 20.45 16.76 20.42 16.81 20.38C16.86 20.34 16.91 20.3 16.96 20.27C17 20.23 17.05 20.19 17.1 20.16C17.15 20.12 17.2 20.09 17.25 20.05C17.3 20.02 17.36 19.99 17.41 19.95C17.46 19.92 17.51 19.89 17.56 19.85C17.61 19.82 17.66 19.79 17.71 19.76C17.77 19.72 17.82 19.69 17.87 19.66C17.92 19.63 17.97 19.59 18.02 19.56C18.07 19.53 18.12 19.49 18.17 19.46C18.23 19.42 18.28 19.39 18.33 19.36C18.38 19.32 18.43 19.29 18.47 19.25C18.52 19.21 18.57 19.18 18.62 19.14C18.67 19.1 18.71 19.06 18.76 19.02C18.81 18.98 18.85 18.94 18.9 18.9C18.95 18.85 19.01 18.8 19.07 18.75C19.13 18.69 19.18 18.64 19.25 18.59C19.31 18.54 19.37 18.49 19.43 18.43C19.49 18.38 19.56 18.33 19.62 18.28C19.69 18.22 19.75 18.17 19.82 18.12C19.88 18.07 19.95 18.01 20.02 17.96C20.09 17.91 20.16 17.85 20.23 17.8C20.3 17.75 20.37 17.69 20.44 17.64C20.51 17.59 20.58 17.53 20.65 17.48C20.72 17.43 20.79 17.37 20.87 17.32C20.94 17.26 21.01 17.21 21.08 17.16C21.16 17.1 21.23 17.05 21.3 17C21.37 16.94 21.45 16.89 21.52 16.83C21.59 16.78 21.67 16.73 21.74 16.67C21.81 16.62 21.88 16.57 21.96 16.51C22.03 16.46 22.1 16.4 22.17 16.35C22.21 16.32 22.25 16.29 22.29 16.26C22.32 16.23 22.36 16.2 22.4 16.17C22.43 16.14 22.47 16.11 22.5 16.08C22.54 16.05 22.57 16.02 22.61 15.99C22.64 15.96 22.67 15.92 22.71 15.89C22.74 15.86 22.77 15.83 22.8 15.8C22.84 15.77 22.87 15.74 22.9 15.71C22.93 15.67 22.96 15.64 22.99 15.61C23.02 15.58 23.05 15.55 23.08 15.52C23.11 15.49 23.14 15.46 23.17 15.43C23.2 15.4 23.23 15.37 23.26 15.33C23.29 15.3 23.32 15.27 23.35 15.24C23.38 15.21 23.4 15.18 23.43 15.15C23.46 15.12 23.49 15.09 23.52 15.06C23.55 15.03 23.58 15.01 23.61 14.98C23.64 14.95 23.67 14.92 23.7 14.89C23.73 14.86 23.76 14.84 23.78 14.81C23.81 14.79 23.84 14.76 23.87 14.74C23.9 14.71 23.93 14.69 23.96 14.66C23.99 14.64 24.02 14.61 24.05 14.59C24.09 14.56 24.12 14.54 24.15 14.52C24.18 14.49 24.21 14.47 24.24 14.44C24.28 14.42 24.31 14.4 24.34 14.37C24.37 14.35 24.41 14.32 24.44 14.3C24.47 14.28 24.5 14.25 24.54 14.23C24.57 14.2 24.6 14.18 24.63 14.16C24.66 14.13 24.7 14.11 24.73 14.08C24.76 14.06 24.79 14.04 24.82 14.01C24.85 13.99 24.88 13.96 24.91 13.94C24.94 13.91 24.97 13.89 25 13.86C25.03 13.84 25.06 13.81 25.08 13.79C25.11 13.76 25.14 13.74 25.16 13.71C25.25 13.62 25.35 13.53 25.44 13.44C25.52 13.36 25.61 13.27 25.7 13.18C25.79 13.09 25.88 13 25.97 12.91C26.06 12.82 26.15 12.73 26.23 12.64C26.32 12.56 26.41 12.47 26.5 12.38C26.58 12.29 26.67 12.2 26.76 12.11C26.85 12.02 26.93 11.94 27.02 11.85C27.1 11.76 27.19 11.67 27.28 11.58C27.36 11.49 27.45 11.4 27.53 11.32C27.62 11.23 27.71 11.14 27.79 11.05C27.88 10.96 27.96 10.88 28.05 10.79C28.13 10.7 28.22 10.61 28.3 10.52C28.39 10.43 28.47 10.35 28.56 10.26C28.64 10.17 28.72 10.08 28.81 9.99C28.89 9.91 28.98 9.82 29.06 9.73C29.15 9.64 29.23 9.55 29.32 9.47C29.38 9.4 29.44 9.34 29.5 9.28C29.56 9.22 29.62 9.16 29.68 9.1C29.74 9.05 29.81 8.99 29.87 8.93C29.93 8.88 29.99 8.82 30.06 8.77C30.12 8.71 30.18 8.66 30.24 8.6C30.31 8.55 30.37 8.5 30.43 8.44C30.5 8.39 30.56 8.34 30.62 8.28C30.69 8.23 30.75 8.18 30.82 8.13C30.88 8.08 30.94 8.02 31.01 7.97C31.07 7.92 31.14 7.87 31.2 7.81C31.26 7.76 31.33 7.71 31.39 7.65C31.46 7.6 31.52 7.55 31.58 7.49C31.65 7.44 31.71 7.38 31.77 7.32C31.84 7.27 31.9 7.21 31.97 7.15C32.03 7.1 32.09 7.04 32.16 6.98C32.22 6.92 32.28 6.85 32.34 6.79C32.4 6.74 32.46 6.68 32.52 6.62C32.57 6.56 32.63 6.5 32.69 6.43C32.75 6.37 32.8 6.31 32.86 6.25C32.92 6.18 32.97 6.12 33.03 6.05C33.09 5.99 33.14 5.92 33.2 5.85C33.26 5.79 33.32 5.72 33.37 5.66C33.43 5.59 33.49 5.52 33.54 5.45C33.6 5.39 33.66 5.32 33.72 5.25C33.77 5.18 33.83 5.12 33.89 5.05C33.95 4.98 34 4.91 34.06 4.85C34.12 4.78 34.18 4.71 34.24 4.65C34.3 4.58 34.36 4.51 34.42 4.45C34.48 4.38 34.54 4.32 34.6 4.26C34.66 4.19 34.72 4.13 34.78 4.07C34.84 4.01 34.9 3.95 34.97 3.89C35.03 3.83 35.09 3.77 35.16 3.71C35.22 3.65 35.29 3.6 35.36 3.55C35.43 3.49 35.5 3.45 35.57 3.4C35.64 3.36 35.72 3.32 35.79 3.28C35.87 3.24 35.95 3.21 36.02 3.18C36.1 3.15 36.18 3.13 36.26 3.11C36.34 3.09 36.42 3.07 36.5 3.05C36.58 3.04 36.66 3.03 36.75 3.02C36.83 3.02 36.91 3.01 36.99 3.01C37.07 3.01 37.15 3.02 37.24 3.03C37.32 3.03 37.4 3.05 37.48 3.06C37.56 3.08 37.64 3.09 37.72 3.12C37.8 3.14 37.87 3.16 37.95 3.19C38.03 3.22 38.1 3.26 38.18 3.29C38.25 3.33 38.33 3.37 38.4 3.42C38.47 3.46 38.54 3.51 38.61 3.56C38.67 3.61 38.74 3.66 38.8 3.72C39.59 4.43 40.33 5.22 41.04 5.97C41.04 6.17 41.02 6.37 40.99 6.6C40.9 7.24 40.65 7.82 40.54 8.5C40.44 9.11 40.49 9.83 40.41 10.44C40.33 11.07 40.2 11.59 40.09 12.15C37.74 9.82 37.77 8.67 35.07 11.1C34.43 11.67 33.83 11.91 33.2 12.48C32.56 13.05 31.9 13.95 31.26 14.52C30.63 15.09 30.29 15.6 29.66 16.17C29.02 16.74 28.09 17.37 27.45 17.94C26.82 18.51 26.22 18.72 25.58 19.3C24.95 19.87 24.28 20.8 23.65 21.37C23.01 21.94 22.38 22.51 21.74 23.08C21.11 23.65 19.52 25.33 18.88 25.9C18.63 26.12 18.4 26.33 18.18 26.52C17.96 26.24 17.73 25.95 17.45 25.64C17.01 25.16 16.2 24.52 15.76 24.04L14.55 22.71ZM42.59 7.51C43.28 8.13 44.33 8.69 45.02 9.32C45.71 9.94 46.4 10.56 47.1 11.18C47.79 11.8 48.81 12.36 49.5 12.98C50.73 14.09 51.95 15.54 53.31 16.77C54.01 17.39 54.7 18.01 55.39 18.64C55.74 18.95 56.33 19.4 56.92 19.85C55.88 21.19 54.87 22.48 54.03 23.56C53.85 23.78 53.68 24 53.51 24.23C51.94 22.66 50.55 20.68 49.44 19.69C48.37 18.72 46.27 17.75 44.59 16.23C43.95 15.66 43.74 15.06 43.1 14.49C42.47 13.92 41.41 13.38 40.78 12.81C40.74 12.77 40.71 12.74 40.67 12.71C40.75 12.51 40.83 12.31 40.88 12.1C41.13 11.09 41.18 9.84 41.45 8.87C41.64 8.2 41.88 7.66 42.1 7.05C42.26 7.21 42.43 7.36 42.59 7.51ZM59.84 22.48C60.32 22.99 60.84 23.54 61.61 24.23C62.3 24.85 62.99 25.47 63.68 26.09C64.96 27.25 66.11 28.88 66.92 29.61C67.62 30.23 69.21 31.06 69.9 31.68C71 32.68 72.78 33.79 72.87 35.43C72.87 35.44 72.87 35.57 72.87 35.57L72.87 35.57C72.87 36.37 72.66 36.97 72.66 37.77C72.66 38.58 72.87 39.59 72.87 40.4C72.87 41.2 73.11 42.19 73.11 42.99C73.11 46.04 72.34 50.61 72.34 51.89C72.34 52.13 72.42 52.64 72.51 53.3C71.94 53.28 71.35 53.25 70.76 53.2C69.74 52.98 68.59 52.72 67.43 52.5L67.43 49.79C67.43 49.06 67.6 47.98 67.6 47.26C67.6 46.53 67.43 46.17 67.43 45.45C67.43 44.73 67.25 44.02 67.25 43.3C67.25 41.92 67.43 40.42 67.43 38.94C67.43 36.76 67.16 35.86 65.35 34.22C64.71 33.65 64.26 33.92 63.62 33.35C62.99 32.78 62.81 32.27 62.17 31.7C61.54 31.13 60.45 30.5 59.82 29.93C59.18 29.36 59.06 28.82 58.42 28.25C57.79 27.67 56.64 27.07 56.01 26.5L55.9 26.41C56.52 25.57 57.19 24.81 58 24.23C58.75 23.7 59.34 23.1 59.84 22.48ZM72.87 57.29C72.87 60.36 73.14 63.68 73.14 65.78C73.14 66.93 72.87 69.71 72.87 71.78L72.87 74.19C72.87 74.28 72.87 74.38 72.86 74.47C72.85 74.56 72.84 74.65 72.82 74.74C72.8 74.83 72.78 74.92 72.75 75C72.72 75.09 72.69 75.17 72.66 75.25C72.62 75.33 72.59 75.41 72.54 75.49C72.5 75.57 72.46 75.64 72.41 75.71C72.36 75.78 72.31 75.85 72.25 75.92C72.2 75.99 72.14 76.05 72.08 76.12C72.01 76.18 71.95 76.24 71.88 76.29C71.82 76.35 71.75 76.4 71.67 76.45C71.6 76.5 71.53 76.54 71.45 76.58C71.37 76.63 71.29 76.66 71.21 76.7C71.13 76.73 71.05 76.76 70.96 76.79C70.88 76.82 70.79 76.84 70.7 76.86C70.61 76.87 70.52 76.89 70.43 76.9C70.34 76.91 70.25 76.91 70.15 76.91L66.01 76.91C64.62 76.91 63.21 76.58 61.83 76.58C60.45 76.58 59.09 76.91 57.71 76.91C56.33 76.91 53.93 76.43 52.54 76.43C52.2 76.43 51.92 76.46 51.68 76.51C51.47 76.14 51.26 75.76 51.05 75.35C50.4 74.13 49.92 72.86 49.43 71.6C50.35 71.53 51.28 71.47 52.2 71.47C56 71.47 59.93 71.64 63.85 71.7C67.16 71.75 67.43 72.01 67.43 69.3C67.43 68.58 67.79 67.53 67.79 66.8C67.79 65.83 67.73 64.82 67.73 63.73C67.73 63 67.43 61.35 67.43 60.63C67.43 59.91 67.64 59.45 67.64 58.73C67.64 58.01 67.43 57.01 67.43 56.29L67.43 53.77C68.2 53.97 68.98 54.17 69.82 54.32C70.78 54.5 71.74 54.64 72.71 54.77C72.8 55.57 72.87 56.44 72.87 57.29ZM42.08 76.49C40.7 76.49 38.36 76.91 36.97 76.91C33.23 76.91 29.49 77.39 25.97 77.39C24.59 77.39 21.77 76.91 20.38 76.91C17.96 76.91 15.27 76.37 13.53 76.37C12.15 76.37 9.32 76.91 7.94 76.91L3.79 76.91C3.7 76.91 3.61 76.91 3.52 76.9C3.42 76.89 3.33 76.87 3.25 76.86C3.16 76.84 3.07 76.82 2.98 76.79C2.9 76.76 2.82 76.73 2.73 76.7C2.65 76.66 2.57 76.63 2.5 76.58C2.42 76.54 2.35 76.5 2.27 76.45C2.2 76.4 2.13 76.35 2.06 76.29C2 76.24 1.93 76.18 1.87 76.12C1.81 76.05 1.75 75.99 1.69 75.92C1.64 75.85 1.59 75.78 1.54 75.71C1.49 75.64 1.44 75.57 1.4 75.49C1.36 75.41 1.32 75.33 1.29 75.25C1.25 75.17 1.22 75.09 1.2 75C1.17 74.92 1.15 74.83 1.13 74.74C0.95 73.85 1.28 73.08 1.28 72.21C1.28 71.43 1.07 71.08 1.07 70.3C1.07 70 1.09 69.7 1.1 69.4L3.29 68.28L6.24 65.85C6.22 70.84 5.56 71.71 10.43 71.71C11.7 71.71 12.86 71.47 14.13 71.47C15.4 71.47 16.67 71.64 17.94 71.64C19.21 71.64 20.47 71.47 21.74 71.47C23.01 71.47 24.25 71.89 25.52 71.89C26.79 71.89 28.09 71.47 29.36 71.47C29.75 71.47 30.35 71.74 30.74 71.74C31.62 71.74 32.29 71.47 33.17 71.47C33.52 71.47 33.96 71.83 34.31 71.83C35.23 71.83 36.06 71.47 36.97 71.47L40.78 71.47C42.05 71.47 44.19 71.83 45.46 71.83C45.97 71.83 46.51 71.81 47.06 71.77C47.31 72.92 47.39 73.87 47.95 75.42L48.49 76.89C46.25 76.82 43.98 76.49 42.08 76.49ZM9.95 45.39C9.95 47.9 10.19 54.73 10.19 57.24C10.19 58.64 10.17 59.86 10.15 60.93C9.95 61.01 9.75 61.1 9.54 61.2C8.77 61.58 8 62.05 7.23 62.53C7.23 62.15 7.23 61.74 7.23 61.33C7.23 58.65 7.5 55.38 7.5 52.7C7.5 50.03 7.23 47.96 7.23 45.28C7.23 34.11 8.43 36.97 14.78 29.87L17.76 27.43C18.11 27.83 18.5 28.28 18.71 28.46C19.01 28.71 19.3 28.96 19.6 29.19L16.71 31.79C9.55 38.22 9.95 35.92 9.95 45.39ZM10.1 63.28C10.01 69.96 10.94 67.99 23.46 67.99C24.7 67.99 27.41 68.26 28.64 68.26C31.91 68.26 33.71 67.99 36.97 67.99C40.3 67.99 42.75 67.8 45.62 67.7C45.97 68.47 46.27 69.19 46.5 69.82C46.62 70.14 46.71 70.43 46.79 70.71L36.97 70.71C29.99 71.12 26.03 71.26 21.82 70.66C6.54 70.66 6.91 73.82 7.17 65.08L8.24 64.2C8.79 63.85 9.44 63.56 10.1 63.28ZM48.89 67.64C52.3 67.64 56.04 67.99 59.45 67.99C63.84 67.99 63.99 68.09 63.99 63.26L63.99 60.46C63.99 58.03 63.77 55.33 63.75 52.88L63.89 52.91C64.8 53.08 65.64 53.29 66.48 53.51C66.47 53.66 66.47 53.79 66.47 53.93C66.47 56.61 66.92 59.88 66.92 62.56C66.8 73.59 68.32 70.71 51.16 70.71L49.07 70.71C48.77 69.97 48.44 69.23 48.07 68.51C47.91 68.22 47.75 67.93 47.58 67.65C48.01 67.64 48.44 67.64 48.89 67.64ZM64.26 44.79C64.26 36.52 65.37 38.09 57.09 31.52C56.16 30.68 55.21 29.77 54.25 28.85C54.68 28.21 55.09 27.56 55.52 26.95C56.72 28.05 57.92 29.03 59.13 29.83C60.98 31.5 62.15 32.92 63.22 33.81C63.86 34.34 64.62 34.5 65.04 34.89C67.27 36.96 66.71 37.81 66.71 45.28C66.71 47.44 66.56 50.02 66.5 52.34C65.64 52.2 64.8 52.1 64.03 52.08L63.76 52.07C63.82 49.71 64.26 47.12 64.26 44.79ZM50.18 24.99C45.52 21.28 41.84 18.11 39.62 16.06C39.78 15.35 39.91 14.64 40.14 13.96C40.19 13.81 40.24 13.67 40.31 13.52C41.88 14.94 44.01 16.99 46.88 19.26C48.6 20.66 50.32 22.06 52.04 23.46C52.43 23.87 52.81 24.28 53.19 24.67C52.73 25.3 52.29 25.92 51.86 26.55C51.3 26.01 50.74 25.49 50.18 24.99ZM39.25 15.72C36.78 13.41 36.49 13.53 34 16.16C31.26 19.06 26.56 22.93 23.46 25.71L20.07 28.76C19.84 28.55 19.62 28.34 19.4 28.09C19.04 27.67 18.75 27.27 18.44 26.86L22.77 23.31C24.83 21.25 26.85 19.66 28.92 17.59C29.83 16.79 31.41 15.48 32.17 14.84C34.86 12.59 35.94 11.54 37.39 11.57C37.97 11.58 38.79 12.18 39.93 13.19L39.55 16C39.45 15.9 39.35 15.81 39.25 15.72ZM13.32 41.67L13.32 59.9C12.49 60.17 11.69 60.37 10.87 60.65C10.79 57.82 10.6 55.91 10.6 52.37C10.6 50.36 10.81 49 10.81 46.99C10.81 41.3 10.39 39.74 10.92 38.52C11.38 37.44 12.55 36.63 16.21 33.34C17.58 32.11 18.75 30.83 20.12 29.6L20.12 29.6C20.87 30.18 21.62 30.73 22.37 31.37C21.79 31.93 21.2 32.49 20.59 33.04C18.76 34.68 16.84 36.29 14.97 37.91C13.01 39.62 13.32 39.07 13.32 41.67ZM13.33 61.7C13.36 65.8 13.81 64.76 19.26 64.76C24.94 64.76 27.67 64.61 33.82 64.61C36.01 64.61 41.19 64.91 43.29 64.91C43.64 64.91 44 64.91 44.35 64.91C44.68 65.63 45.02 66.37 45.35 67.08C42.59 67.21 39.62 67.32 36.97 67.34C33.57 67.35 29.31 66.89 25.91 66.89C20.97 66.89 17.73 67.61 12.79 67.61C10.19 67.43 10.9 64.58 10.9 63.31C10.9 63.18 10.9 63.06 10.9 62.94C11.64 62.63 12.35 62.32 12.96 61.93C13.09 61.85 13.21 61.78 13.33 61.7ZM57.87 64.61C60.4 64.61 60.62 64.96 60.62 62.35L60.62 52.35C61.47 52.49 62.32 52.63 63.14 52.77C63.13 52.98 63.13 53.14 63.13 53.27C63.13 56.21 63.31 58.25 63.34 61.19C63.46 71.02 61.89 66.19 47.35 66.98L47.18 66.99C46.74 66.29 46.27 65.59 45.8 64.89C49.76 64.82 53.73 64.61 57.87 64.61ZM60.82 42.89C60.94 41.24 60.74 40.02 60.21 38.93C59.2 36.86 57.31 36.98 52.15 31.52C52.72 30.95 53.22 30.31 53.69 29.65C55.48 31.03 57.21 32.29 59.14 34.03C60.2 34.97 61.46 36.07 62.51 37.01C63.76 38.76 63.5 41.14 63.37 44.52C63.28 46.72 63.19 50.13 63.15 52.05C62.31 52.03 61.47 52.01 60.62 51.97C60.62 47.88 60.68 44.92 60.82 42.89ZM48.8 28.73C47.16 27.26 46.28 26.05 45.08 24.97C43.99 23.99 42.57 23.13 41.07 21.78C38.65 19.61 37.54 17.59 35.33 19.57C33.41 21.3 31.77 23.1 29.85 24.83C28.38 26.16 26.62 27.41 25.15 28.73C24.19 29.59 23.3 30.47 22.39 31.35C21.91 30.78 21.38 30.07 20.88 29.53C20.77 29.42 20.66 29.31 20.56 29.21L23.56 26.51C25.22 25.02 27.01 23.82 28.51 22.48C30.05 21.09 31.29 19.55 33.01 18.01C36.51 14.86 36.48 14 39.93 17.1C42.45 19.37 44.96 21.63 47.48 23.89C48.44 24.76 49.37 26.01 50.33 26.87C50.61 27.12 50.88 27.37 51.16 27.6C50.72 28.24 50.29 28.88 49.84 29.52C49.45 29.25 49.08 28.99 48.8 28.73ZM16.7 45.96L16.7 56.15C16.7 57.03 16.72 57.77 16.77 58.4C15.94 58.82 15.11 59.24 14.33 59.55C14.21 59.6 14.09 59.64 13.97 59.69C13.97 58.92 13.98 58.04 13.98 57.02L13.98 45.85C13.98 37.79 12.97 40.57 19.83 34.39C21.64 32.77 23.44 31.15 25.24 29.53C27.04 27.91 28.85 26.29 30.65 24.67C38.29 17.79 35.63 17.77 43.28 24.65C45.08 26.27 46.87 27.88 48.67 29.5L49.39 30.14C49.09 30.55 48.79 30.96 48.47 31.36C48.22 31.68 47.96 31.99 47.69 32.27L47.11 31.75C45.42 30.23 43.73 28.71 42.04 27.19C36.01 21.76 37.94 21.76 31.9 27.19C30.21 28.71 28.52 30.23 26.83 31.75C25.15 33.27 23.46 34.79 21.77 36.31C16.7 40.86 16.7 39.31 16.7 45.96ZM16.84 59.02C17.4 62.93 19.71 61.24 26.83 61.24L42.8 61.24L42.89 61.51C43.19 62.33 43.63 63.32 44.1 64.36C41.65 64.27 39.6 63.96 36.97 63.96L26.15 63.96C15.65 63.96 14.18 65.91 14 61.24C14.99 60.53 15.91 59.77 16.84 59.02ZM47.11 61.24C55.59 61.24 57.25 63.63 57.25 56.15L57.25 45.96C57.25 39.31 57.24 40.86 52.18 36.31L49.45 33.86C50.2 33.26 50.92 32.66 51.55 32.09L54.07 34.35C60.65 40.27 59.97 37.69 59.97 45.85L59.97 51.95C59.06 51.91 58.16 51.85 57.26 51.78C58.12 51.94 59.04 52.09 59.97 52.24L59.97 57.02C59.97 64.55 61.17 64.14 55.63 64.1C51.84 64.07 48.64 64.39 45.47 64.39C44.87 63.48 44.29 62.58 43.82 61.69C43.75 61.55 43.67 61.4 43.59 61.24L47.11 61.24ZM20.07 50.12C19.08 62.36 23.23 57.7 37 57.51C38.63 57.49 40.12 57.54 41.48 57.62L42.62 60.76C40.94 60.71 39.07 60.65 36.97 60.59C21.15 60.15 17.77 63 17.25 58.7C18.01 58.11 18.78 57.53 19.63 56.99C18.86 57.32 18.03 57.75 17.2 58.18C17.09 56.57 17.26 54.14 17.35 50.5C17.66 37.87 16.14 42.25 26.93 32.55C39.35 21.38 34.57 21.35 46.99 32.52C47.07 32.6 47.16 32.67 47.24 32.75C46.59 33.41 45.91 34 45.24 34.6C35.4 25.72 38.52 25.78 28.52 34.77C23.22 39.54 20.85 40.22 20.11 43.15C19.74 44.63 20.35 46.64 20.07 50.12ZM53.88 50.12C53.64 46.38 54.3 43.85 53.86 42.35C53.15 39.93 51 39.44 46.8 35.95C47.51 35.39 48.25 34.82 48.96 34.25C57.47 41.54 56.6 38.43 56.6 50.5C56.6 59.79 57.15 61.11 52.89 61.08C50.92 61.06 47.89 60.94 43.36 60.79C42.86 59.78 42.37 58.71 41.87 57.65C51.53 58.29 54.53 60.5 53.88 50.12ZM26.13 54.62C28.34 54.75 32.91 53.87 37.24 53.87C44.05 53.87 48.23 55.87 49.94 53.56C50.58 52.69 50.51 51.47 50.51 49.19C50.51 41.89 49.55 42.91 44.16 38.16C44.79 37.59 45.51 36.99 46.26 36.38C53.56 42.72 53.63 40.13 53.23 49.56C52.93 56.43 52.74 57.95 49.14 57.76C47.55 57.67 45.07 57.22 41.58 57.03C41.18 56.18 40.77 55.34 40.36 54.55L41.26 57.02C39.88 56.95 38.36 56.93 36.67 56.98C20.33 57.51 20.72 61.49 20.72 49.56C20.72 40.02 20.18 43.15 28.61 35.57C38.64 26.55 35.22 26.36 44.74 35.03C44.08 35.62 43.42 36.23 42.79 36.93C35.9 30.59 38.15 31.32 30.43 38.27C24.67 43.44 23.44 41.71 23.44 49.19C23.44 53.66 23.56 54.47 26.13 54.62ZM27.9 48.05C27.9 52.86 30.89 50.14 36.22 50.14C41.56 50.14 45.73 52.74 45.73 47.92C45.73 43.55 45.16 44.48 41.78 41.44C41.61 41.28 41.45 41.14 41.3 40.99L43.65 38.65L43.69 38.62C49.34 43.69 49.86 41.95 49.86 48.63C49.86 57.13 48.69 53.34 37.33 53.34C25.98 53.34 24.09 57.13 24.09 48.63C24.09 42.18 24.64 44.19 30.54 38.88C38.1 32.08 35.9 31.41 42.37 37.41C42.24 37.57 42.11 37.73 41.99 37.89C41.45 38.59 40.91 39.36 40.37 40.14C36.1 36.11 37.62 36.89 32.1 41.86C28.72 44.9 27.9 43.68 27.9 48.05ZM28.72 47.12C28.72 43.93 30.12 44.63 32.74 42.44C36.9 38.97 36.44 37.83 39.8 40.97C38.66 42.67 37.61 44.33 36.82 45.44L40.58 41.71L40.84 41.96C44.14 45.09 44.58 44.92 44.91 47.58C45.29 50.78 40.82 50.15 38.09 49.73C31.61 48.75 28.72 52.29 28.72 47.12Z" />
			<path id="Path 35" fill-rule="evenodd" class="shp1" d="M104.25 11.34L101.36 11.34L99.69 24.01L99.64 24.01L98 11.34L95.43 11.34L93.79 24.01L93.74 24.01L92.07 11.34L89.1 11.34L92.05 30.45L94.99 30.45L96.66 19.06L96.72 19.06L98.35 30.45L101.3 30.45L104.25 11.34ZM105.89 15.9L105.89 25.89C105.89 28.89 107.67 30.72 110.56 30.72C113.45 30.72 115.23 28.89 115.23 25.89L115.23 15.9C115.23 12.89 113.45 11.06 110.56 11.06C107.67 11.06 105.89 12.89 105.89 15.9ZM112.34 15.92L112.34 25.86C112.34 27.28 111.71 28.05 110.56 28.05C109.41 28.05 108.78 27.28 108.78 25.86L108.78 15.92C108.78 14.5 109.41 13.74 110.56 13.74C111.71 13.74 112.34 14.5 112.34 15.92ZM117.74 15.9L117.74 25.89C117.74 28.89 119.52 30.72 122.41 30.72C125.31 30.72 127.08 28.89 127.08 25.89L127.08 15.9C127.08 12.89 125.31 11.06 122.41 11.06C119.52 11.06 117.74 12.89 117.74 15.9ZM124.19 15.92L124.19 25.86C124.19 27.28 123.56 28.05 122.41 28.05C121.26 28.05 120.64 27.28 120.64 25.86L120.64 15.92C120.64 14.5 121.26 13.74 122.41 13.74C123.56 13.74 124.19 14.5 124.19 15.92ZM129.89 30.45L134.04 30.45C137.16 30.45 138.85 28.76 138.85 25.62L138.85 16.17C138.85 13.03 137.16 11.34 134.04 11.34L129.89 11.34L129.89 30.45ZM133.94 14.01C135.33 14.01 135.96 14.75 135.96 16.36L135.96 25.43C135.96 27.04 135.33 27.78 133.94 27.78L132.79 27.78L132.79 14.01L133.94 14.01ZM90.61 38.24L90.61 48.72C90.61 51.62 92.25 53.31 95.06 53.31C97.9 53.31 99.57 51.62 99.57 48.72L99.57 46.43L96.78 46.29L96.78 48.42C96.78 49.95 96.21 50.63 95.15 50.63C94.08 50.63 93.51 49.95 93.51 48.69L93.51 38.26C93.51 37.01 94.08 36.32 95.15 36.32C96.21 36.32 96.78 37.01 96.78 38.54L96.78 40.09L99.57 39.96L99.57 38.24C99.57 35.34 97.9 33.65 95.06 33.65C92.25 33.65 90.61 35.34 90.61 38.24ZM101.78 38.48L101.78 48.48C101.78 51.48 103.56 53.31 106.45 53.31C109.35 53.31 111.12 51.48 111.12 48.48L111.12 38.48C111.12 35.48 109.35 33.65 106.45 33.65C103.56 33.65 101.78 35.48 101.78 38.48ZM108.23 38.51L108.23 48.45C108.23 49.87 107.6 50.63 106.45 50.63C105.3 50.63 104.68 49.87 104.68 48.45L104.68 38.51C104.68 37.09 105.3 36.32 106.45 36.32C107.6 36.32 108.23 37.09 108.23 38.51ZM123.25 53.04L120.6 44.32C121.93 43.56 122.64 42.14 122.64 40.12L122.64 38.75C122.64 35.61 120.95 33.92 117.84 33.92L113.66 33.92L113.66 53.04L116.55 53.04L116.55 44.95L117.89 44.95L120.19 53.04L123.25 53.04ZM117.73 36.6C119.12 36.6 119.75 37.33 119.75 38.95L119.75 39.93C119.75 41.54 119.12 42.28 117.73 42.28L116.55 42.28L116.55 36.6L117.73 36.6ZM133.49 33.92L125.35 33.92L125.35 53.04L133.49 53.04L133.49 50.36L128.24 50.36L128.24 44.68L132.48 44.68L132.48 42L128.24 42L128.24 36.6L133.49 36.6L133.49 33.92ZM99.65 56.53L96.76 56.53L96.76 64.58L93.31 64.58L93.31 56.53L90.42 56.53L90.42 75.64L93.31 75.64L93.31 67.31L96.76 67.31L96.76 75.64L99.65 75.64L99.65 56.53ZM102.46 61.09L102.46 71.08C102.46 74.09 104.24 75.92 107.13 75.92C110.03 75.92 111.8 74.09 111.8 71.08L111.8 61.09C111.8 58.08 110.03 56.25 107.13 56.25C104.24 56.25 102.46 58.08 102.46 61.09ZM108.91 61.11L108.91 71.05C108.91 72.47 108.28 73.24 107.13 73.24C105.99 73.24 105.36 72.47 105.36 71.05L105.36 61.11C105.36 59.69 105.99 58.93 107.13 58.93C108.28 58.93 108.91 59.69 108.91 61.11ZM120.51 56.53L120.51 71.27C120.51 72.67 119.88 73.18 118.87 73.18C117.86 73.18 117.24 72.67 117.24 71.27L117.24 56.53L114.45 56.53L114.45 71.35C114.45 74.36 116.17 75.92 118.9 75.92C121.69 75.92 123.41 74.36 123.41 71.35L123.41 56.53L120.51 56.53ZM125.43 60.54L125.43 60.95C125.43 63.19 126.33 64.77 128.98 67.01C130.92 68.65 131.49 69.61 131.49 70.81L131.49 71.44C131.49 72.64 130.94 73.24 129.85 73.24C128.76 73.24 128.21 72.64 128.21 71.44L128.21 70.07L125.43 70.34L125.43 71.63C125.43 74.36 127.04 75.92 129.91 75.92C132.77 75.92 134.39 74.36 134.39 71.63L134.39 70.67C134.39 68.38 133.4 66.79 130.75 64.56C128.81 62.92 128.32 61.96 128.32 60.84L128.32 60.6C128.32 59.5 128.84 58.93 129.8 58.93C130.75 58.93 131.27 59.5 131.27 60.6L131.27 61.31L134.06 61.03L134.06 60.54C134.06 57.81 132.5 56.25 129.74 56.25C126.98 56.25 125.43 57.81 125.43 60.54ZM144.27 56.53L136.13 56.53L136.13 75.64L144.27 75.64L144.27 72.97L139.03 72.97L139.03 67.29L143.26 67.29L143.26 64.61L139.03 64.61L139.03 59.2L144.27 59.2L144.27 56.53ZM79.55 84.33L82.96 84.33L82.96 1L79.55 1L79.55 84.33Z" />
		</g>
	</g>
</svg>