<svg xmlns="http://www.w3.org/2000/svg" viewBox="0 0 260 60" width="260" height="60">
	<defs>
		<clipPath clipPathUnits="userSpaceOnUse" id="cp1">
			<path d="M-1275 -2061L645 -2061L645 5572L-1275 5572Z" />
		</clipPath>
	</defs>
	<style>
		tspan { white-space:pre }
		.shp0 { fill: #164194 } 
		.shp1 { fill: #ffed00 } 
		.shp2 { fill: #000000 } 
	</style>
	<g id="01a_strona_glowna" clip-path="url(#cp1)">
		<g id="Group 6090">
			<g id="Group 6002">
				<path id="Rectangle 278" class="shp0" d="M172.27 0.85L260 0.85L260 59.34L172.27 59.34L172.27 0.85Z" />
				<path id="Path 8336" class="shp1" d="M214.26 13.6L216.12 12.25L217.97 13.6L217.26 11.41L219.14 10.06L216.83 10.06L216.12 7.85L215.41 10.06L213.09 10.06L214.96 11.41L214.26 13.6Z" />
				<path id="Path 8337" class="shp1" d="M204.68 16.17L206.54 14.82L208.39 16.17L207.68 13.99L209.56 12.63L207.24 12.63L206.53 10.42L205.83 12.64L203.51 12.63L205.39 13.99L204.68 16.17Z" />
				<path id="Path 8338" class="shp1" d="M199.52 17.45L198.82 19.67L196.5 19.66L198.37 21.01L197.67 23.2L199.52 21.85L201.38 23.2L200.67 21.01L202.55 19.66L200.24 19.66L199.52 17.45Z" />
				<path id="Path 8339" class="shp1" d="M196.96 31.41L198.8 32.76L198.1 30.58L199.98 29.23L197.66 29.23L196.96 27.01L196.24 29.23L193.93 29.23L195.8 30.58L195.1 32.76L196.96 31.41Z" />
				<path id="Path 8340" class="shp1" d="M200.23 38.82L199.52 36.61L198.82 38.82L196.5 38.82L198.37 40.18L197.67 42.36L199.52 41.01L201.38 42.36L200.67 40.18L202.55 38.82L200.23 38.82Z" />
				<path id="Path 8341" class="shp1" d="M207.26 45.85L206.55 43.64L205.83 45.85L203.52 45.85L205.4 47.2L204.7 49.38L206.55 48.03L208.4 49.38L207.7 47.2L209.58 45.85L207.26 45.85Z" />
				<path id="Path 8342" class="shp1" d="M216.83 48.39L216.12 46.18L215.41 48.39L213.09 48.39L214.97 49.74L214.26 51.93L216.12 50.57L217.97 51.93L217.26 49.74L219.15 48.39L216.83 48.39Z" />
				<path id="Path 8343" class="shp1" d="M226.4 45.85L225.68 43.64L224.97 45.85L222.66 45.85L224.54 47.2L223.83 49.38L225.68 48.03L227.54 49.38L226.83 47.2L228.72 45.85L226.4 45.85Z" />
				<path id="Path 8344" class="shp1" d="M233.42 38.82L232.71 36.61L232 38.82L229.69 38.82L231.57 40.18L230.85 42.36L232.71 41.01L234.56 42.36L233.85 40.18L235.74 38.82L233.42 38.82Z" />
				<path id="Path 8345" class="shp1" d="M238.28 29.2L235.96 29.2L235.26 26.99L234.54 29.2L232.23 29.2L234.11 30.55L233.4 32.74L235.26 31.38L237.11 32.74L236.4 30.55L238.28 29.2Z" />
				<path id="Path 8346" class="shp1" d="M230.85 23.16L232.71 21.82L234.56 23.16L233.86 20.98L235.74 19.64L233.42 19.64L232.71 17.41L232 19.64L229.69 19.64L231.57 20.98L230.85 23.16Z" />
				<path id="Path 8347" class="shp1" d="M225.71 10.42L225.01 12.64L222.69 12.63L224.57 13.99L223.87 16.17L225.72 14.82L227.57 16.17L226.86 13.99L228.74 12.63L226.42 12.63L225.71 10.42Z" />
				<path id="Path 8348" class="shp2" d="M34.6 38.92L34.6 29.27L40.49 29.27L40.49 30.43L35.95 30.43L35.95 33.3L39.99 33.3L39.99 34.43L35.95 34.43L35.95 37.77L40.84 37.77L40.84 38.92L34.6 38.92Z" />
				<path id="Path 8349" class="shp2" d="M47.91 38.56C47.61 38.63 47.21 38.71 46.73 38.8C46.24 38.88 45.68 38.92 45.04 38.92C44.48 38.92 44.01 38.84 43.63 38.68C43.25 38.52 42.94 38.29 42.71 37.99C42.48 37.69 42.31 37.34 42.21 36.94C42.11 36.53 42.05 36.09 42.05 35.59L42.05 31.53L43.35 31.53L43.35 35.31C43.35 36.2 43.49 36.83 43.77 37.21C44.05 37.59 44.52 37.78 45.17 37.78C45.32 37.78 45.46 37.78 45.61 37.77C45.75 37.76 45.89 37.74 46.02 37.73C46.15 37.72 46.27 37.7 46.38 37.69C46.49 37.68 46.56 37.66 46.61 37.64L46.61 31.53L47.91 31.53L47.91 38.56Z" />
				<path id="Path 8350" class="shp2" d="M52.74 31.53C52.85 31.53 52.98 31.53 53.12 31.55C53.27 31.56 53.41 31.58 53.55 31.6C53.69 31.63 53.81 31.65 53.93 31.67C54.05 31.7 54.13 31.72 54.19 31.74L53.97 32.87C53.86 32.83 53.69 32.78 53.45 32.73C53.22 32.68 52.91 32.65 52.54 32.65C52.3 32.65 52.06 32.68 51.83 32.73C51.59 32.78 51.43 32.82 51.36 32.84L51.36 38.92L50.07 38.92L50.07 31.99C50.37 31.88 50.75 31.77 51.21 31.67C51.66 31.58 52.17 31.53 52.74 31.53Z" />
				<path id="Path 8351" fill-rule="evenodd" class="shp2" d="M61.76 35.14C61.76 35.71 61.68 36.23 61.51 36.7C61.35 37.16 61.11 37.56 60.81 37.9C60.51 38.23 60.15 38.49 59.73 38.67C59.31 38.85 58.86 38.94 58.36 38.94C57.87 38.94 57.42 38.85 57 38.67C56.58 38.49 56.22 38.23 55.92 37.9C55.62 37.56 55.38 37.16 55.22 36.7C55.05 36.23 54.97 35.71 54.97 35.14C54.97 34.57 55.05 34.05 55.22 33.58C55.38 33.11 55.62 32.71 55.92 32.38C56.22 32.04 56.58 31.79 57 31.61C57.42 31.42 57.87 31.33 58.36 31.33C58.86 31.33 59.31 31.42 59.73 31.61C60.15 31.79 60.51 32.04 60.81 32.38C61.11 32.71 61.35 33.11 61.51 33.58C61.68 34.05 61.76 34.57 61.76 35.14ZM60.41 35.14C60.41 34.32 60.23 33.67 59.86 33.19C59.49 32.71 59 32.48 58.36 32.48C57.73 32.48 57.23 32.71 56.87 33.19C56.5 33.67 56.32 34.32 56.32 35.14C56.32 35.95 56.5 36.6 56.87 37.08C57.23 37.56 57.73 37.8 58.36 37.8C59 37.8 59.49 37.56 59.86 37.08C60.23 36.6 60.41 35.95 60.41 35.14Z" />
				<path id="Path 8352" fill-rule="evenodd" class="shp2" d="M69.9 35.32C69.9 35.86 69.83 36.37 69.68 36.83C69.54 37.3 69.33 37.7 69.05 38.03C68.77 38.37 68.43 38.63 68.02 38.81C67.62 39 67.16 39.09 66.64 39.09C66.22 39.09 65.85 39.03 65.53 38.92C65.21 38.81 64.97 38.71 64.82 38.6L64.82 41.5L63.52 41.5L63.52 31.9C63.82 31.83 64.21 31.75 64.67 31.66C65.13 31.57 65.66 31.53 66.26 31.53C66.82 31.53 67.32 31.62 67.77 31.79C68.21 31.97 68.59 32.22 68.91 32.54C69.23 32.87 69.47 33.27 69.64 33.74C69.81 34.21 69.9 34.73 69.9 35.32ZM68.55 35.32C68.55 34.47 68.34 33.82 67.92 33.37C67.5 32.91 66.95 32.68 66.25 32.68C65.86 32.68 65.55 32.7 65.34 32.73C65.12 32.75 64.94 32.79 64.82 32.82L64.82 37.39C64.97 37.52 65.2 37.65 65.5 37.77C65.79 37.89 66.12 37.95 66.47 37.95C66.84 37.95 67.16 37.88 67.43 37.75C67.69 37.61 67.91 37.43 68.07 37.19C68.24 36.95 68.36 36.68 68.44 36.35C68.51 36.04 68.55 35.69 68.55 35.32Z" />
				<path id="Path 8353" fill-rule="evenodd" class="shp2" d="M71.25 35.15C71.25 34.51 71.34 33.95 71.53 33.47C71.71 32.99 71.96 32.6 72.26 32.28C72.57 31.97 72.92 31.73 73.32 31.57C73.72 31.41 74.13 31.33 74.55 31.33C75.52 31.33 76.27 31.64 76.79 32.25C77.31 32.85 77.57 33.78 77.57 35.03L77.57 35.24C77.57 35.33 77.57 35.41 77.56 35.49L72.6 35.49C72.66 36.24 72.87 36.81 73.25 37.2C73.63 37.59 74.23 37.78 75.04 37.78C75.49 37.78 75.87 37.74 76.19 37.66C76.5 37.59 76.73 37.51 76.89 37.44L77.07 38.52C76.91 38.6 76.64 38.69 76.24 38.78C75.85 38.88 75.4 38.93 74.9 38.93C74.27 38.93 73.72 38.83 73.26 38.64C72.8 38.45 72.42 38.19 72.13 37.85C71.83 37.52 71.61 37.12 71.46 36.66C71.32 36.2 71.25 35.7 71.25 35.15ZM76.22 34.44C76.23 33.85 76.08 33.37 75.78 33C75.48 32.62 75.07 32.43 74.54 32.43C74.24 32.43 73.97 32.49 73.75 32.61C73.52 32.72 73.33 32.87 73.17 33.06C73.01 33.25 72.89 33.46 72.8 33.7C72.71 33.94 72.66 34.19 72.63 34.44L76.22 34.44Z" />
				<path id="Path 8354" class="shp2" d="M80.01 30.37C79.78 30.37 79.58 30.3 79.42 30.14C79.25 29.99 79.17 29.78 79.17 29.52C79.17 29.26 79.25 29.06 79.42 28.9C79.58 28.75 79.78 28.67 80.01 28.67C80.24 28.67 80.44 28.75 80.6 28.9C80.76 29.06 80.84 29.26 80.84 29.52C80.84 29.78 80.76 29.99 80.6 30.14C80.44 30.3 80.24 30.37 80.01 30.37ZM78.18 41.53C78.07 41.53 77.93 41.52 77.75 41.49C77.58 41.46 77.43 41.42 77.31 41.38L77.47 40.32C77.57 40.35 77.67 40.37 77.79 40.39C77.92 40.41 78.03 40.42 78.13 40.42C78.57 40.42 78.89 40.28 79.08 40C79.27 39.73 79.37 39.33 79.37 38.8L79.37 31.68L80.66 31.68L80.66 38.78C80.66 39.71 80.45 40.4 80.03 40.86C79.61 41.31 78.99 41.53 78.18 41.53Z" />
				<path id="Path 8355" class="shp2" d="M84.51 37.82C85.04 37.82 85.43 37.75 85.68 37.61C85.94 37.47 86.07 37.25 86.07 36.95C86.07 36.63 85.94 36.38 85.69 36.19C85.44 36.01 85.03 35.8 84.45 35.57C84.17 35.46 83.91 35.34 83.65 35.23C83.4 35.11 83.18 34.97 82.99 34.82C82.81 34.66 82.66 34.47 82.54 34.24C82.43 34.02 82.38 33.75 82.38 33.42C82.38 32.78 82.61 32.27 83.09 31.9C83.56 31.52 84.21 31.33 85.02 31.33C85.23 31.33 85.43 31.35 85.64 31.37C85.84 31.39 86.03 31.42 86.21 31.45C86.38 31.48 86.54 31.52 86.67 31.56C86.81 31.59 86.91 31.62 86.99 31.65L86.75 32.77C86.61 32.69 86.39 32.62 86.1 32.54C85.8 32.46 85.44 32.42 85.02 32.42C84.66 32.42 84.35 32.49 84.08 32.63C83.81 32.78 83.67 33 83.67 33.31C83.67 33.47 83.7 33.61 83.76 33.73C83.82 33.85 83.92 33.96 84.04 34.06C84.17 34.15 84.32 34.24 84.51 34.33C84.69 34.41 84.92 34.5 85.18 34.59C85.52 34.72 85.83 34.85 86.1 34.97C86.37 35.1 86.59 35.25 86.79 35.41C86.98 35.58 87.12 35.78 87.22 36.02C87.33 36.26 87.38 36.55 87.38 36.89C87.38 37.56 87.13 38.06 86.63 38.41C86.14 38.75 85.43 38.92 84.51 38.92C83.87 38.92 83.37 38.87 83 38.76C82.64 38.66 82.4 38.58 82.26 38.52L82.5 37.41C82.65 37.46 82.89 37.54 83.21 37.66C83.54 37.77 83.97 37.82 84.51 37.82Z" />
				<path id="Path 8356" class="shp2" d="M91.59 34.94C91.86 35.15 92.16 35.42 92.47 35.73C92.78 36.05 93.09 36.39 93.39 36.76C93.69 37.13 93.98 37.5 94.24 37.87C94.51 38.25 94.74 38.6 94.93 38.92L93.41 38.92C93.21 38.6 92.99 38.27 92.73 37.93C92.48 37.59 92.21 37.26 91.93 36.95C91.65 36.64 91.37 36.36 91.08 36.1C90.79 35.84 90.52 35.62 90.26 35.44L90.26 38.92L88.97 38.92L88.97 28.34L90.26 28.11L90.26 34.72L91 33.98C91.27 33.71 91.53 33.44 91.79 33.16C92.05 32.88 92.3 32.61 92.53 32.36C92.76 32.1 92.96 31.88 93.13 31.68L94.65 31.68C94.44 31.91 94.2 32.17 93.95 32.45C93.7 32.73 93.44 33.01 93.17 33.29C92.9 33.57 92.63 33.86 92.36 34.14C92.08 34.42 91.83 34.69 91.59 34.94Z" />
				<path id="Path 8357" class="shp2" d="M97.46 38.92L96.16 38.92L96.16 31.68L97.46 31.68L97.46 38.92ZM96.81 30.37C96.57 30.37 96.38 30.3 96.22 30.14C96.05 29.99 95.97 29.78 95.97 29.52C95.97 29.26 96.05 29.06 96.22 28.9C96.38 28.75 96.57 28.67 96.81 28.67C97.04 28.67 97.24 28.75 97.4 28.9C97.56 29.06 97.64 29.26 97.64 29.52C97.64 29.78 97.56 29.99 97.4 30.14C97.24 30.3 97.04 30.37 96.81 30.37Z" />
				<path id="Path 8358" class="shp2" d="M102.85 38.92L102.85 29.27L108.68 29.27L108.68 30.43L104.21 30.43L104.21 33.34L108.17 33.34L108.17 34.48L104.21 34.48L104.21 38.92L102.85 38.92Z" />
				<path id="Path 8359" class="shp2" d="M115.6 38.56C115.3 38.63 114.91 38.71 114.42 38.8C113.94 38.88 113.37 38.92 112.73 38.92C112.17 38.92 111.7 38.84 111.32 38.68C110.94 38.52 110.64 38.29 110.4 37.99C110.17 37.69 110 37.34 109.9 36.94C109.8 36.53 109.75 36.09 109.75 35.59L109.75 31.53L111.04 31.53L111.04 35.31C111.04 36.2 111.18 36.83 111.46 37.21C111.74 37.59 112.21 37.78 112.87 37.78C113.01 37.78 113.15 37.78 113.3 37.77C113.45 37.76 113.59 37.74 113.72 37.73C113.85 37.72 113.97 37.7 114.07 37.69C114.18 37.68 114.26 37.66 114.3 37.64L114.3 31.53L115.6 31.53L115.6 38.56Z" />
				<path id="Path 8360" class="shp2" d="M117.76 31.89C118.05 31.82 118.45 31.74 118.94 31.65C119.43 31.57 120 31.53 120.64 31.53C121.22 31.53 121.69 31.61 122.08 31.77C122.46 31.93 122.76 32.16 122.99 32.45C123.21 32.75 123.38 33.1 123.47 33.51C123.56 33.91 123.61 34.36 123.61 34.86L123.61 38.92L122.31 38.92L122.31 35.14C122.31 34.69 122.28 34.31 122.22 33.99C122.16 33.68 122.06 33.42 121.92 33.23C121.78 33.03 121.6 32.89 121.36 32.8C121.13 32.71 120.84 32.67 120.5 32.67C120.36 32.67 120.22 32.68 120.07 32.68C119.92 32.69 119.78 32.71 119.64 32.72C119.51 32.73 119.39 32.75 119.28 32.77C119.18 32.79 119.1 32.8 119.05 32.81L119.05 38.92L117.76 38.92L117.76 31.89Z" />
				<path id="Path 8361" fill-rule="evenodd" class="shp2" d="M130.36 28.17L131.66 27.95L131.66 38.55C131.36 38.63 130.98 38.71 130.52 38.8C130.05 38.88 129.52 38.92 128.91 38.92C128.36 38.92 127.86 38.84 127.41 38.66C126.96 38.48 126.58 38.23 126.27 37.91C125.95 37.58 125.71 37.18 125.54 36.71C125.37 36.25 125.28 35.72 125.28 35.13C125.28 34.58 125.35 34.07 125.49 33.6C125.64 33.14 125.85 32.74 126.13 32.41C126.41 32.07 126.75 31.81 127.15 31.62C127.56 31.44 128.02 31.35 128.54 31.35C128.96 31.35 129.33 31.4 129.65 31.51C129.97 31.62 130.21 31.73 130.36 31.83L130.36 28.17ZM130.36 33.05C130.21 32.92 129.98 32.79 129.68 32.67C129.38 32.55 129.06 32.49 128.71 32.49C128.33 32.49 128.02 32.56 127.75 32.69C127.49 32.83 127.27 33.01 127.1 33.25C126.94 33.48 126.82 33.76 126.74 34.09C126.67 34.42 126.63 34.76 126.63 35.13C126.63 35.98 126.84 36.63 127.26 37.09C127.68 37.55 128.23 37.78 128.93 37.78C129.28 37.78 129.57 37.77 129.81 37.73C130.05 37.7 130.23 37.66 130.36 37.63L130.36 33.05Z" />
				<path id="Path 8362" class="shp2" d="M139.58 38.56C139.29 38.63 138.89 38.71 138.41 38.8C137.92 38.88 137.35 38.92 136.71 38.92C136.16 38.92 135.69 38.84 135.31 38.68C134.93 38.52 134.62 38.29 134.39 37.99C134.16 37.69 133.99 37.34 133.89 36.94C133.78 36.53 133.73 36.09 133.73 35.59L133.73 31.53L135.03 31.53L135.03 35.31C135.03 36.2 135.17 36.83 135.45 37.21C135.73 37.59 136.19 37.78 136.85 37.78C136.99 37.78 137.14 37.78 137.29 37.77C137.43 37.76 137.57 37.74 137.7 37.73C137.83 37.72 137.95 37.7 138.06 37.69C138.17 37.68 138.24 37.66 138.29 37.64L138.29 31.53L139.58 31.53L139.58 38.56Z" />
				<path id="Path 8363" class="shp2" d="M143.43 37.82C143.96 37.82 144.35 37.75 144.6 37.61C144.86 37.47 144.99 37.25 144.99 36.95C144.99 36.63 144.86 36.38 144.61 36.19C144.36 36.01 143.95 35.8 143.37 35.57C143.09 35.46 142.83 35.34 142.57 35.23C142.32 35.11 142.09 34.97 141.91 34.82C141.72 34.66 141.57 34.47 141.46 34.24C141.35 34.02 141.3 33.75 141.3 33.42C141.3 32.78 141.53 32.27 142.01 31.9C142.48 31.52 143.12 31.33 143.94 31.33C144.15 31.33 144.35 31.35 144.55 31.37C144.76 31.39 144.95 31.42 145.13 31.45C145.3 31.48 145.46 31.52 145.59 31.56C145.73 31.59 145.83 31.62 145.91 31.65L145.67 32.77C145.53 32.69 145.31 32.62 145.01 32.54C144.72 32.46 144.36 32.42 143.94 32.42C143.58 32.42 143.27 32.49 142.99 32.63C142.72 32.78 142.59 33 142.59 33.31C142.59 33.47 142.62 33.61 142.68 33.73C142.74 33.85 142.84 33.96 142.96 34.06C143.08 34.15 143.24 34.24 143.43 34.33C143.61 34.41 143.84 34.5 144.09 34.59C144.44 34.72 144.75 34.85 145.01 34.97C145.28 35.1 145.51 35.25 145.7 35.41C145.89 35.58 146.04 35.78 146.14 36.02C146.25 36.26 146.3 36.55 146.3 36.89C146.3 37.56 146.05 38.06 145.55 38.41C145.05 38.75 144.35 38.92 143.43 38.92C142.79 38.92 142.29 38.87 141.92 38.76C141.56 38.66 141.31 38.58 141.18 38.52L141.42 37.41C141.57 37.46 141.81 37.54 142.13 37.66C142.46 37.77 142.89 37.82 143.43 37.82Z" />
				<path id="Path 8364" class="shp2" d="M152.69 32.66C152.5 32.87 152.24 33.17 151.92 33.56C151.6 33.95 151.25 34.38 150.89 34.86C150.52 35.33 150.15 35.83 149.79 36.35C149.42 36.87 149.1 37.37 148.82 37.84L152.8 37.84L152.8 38.93L147.27 38.93L147.27 38.06C147.49 37.65 147.77 37.2 148.09 36.71C148.42 36.22 148.76 35.73 149.12 35.24C149.48 34.75 149.82 34.29 150.16 33.86C150.5 33.43 150.8 33.07 151.05 32.77L147.47 32.77L147.47 31.68L152.69 31.68L152.69 32.66Z" />
				<path id="Path 8365" fill-rule="evenodd" class="shp2" d="M16.24 51.95C16.39 52.14 16.58 52.38 16.81 52.69C17.04 52.99 17.27 53.32 17.51 53.69C17.75 54.05 17.99 54.44 18.23 54.84C18.47 55.24 18.67 55.62 18.83 55.99L17.36 55.99C17.17 55.64 16.97 55.28 16.75 54.92C16.53 54.56 16.31 54.21 16.09 53.88C15.87 53.55 15.65 53.24 15.43 52.96C15.21 52.67 15.01 52.42 14.84 52.2C14.72 52.21 14.59 52.22 14.47 52.22L12.87 52.22L12.87 55.99L11.52 55.99L11.52 46.48C11.9 46.39 12.33 46.32 12.8 46.29C13.27 46.26 13.69 46.24 14.09 46.24C15.44 46.24 16.47 46.5 17.18 47.01C17.89 47.52 18.25 48.28 18.25 49.29C18.25 49.93 18.08 50.48 17.74 50.94C17.4 51.39 16.9 51.73 16.24 51.95ZM14.2 47.43C13.62 47.43 13.18 47.44 12.87 47.47L12.87 51.1L13.83 51.1C14.3 51.1 14.72 51.08 15.09 51.03C15.46 50.99 15.77 50.9 16.03 50.77C16.28 50.64 16.48 50.46 16.62 50.22C16.76 49.98 16.83 49.67 16.83 49.28C16.83 48.92 16.76 48.61 16.62 48.37C16.48 48.13 16.29 47.94 16.06 47.8C15.82 47.66 15.54 47.56 15.22 47.51C14.9 47.45 14.56 47.43 14.2 47.43Z" />
				<path id="Path 8366" fill-rule="evenodd" class="shp2" d="M26.52 52.2C26.52 52.78 26.44 53.3 26.27 53.76C26.1 54.23 25.87 54.63 25.57 54.96C25.27 55.29 24.91 55.55 24.49 55.73C24.07 55.92 23.62 56.01 23.12 56.01C22.63 56.01 22.18 55.92 21.76 55.73C21.34 55.55 20.98 55.29 20.68 54.96C20.38 54.63 20.14 54.23 19.98 53.76C19.81 53.3 19.73 52.78 19.73 52.2C19.73 51.64 19.81 51.12 19.98 50.65C20.14 50.18 20.38 49.78 20.68 49.44C20.98 49.11 21.34 48.85 21.76 48.67C22.18 48.49 22.63 48.4 23.12 48.4C23.62 48.4 24.07 48.49 24.49 48.67C24.91 48.85 25.27 49.11 25.57 49.44C25.87 49.78 26.1 50.18 26.27 50.65C26.44 51.12 26.52 51.64 26.52 52.2ZM25.17 52.2C25.17 51.38 24.99 50.74 24.62 50.26C24.25 49.78 23.76 49.54 23.12 49.54C22.49 49.54 21.99 49.78 21.63 50.26C21.26 50.74 21.08 51.38 21.08 52.2C21.08 53.02 21.26 53.67 21.63 54.14C21.99 54.62 22.49 54.86 23.12 54.86C23.76 54.86 24.25 54.62 24.62 54.14C24.99 53.67 25.17 53.02 25.17 52.2Z" />
				<path id="Path 8367" class="shp2" d="M32.81 49.72C32.61 49.94 32.35 50.24 32.03 50.63C31.71 51.02 31.37 51.45 31 51.92C30.64 52.4 30.27 52.9 29.9 53.42C29.53 53.93 29.21 54.43 28.93 54.91L32.92 54.91L32.92 55.99L27.39 55.99L27.39 55.13C27.61 54.72 27.88 54.27 28.21 53.78C28.53 53.28 28.87 52.79 29.23 52.31C29.59 51.82 29.94 51.36 30.28 50.93C30.62 50.49 30.91 50.13 31.16 49.83L27.58 49.83L27.58 48.75L32.81 48.75L32.81 49.72Z" />
				<path id="Path 8368" class="shp2" d="M40.41 55.99C40.15 55.32 39.88 54.56 39.58 53.7C39.29 52.84 39.02 51.95 38.78 51.02C38.54 51.95 38.28 52.84 37.99 53.7C37.7 54.56 37.43 55.32 37.17 55.99L36.04 55.99C35.61 55.03 35.19 53.94 34.78 52.72C34.37 51.49 33.99 50.17 33.63 48.75L35.02 48.75C35.11 49.18 35.22 49.66 35.36 50.17C35.49 50.68 35.62 51.19 35.77 51.7C35.91 52.21 36.06 52.7 36.22 53.18C36.38 53.65 36.53 54.06 36.66 54.42C36.82 53.98 36.98 53.52 37.13 53.03C37.28 52.54 37.43 52.05 37.57 51.55C37.71 51.06 37.84 50.57 37.97 50.09C38.09 49.61 38.2 49.17 38.3 48.75L39.37 48.75C39.45 49.17 39.55 49.61 39.67 50.09C39.79 50.57 39.92 51.06 40.06 51.55C40.2 52.05 40.35 52.54 40.5 53.03C40.65 53.52 40.81 53.98 40.97 54.42C41.11 54.06 41.26 53.65 41.41 53.18C41.56 52.7 41.71 52.21 41.86 51.7C42.01 51.19 42.15 50.68 42.28 50.17C42.41 49.66 42.52 49.18 42.61 48.75L43.95 48.75C43.59 50.17 43.2 51.49 42.79 52.72C42.38 53.94 41.97 55.03 41.54 55.99L40.41 55.99Z" />
				<path id="Path 8369" fill-rule="evenodd" class="shp2" d="M51.47 52.2C51.47 52.78 51.39 53.3 51.22 53.76C51.05 54.23 50.82 54.63 50.52 54.96C50.21 55.29 49.85 55.55 49.44 55.73C49.02 55.92 48.56 56.01 48.07 56.01C47.58 56.01 47.12 55.92 46.71 55.73C46.29 55.55 45.93 55.29 45.63 54.96C45.32 54.63 45.09 54.23 44.92 53.76C44.76 53.3 44.67 52.78 44.67 52.2C44.67 51.64 44.76 51.12 44.92 50.65C45.09 50.18 45.32 49.78 45.63 49.44C45.93 49.11 46.29 48.85 46.71 48.67C47.12 48.49 47.58 48.4 48.07 48.4C48.56 48.4 49.02 48.49 49.44 48.67C49.85 48.85 50.21 49.11 50.52 49.44C50.82 49.78 51.05 50.18 51.22 50.65C51.39 51.12 51.47 51.64 51.47 52.2ZM50.12 52.2C50.12 51.38 49.94 50.74 49.57 50.26C49.2 49.78 48.7 49.54 48.07 49.54C47.44 49.54 46.94 49.78 46.57 50.26C46.21 50.74 46.02 51.38 46.02 52.2C46.02 53.02 46.21 53.67 46.57 54.14C46.94 54.62 47.44 54.86 48.07 54.86C48.7 54.86 49.2 54.62 49.57 54.14C49.94 53.67 50.12 53.02 50.12 52.2Z" />
				<path id="Path 8370" class="shp2" d="M53.87 47.44C53.63 47.44 53.44 47.36 53.27 47.21C53.11 47.05 53.03 46.85 53.03 46.59C53.03 46.33 53.11 46.12 53.27 45.97C53.44 45.82 53.63 45.74 53.87 45.74C54.1 45.74 54.3 45.82 54.46 45.97C54.62 46.12 54.7 46.33 54.7 46.59C54.7 46.85 54.62 47.05 54.46 47.21C54.3 47.36 54.1 47.44 53.87 47.44ZM52.04 58.6C51.93 58.6 51.79 58.58 51.61 58.55C51.43 58.53 51.29 58.49 51.16 58.44L51.33 57.38C51.42 57.41 51.53 57.44 51.65 57.45C51.77 57.47 51.88 57.48 51.99 57.48C52.43 57.48 52.75 57.34 52.94 57.07C53.13 56.8 53.22 56.39 53.22 55.86L53.22 48.75L54.52 48.75L54.52 55.85C54.52 56.78 54.31 57.47 53.89 57.92C53.46 58.37 52.85 58.6 52.04 58.6Z" />
				<path id="Path 8371" class="shp2" d="M62.45 55.63C62.15 55.7 61.76 55.78 61.27 55.87C60.78 55.95 60.22 55.99 59.58 55.99C59.02 55.99 58.55 55.91 58.17 55.75C57.79 55.58 57.48 55.36 57.25 55.06C57.02 54.76 56.85 54.41 56.75 54.01C56.65 53.6 56.6 53.15 56.6 52.66L56.6 48.6L57.89 48.6L57.89 52.38C57.89 53.27 58.03 53.9 58.31 54.28C58.59 54.66 59.06 54.85 59.72 54.85C59.86 54.85 60 54.85 60.15 54.83C60.3 54.82 60.44 54.81 60.57 54.8C60.7 54.79 60.82 54.77 60.92 54.76C61.03 54.74 61.1 54.73 61.15 54.71L61.15 48.6L62.45 48.6L62.45 55.63Z" />
				<path id="Path 8372" fill-rule="evenodd" class="shp2" d="M72.56 51.95C72.71 52.14 72.9 52.38 73.12 52.69C73.35 52.99 73.58 53.32 73.83 53.69C74.07 54.05 74.31 54.44 74.54 54.84C74.78 55.24 74.98 55.62 75.15 55.99L73.67 55.99C73.49 55.64 73.29 55.28 73.07 54.92C72.85 54.56 72.63 54.21 72.41 53.88C72.18 53.55 71.96 53.24 71.75 52.96C71.53 52.67 71.33 52.42 71.15 52.2C71.03 52.21 70.91 52.22 70.78 52.22L69.19 52.22L69.19 55.99L67.84 55.99L67.84 46.48C68.22 46.39 68.64 46.32 69.11 46.29C69.58 46.26 70.01 46.24 70.4 46.24C71.75 46.24 72.79 46.5 73.5 47.01C74.21 47.52 74.56 48.28 74.56 49.29C74.56 49.93 74.4 50.48 74.06 50.94C73.72 51.39 73.22 51.73 72.56 51.95ZM70.51 47.43C69.94 47.43 69.49 47.44 69.19 47.47L69.19 51.1L70.15 51.1C70.61 51.1 71.03 51.08 71.4 51.03C71.77 50.99 72.09 50.9 72.34 50.77C72.6 50.64 72.79 50.46 72.93 50.22C73.07 49.98 73.14 49.67 73.14 49.28C73.14 48.92 73.07 48.61 72.93 48.37C72.79 48.13 72.61 47.94 72.37 47.8C72.13 47.66 71.86 47.56 71.53 47.51C71.21 47.45 70.87 47.43 70.51 47.43Z" />
				<path id="Path 8373" fill-rule="evenodd" class="shp2" d="M76.04 52.22C76.04 51.58 76.13 51.01 76.32 50.54C76.5 50.06 76.75 49.66 77.06 49.35C77.36 49.03 77.72 48.79 78.11 48.64C78.51 48.48 78.92 48.4 79.34 48.4C80.32 48.4 81.06 48.7 81.58 49.31C82.1 49.92 82.36 50.85 82.36 52.09L82.36 52.31C82.36 52.39 82.36 52.47 82.35 52.55L77.39 52.55C77.45 53.3 77.66 53.87 78.05 54.26C78.43 54.65 79.02 54.85 79.83 54.85C80.28 54.85 80.67 54.81 80.98 54.73C81.29 54.65 81.52 54.57 81.68 54.5L81.86 55.59C81.71 55.67 81.43 55.76 81.03 55.85C80.64 55.95 80.19 55.99 79.69 55.99C79.06 55.99 78.51 55.89 78.05 55.7C77.59 55.52 77.21 55.25 76.92 54.92C76.62 54.58 76.4 54.19 76.26 53.73C76.11 53.27 76.04 52.76 76.04 52.22ZM81.01 51.51C81.02 50.92 80.88 50.44 80.57 50.06C80.27 49.69 79.86 49.5 79.33 49.5C79.03 49.5 78.77 49.56 78.54 49.67C78.31 49.79 78.12 49.94 77.96 50.13C77.81 50.31 77.68 50.52 77.59 50.77C77.5 51.01 77.45 51.25 77.42 51.51L81.01 51.51Z" />
				<path id="Path 8374" fill-rule="evenodd" class="shp2" d="M88.7 55.27C88.59 55.34 88.37 55.44 88.05 55.55C87.73 55.67 87.36 55.73 86.93 55.73C86.5 55.73 86.09 55.66 85.7 55.52C85.31 55.38 84.98 55.16 84.69 54.87C84.4 54.58 84.18 54.21 84.01 53.78C83.84 53.34 83.76 52.82 83.76 52.22C83.76 51.69 83.84 51.2 83.99 50.76C84.15 50.32 84.38 49.94 84.68 49.62C84.98 49.3 85.35 49.05 85.79 48.87C86.23 48.69 86.72 48.6 87.27 48.6C87.87 48.6 88.4 48.64 88.85 48.73C89.3 48.82 89.68 48.9 89.98 48.97L89.98 55.43C89.98 56.55 89.7 57.36 89.12 57.86C88.54 58.36 87.67 58.61 86.5 58.61C86.05 58.61 85.62 58.57 85.21 58.5C84.81 58.42 84.46 58.34 84.16 58.23L84.4 57.11C84.66 57.21 84.97 57.3 85.35 57.38C85.73 57.46 86.12 57.5 86.53 57.5C87.3 57.5 87.85 57.34 88.19 57.04C88.53 56.73 88.7 56.24 88.7 55.58L88.7 55.27ZM88.69 49.89C88.56 49.85 88.38 49.82 88.17 49.79C87.95 49.76 87.65 49.74 87.28 49.74C86.59 49.74 86.05 49.97 85.67 50.42C85.3 50.88 85.11 51.48 85.11 52.23C85.11 52.65 85.16 53.01 85.27 53.3C85.37 53.6 85.52 53.85 85.7 54.04C85.88 54.24 86.09 54.38 86.33 54.47C86.56 54.57 86.81 54.61 87.06 54.61C87.4 54.61 87.72 54.57 88.01 54.47C88.29 54.37 88.52 54.26 88.69 54.13L88.69 49.89Z" />
				<path id="Path 8375" class="shp2" d="M93.44 55.99L92.14 55.99L92.14 48.75L93.44 48.75L93.44 55.99ZM92.78 47.44C92.55 47.44 92.35 47.36 92.19 47.21C92.03 47.06 91.95 46.85 91.95 46.59C91.95 46.33 92.03 46.12 92.19 45.97C92.35 45.82 92.55 45.74 92.78 45.74C93.02 45.74 93.21 45.82 93.37 45.97C93.54 46.12 93.62 46.33 93.62 46.59C93.62 46.85 93.54 47.06 93.37 47.21C93.21 47.36 93.02 47.44 92.78 47.44Z" />
				<path id="Path 8376" fill-rule="evenodd" class="shp2" d="M101.99 52.2C101.99 52.78 101.91 53.3 101.74 53.76C101.57 54.23 101.34 54.63 101.04 54.96C100.73 55.29 100.37 55.55 99.96 55.73C99.54 55.92 99.08 56.01 98.59 56.01C98.1 56.01 97.64 55.92 97.23 55.73C96.81 55.55 96.45 55.29 96.15 54.96C95.84 54.63 95.61 54.23 95.44 53.76C95.28 53.3 95.19 52.78 95.19 52.2C95.19 51.64 95.28 51.12 95.44 50.65C95.61 50.18 95.84 49.78 96.15 49.44C96.45 49.11 96.81 48.85 97.23 48.67C97.64 48.49 98.1 48.4 98.59 48.4C99.08 48.4 99.54 48.49 99.96 48.67C100.37 48.85 100.73 49.11 101.04 49.44C101.34 49.78 101.57 50.18 101.74 50.65C101.91 51.12 101.99 51.64 101.99 52.2ZM100.64 52.2C100.64 51.38 100.46 50.74 100.09 50.26C99.72 49.78 99.22 49.54 98.59 49.54C97.96 49.54 97.46 49.78 97.09 50.26C96.73 50.74 96.54 51.38 96.54 52.2C96.54 53.02 96.73 53.67 97.09 54.14C97.46 54.62 97.96 54.86 98.59 54.86C99.22 54.86 99.72 54.62 100.09 54.14C100.46 53.67 100.64 53.02 100.64 52.2Z" />
				<path id="Path 8377" class="shp2" d="M103.74 48.96C104.04 48.88 104.43 48.81 104.93 48.72C105.42 48.64 105.99 48.6 106.63 48.6C107.2 48.6 107.68 48.68 108.06 48.84C108.44 49 108.75 49.23 108.97 49.52C109.2 49.82 109.36 50.17 109.46 50.57C109.55 50.98 109.59 51.43 109.59 51.92L109.59 55.99L108.3 55.99L108.3 52.2C108.3 51.76 108.27 51.38 108.21 51.06C108.15 50.75 108.05 50.49 107.91 50.3C107.77 50.1 107.58 49.96 107.35 49.87C107.12 49.78 106.83 49.74 106.49 49.74C106.35 49.74 106.2 49.74 106.06 49.75C105.91 49.76 105.77 49.77 105.63 49.79C105.5 49.8 105.37 49.82 105.27 49.84C105.16 49.85 105.09 49.87 105.04 49.88L105.04 55.99L103.74 55.99L103.74 48.96Z" />
				<path id="Path 8378" fill-rule="evenodd" class="shp2" d="M114.01 48.43C114.53 48.43 114.97 48.5 115.33 48.63C115.68 48.77 115.97 48.96 116.19 49.2C116.41 49.45 116.56 49.74 116.65 50.08C116.75 50.42 116.8 50.79 116.8 51.2L116.8 55.73L116.33 55.8C116.13 55.84 115.9 55.87 115.65 55.89C115.4 55.92 115.13 55.95 114.84 55.97C114.55 55.99 114.25 56.01 113.97 56.01C113.56 56.01 113.18 55.96 112.84 55.88C112.5 55.8 112.2 55.67 111.95 55.48C111.7 55.3 111.5 55.06 111.36 54.77C111.22 54.47 111.15 54.11 111.15 53.69C111.15 53.29 111.23 52.95 111.4 52.66C111.56 52.38 111.78 52.14 112.06 51.97C112.34 51.79 112.66 51.66 113.03 51.58C113.41 51.49 113.79 51.45 114.2 51.45C114.33 51.45 114.47 51.46 114.61 51.47C114.75 51.49 114.88 51.5 115.01 51.53C115.13 51.55 115.24 51.57 115.33 51.59C115.43 51.61 115.49 51.62 115.53 51.63L115.53 51.27C115.53 51.06 115.5 50.85 115.46 50.64C115.41 50.43 115.33 50.24 115.21 50.08C115.09 49.92 114.92 49.79 114.71 49.69C114.5 49.59 114.23 49.54 113.9 49.54C113.47 49.54 113.1 49.57 112.78 49.63C112.46 49.7 112.22 49.76 112.06 49.82L111.91 48.75C112.07 48.67 112.35 48.6 112.74 48.53C113.13 48.46 113.55 48.43 114.01 48.43ZM114.12 54.92C114.43 54.92 114.7 54.91 114.94 54.9C115.17 54.88 115.37 54.86 115.53 54.82L115.53 52.66C115.43 52.62 115.28 52.58 115.07 52.54C114.87 52.51 114.61 52.5 114.32 52.5C114.12 52.5 113.91 52.51 113.69 52.54C113.48 52.56 113.28 52.62 113.1 52.71C112.92 52.8 112.76 52.92 112.64 53.07C112.52 53.23 112.46 53.43 112.46 53.68C112.46 54.14 112.61 54.47 112.91 54.65C113.21 54.83 113.61 54.92 114.12 54.92Z" />
				<path id="Path 8379" class="shp2" d="M121.04 55.99C120.25 55.97 119.68 55.8 119.34 55.48C119.01 55.15 118.85 54.64 118.85 53.96L118.85 45.27L120.14 45.04L120.14 53.75C120.14 53.96 120.16 54.14 120.19 54.28C120.23 54.42 120.29 54.53 120.38 54.61C120.46 54.7 120.57 54.76 120.71 54.8C120.85 54.84 121.02 54.88 121.23 54.91L121.04 55.99Z" />
				<path id="Path 8380" class="shp2" d="M122.6 48.96C122.9 48.88 123.29 48.81 123.79 48.72C124.28 48.64 124.85 48.6 125.49 48.6C126.06 48.6 126.54 48.68 126.92 48.84C127.3 49 127.61 49.23 127.84 49.52C128.06 49.82 128.22 50.17 128.32 50.57C128.41 50.98 128.45 51.43 128.45 51.92L128.45 55.99L127.16 55.99L127.16 52.2C127.16 51.76 127.13 51.38 127.07 51.06C127.01 50.75 126.91 50.49 126.77 50.3C126.63 50.1 126.44 49.96 126.21 49.87C125.98 49.78 125.69 49.74 125.35 49.74C125.21 49.74 125.06 49.74 124.92 49.75C124.77 49.76 124.63 49.77 124.49 49.79C124.36 49.8 124.24 49.82 124.13 49.84C124.02 49.85 123.95 49.87 123.9 49.88L123.9 55.99L122.6 55.99L122.6 48.96Z" />
				<path id="Path 8381" fill-rule="evenodd" class="shp2" d="M130.13 52.22C130.13 51.58 130.22 51.01 130.4 50.54C130.59 50.06 130.83 49.66 131.14 49.35C131.45 49.03 131.8 48.79 132.2 48.64C132.6 48.48 133.01 48.4 133.43 48.4C134.4 48.4 135.15 48.7 135.67 49.31C136.19 49.92 136.45 50.85 136.45 52.09L136.45 52.31C136.45 52.39 136.44 52.47 136.44 52.55L131.48 52.55C131.53 53.3 131.75 53.87 132.13 54.26C132.51 54.65 133.11 54.85 133.91 54.85C134.37 54.85 134.75 54.81 135.06 54.73C135.37 54.65 135.61 54.57 135.77 54.5L135.95 55.59C135.79 55.67 135.51 55.76 135.12 55.85C134.72 55.95 134.28 55.99 133.78 55.99C133.14 55.99 132.6 55.89 132.14 55.7C131.68 55.52 131.3 55.25 131 54.92C130.71 54.58 130.49 54.19 130.34 53.73C130.2 53.27 130.13 52.76 130.13 52.22ZM135.1 51.51C135.11 50.92 134.96 50.44 134.66 50.06C134.36 49.69 133.94 49.5 133.41 49.5C133.11 49.5 132.85 49.56 132.62 49.67C132.4 49.79 132.2 49.94 132.05 50.13C131.89 50.31 131.77 50.52 131.68 50.77C131.59 51.01 131.53 51.25 131.5 51.51L135.1 51.51Z" />
				<path id="Path 8382" fill-rule="evenodd" class="shp2" d="M142.79 55.27C142.68 55.34 142.46 55.44 142.14 55.55C141.82 55.67 141.44 55.73 141.02 55.73C140.58 55.73 140.17 55.66 139.79 55.52C139.4 55.38 139.06 55.16 138.78 54.87C138.49 54.58 138.26 54.21 138.09 53.78C137.93 53.34 137.84 52.82 137.84 52.22C137.84 51.69 137.92 51.2 138.08 50.76C138.24 50.32 138.47 49.94 138.77 49.62C139.07 49.3 139.44 49.05 139.88 48.87C140.31 48.69 140.8 48.6 141.35 48.6C141.95 48.6 142.48 48.64 142.93 48.73C143.38 48.82 143.76 48.9 144.07 48.97L144.07 55.43C144.07 56.55 143.78 57.36 143.21 57.86C142.63 58.36 141.76 58.61 140.59 58.61C140.13 58.61 139.7 58.57 139.3 58.5C138.89 58.42 138.54 58.34 138.25 58.23L138.48 57.11C138.74 57.21 139.06 57.3 139.44 57.38C139.81 57.46 140.21 57.5 140.62 57.5C141.38 57.5 141.94 57.34 142.28 57.04C142.62 56.73 142.79 56.24 142.79 55.58L142.79 55.27ZM142.77 49.89C142.64 49.85 142.47 49.82 142.25 49.79C142.03 49.76 141.74 49.74 141.37 49.74C140.67 49.74 140.13 49.97 139.76 50.42C139.38 50.88 139.19 51.48 139.19 52.23C139.19 52.65 139.25 53.01 139.35 53.3C139.46 53.6 139.61 53.85 139.79 54.04C139.97 54.24 140.18 54.38 140.41 54.47C140.65 54.57 140.89 54.61 141.14 54.61C141.49 54.61 141.8 54.57 142.09 54.47C142.38 54.37 142.61 54.26 142.77 54.13L142.77 49.89Z" />
				<path id="Path 8383" fill-rule="evenodd" class="shp2" d="M152.62 52.2C152.62 52.78 152.54 53.3 152.37 53.76C152.2 54.23 151.97 54.63 151.67 54.96C151.36 55.29 151.01 55.55 150.59 55.73C150.17 55.92 149.71 56.01 149.22 56.01C148.73 56.01 148.27 55.92 147.86 55.73C147.44 55.55 147.08 55.29 146.78 54.96C146.48 54.63 146.24 54.23 146.07 53.76C145.91 53.3 145.82 52.78 145.82 52.2C145.82 51.64 145.91 51.12 146.07 50.65C146.24 50.18 146.48 49.78 146.78 49.44C147.08 49.11 147.44 48.85 147.86 48.67C148.27 48.49 148.73 48.4 149.22 48.4C149.71 48.4 150.17 48.49 150.59 48.67C151.01 48.85 151.36 49.11 151.67 49.44C151.97 49.78 152.2 50.18 152.37 50.65C152.54 51.12 152.62 51.64 152.62 52.2ZM151.27 52.2C151.27 51.38 151.09 50.74 150.72 50.26C150.35 49.78 149.85 49.54 149.22 49.54C148.59 49.54 148.09 49.78 147.72 50.26C147.36 50.74 147.17 51.38 147.17 52.2C147.17 53.02 147.36 53.67 147.72 54.14C148.09 54.62 148.59 54.86 149.22 54.86C149.85 54.86 150.35 54.62 150.72 54.14C151.09 53.67 151.27 53.02 151.27 52.2Z" />
				<path id="Path 8384" class="shp2" d="M5.87 19.45C4.88 19.45 4.02 19.31 3.3 19.02C2.58 18.73 1.99 18.33 1.52 17.81C1.04 17.29 0.7 16.67 0.47 15.97C0.25 15.27 0.13 14.49 0.13 13.65L0.13 4.51L2.81 4.51L2.81 13.39C2.81 14.06 2.89 14.62 3.03 15.09C3.18 15.57 3.39 15.95 3.67 16.25C3.94 16.54 4.27 16.76 4.64 16.9C5.01 17.04 5.43 17.11 5.89 17.11C6.36 17.11 6.78 17.04 7.16 16.9C7.54 16.76 7.87 16.54 8.14 16.25C8.42 15.95 8.63 15.57 8.78 15.09C8.92 14.62 9 14.06 9 13.39L9 4.51L11.68 4.51L11.68 13.65C11.68 14.49 11.56 15.27 11.33 15.97C11.1 16.67 10.75 17.29 10.28 17.81C9.8 18.33 9.2 18.73 8.47 19.02C7.74 19.31 6.87 19.45 5.87 19.45Z" />
				<path id="Path 8385" class="shp2" d="M14.82 8.75C15.31 8.61 15.95 8.48 16.74 8.35C17.53 8.23 18.4 8.16 19.36 8.16C20.26 8.16 21.01 8.28 21.62 8.53C22.22 8.78 22.71 9.12 23.06 9.57C23.42 10.01 23.68 10.54 23.82 11.17C23.97 11.8 24.05 12.48 24.05 13.23L24.05 19.43L21.49 19.43L21.49 13.63C21.49 13.04 21.45 12.53 21.38 12.12C21.3 11.7 21.17 11.37 21 11.11C20.82 10.85 20.58 10.66 20.28 10.54C19.97 10.42 19.61 10.36 19.17 10.36C18.85 10.36 18.51 10.38 18.16 10.42C17.81 10.46 17.55 10.5 17.38 10.52L17.38 19.43L14.82 19.43L14.82 8.75Z" />
				<path id="Path 8386" class="shp2" d="M29.62 19.43L27.06 19.43L27.06 8.39L29.62 8.39L29.62 19.43ZM29.89 5.16C29.89 5.64 29.74 6.02 29.43 6.3C29.12 6.59 28.75 6.73 28.33 6.73C27.89 6.73 27.52 6.59 27.21 6.3C26.9 6.02 26.75 5.64 26.75 5.16C26.75 4.67 26.9 4.28 27.21 4C27.52 3.72 27.89 3.58 28.33 3.58C28.75 3.58 29.12 3.72 29.43 4C29.74 4.28 29.89 4.67 29.89 5.16Z" />
				<path id="Path 8387" fill-rule="evenodd" class="shp2" d="M36.41 7.91C37.26 7.91 37.97 8.01 38.55 8.22C39.12 8.43 39.58 8.73 39.93 9.11C40.27 9.49 40.52 9.95 40.67 10.49C40.82 11.04 40.89 11.63 40.89 12.28L40.89 18.97C40.49 19.05 39.9 19.15 39.11 19.27C38.31 19.39 37.41 19.45 36.41 19.45C35.75 19.45 35.15 19.39 34.6 19.26C34.05 19.14 33.58 18.93 33.2 18.65C32.81 18.37 32.51 18 32.29 17.55C32.07 17.1 31.96 16.55 31.96 15.88C31.96 15.25 32.08 14.72 32.33 14.28C32.58 13.84 32.91 13.49 33.33 13.21C33.76 12.94 34.24 12.75 34.8 12.62C35.36 12.5 35.94 12.44 36.54 12.44C36.82 12.44 37.12 12.46 37.43 12.5C37.74 12.53 38.07 12.59 38.42 12.68L38.42 12.26C38.42 11.96 38.39 11.68 38.31 11.41C38.24 11.14 38.12 10.91 37.94 10.7C37.77 10.5 37.54 10.34 37.25 10.23C36.96 10.12 36.6 10.06 36.16 10.06C35.57 10.06 35.03 10.1 34.54 10.19C34.04 10.27 33.64 10.37 33.33 10.48L33.02 8.41C33.34 8.3 33.81 8.19 34.43 8.08C35.05 7.96 35.71 7.91 36.41 7.91ZM36.62 17.43C37.41 17.43 38.01 17.38 38.42 17.3L38.42 14.47C38.28 14.43 38.07 14.39 37.81 14.34C37.54 14.3 37.24 14.28 36.92 14.28C36.64 14.28 36.35 14.3 36.07 14.34C35.78 14.39 35.52 14.46 35.28 14.58C35.05 14.69 34.87 14.85 34.73 15.05C34.58 15.26 34.52 15.51 34.52 15.82C34.52 16.43 34.7 16.85 35.08 17.08C35.46 17.31 35.98 17.43 36.62 17.43Z" />
				<path id="Path 8388" class="shp2" d="M48.8 19.43L48.8 4.8L58.2 4.8L58.2 7.06L51.46 7.06L51.46 10.67L57.46 10.67L57.46 12.89L51.46 12.89L51.46 17.17L58.7 17.17L58.7 19.43L48.8 19.43Z" />
				<path id="Path 8389" class="shp2" d="M69.61 18.86C69.12 18.99 68.48 19.12 67.69 19.25C66.91 19.39 66.04 19.45 65.1 19.45C64.21 19.45 63.47 19.33 62.87 19.07C62.27 18.82 61.79 18.47 61.44 18.02C61.08 17.57 60.82 17.03 60.67 16.4C60.51 15.78 60.43 15.09 60.43 14.34L60.43 8.16L62.99 8.16L62.99 13.94C62.99 15.12 63.16 15.97 63.5 16.48C63.85 16.98 64.45 17.23 65.31 17.23C65.62 17.23 65.95 17.22 66.29 17.19C66.64 17.17 66.89 17.13 67.06 17.09L67.06 8.16L69.61 8.16L69.61 18.86Z" />
				<path id="Path 8390" class="shp2" d="M79.03 10.69C78.82 10.62 78.52 10.55 78.15 10.47C77.78 10.4 77.35 10.36 76.85 10.36C76.57 10.36 76.27 10.38 75.96 10.44C75.64 10.5 75.42 10.55 75.29 10.59L75.29 19.43L72.74 19.43L72.74 8.92C73.23 8.74 73.85 8.57 74.58 8.4C75.32 8.24 76.14 8.16 77.04 8.16C77.21 8.16 77.41 8.17 77.63 8.19C77.86 8.21 78.09 8.24 78.31 8.28C78.54 8.31 78.75 8.35 78.97 8.4C79.18 8.45 79.34 8.5 79.47 8.54L79.03 10.69Z" />
				<path id="Path 8391" fill-rule="evenodd" class="shp2" d="M91.1 13.63C91.1 14.5 90.97 15.3 90.72 16.01C90.47 16.73 90.11 17.34 89.65 17.85C89.18 18.35 88.62 18.75 87.96 19.03C87.31 19.31 86.59 19.45 85.8 19.45C85.02 19.45 84.3 19.31 83.65 19.03C83 18.75 82.45 18.35 81.98 17.85C81.52 17.34 81.16 16.73 80.89 16.01C80.64 15.3 80.5 14.5 80.5 13.63C80.5 12.75 80.64 11.96 80.89 11.25C81.16 10.54 81.52 9.93 81.99 9.43C82.47 8.92 83.02 8.53 83.67 8.26C84.32 7.98 85.03 7.84 85.8 7.84C86.58 7.84 87.29 7.98 87.94 8.26C88.6 8.53 89.16 8.92 89.63 9.43C90.09 9.93 90.45 10.54 90.71 11.25C90.97 11.96 91.1 12.75 91.1 13.63ZM88.48 13.63C88.48 12.53 88.25 11.66 87.78 11.02C87.31 10.38 86.65 10.06 85.8 10.06C84.96 10.06 84.3 10.38 83.83 11.02C83.36 11.66 83.12 12.53 83.12 13.63C83.12 14.74 83.36 15.62 83.83 16.27C84.3 16.91 84.96 17.24 85.8 17.24C86.65 17.24 87.31 16.91 87.78 16.27C88.25 15.62 88.48 14.74 88.48 13.63Z" />
				<path id="Path 8392" fill-rule="evenodd" class="shp2" d="M103.55 13.92C103.55 14.77 103.45 15.54 103.23 16.25C103.01 16.95 102.7 17.55 102.29 18.06C101.88 18.57 101.37 18.96 100.76 19.24C100.15 19.52 99.45 19.67 98.68 19.67C98.16 19.67 97.68 19.6 97.24 19.48C96.81 19.35 96.45 19.21 96.17 19.05L96.17 23.34L93.61 23.34L93.61 8.75C94.13 8.61 94.77 8.48 95.53 8.35C96.29 8.23 97.1 8.16 97.94 8.16C98.81 8.16 99.59 8.29 100.28 8.56C100.97 8.83 101.56 9.21 102.05 9.71C102.53 10.21 102.9 10.82 103.16 11.53C103.42 12.24 103.55 13.04 103.55 13.92ZM100.94 13.97C100.94 12.83 100.68 11.94 100.17 11.31C99.65 10.67 98.83 10.36 97.69 10.36C97.45 10.36 97.2 10.37 96.94 10.39C96.68 10.41 96.42 10.46 96.17 10.52L96.17 16.84C96.39 16.99 96.69 17.14 97.06 17.27C97.44 17.4 97.84 17.47 98.26 17.47C99.18 17.47 99.86 17.15 100.29 16.52C100.72 15.89 100.94 15.03 100.94 13.97Z" />
				<path id="Path 8393" fill-rule="evenodd" class="shp2" d="M105.45 13.71C105.45 12.74 105.6 11.89 105.89 11.16C106.17 10.43 106.56 9.82 107.04 9.33C107.51 8.84 108.06 8.48 108.68 8.23C109.3 7.99 109.94 7.87 110.58 7.87C112.1 7.87 113.29 8.34 114.14 9.28C114.99 10.22 115.42 11.63 115.42 13.5C115.42 13.64 115.41 13.8 115.4 13.97C115.4 14.15 115.39 14.31 115.37 14.45L108.09 14.45C108.16 15.33 108.48 16.02 109.03 16.51C109.59 16.99 110.39 17.23 111.45 17.23C112.07 17.23 112.63 17.18 113.15 17.07C113.66 16.96 114.06 16.83 114.36 16.71L114.7 18.8C114.56 18.87 114.36 18.94 114.12 19.02C113.87 19.1 113.59 19.17 113.27 19.23C112.96 19.29 112.62 19.35 112.25 19.39C111.88 19.43 111.51 19.45 111.13 19.45C110.16 19.45 109.32 19.31 108.6 19.02C107.88 18.73 107.29 18.33 106.83 17.82C106.36 17.3 106.01 16.7 105.79 16C105.57 15.31 105.45 14.54 105.45 13.71ZM112.86 12.57C112.86 12.22 112.81 11.89 112.72 11.57C112.62 11.25 112.47 10.98 112.28 10.75C112.09 10.51 111.86 10.33 111.59 10.2C111.31 10.06 110.98 10 110.6 10C110.21 10 109.86 10.07 109.57 10.22C109.27 10.37 109.02 10.56 108.82 10.8C108.62 11.04 108.46 11.31 108.35 11.62C108.23 11.93 108.15 12.25 108.11 12.57L112.86 12.57Z" />
				<path id="Path 8394" class="shp2" d="M120.82 5.16C120.82 5.64 120.66 6.02 120.35 6.3C120.04 6.59 119.68 6.73 119.26 6.73C118.82 6.73 118.45 6.59 118.14 6.3C117.83 6.02 117.67 5.64 117.67 5.16C117.67 4.67 117.83 4.28 118.14 4C118.45 3.72 118.82 3.58 119.26 3.58C119.68 3.58 120.04 3.72 120.35 4C120.66 4.28 120.82 4.67 120.82 5.16ZM116.58 23.36C116.39 23.36 116.14 23.34 115.81 23.3C115.48 23.27 115.18 23.2 114.93 23.1L115.27 21.01C115.58 21.11 115.95 21.16 116.39 21.16C116.98 21.16 117.39 20.99 117.63 20.64C117.87 20.3 117.99 19.78 117.99 19.09L117.99 8.39L120.54 8.39L120.54 19.14C120.54 20.57 120.2 21.63 119.52 22.32C118.84 23.01 117.86 23.36 116.58 23.36Z" />
				<path id="Path 8395" class="shp2" d="M126.43 17.34C127.11 17.34 127.6 17.26 127.91 17.1C128.22 16.94 128.37 16.66 128.37 16.26C128.37 15.9 128.21 15.6 127.88 15.36C127.55 15.12 127 14.86 126.24 14.58C125.78 14.41 125.35 14.23 124.97 14.04C124.58 13.85 124.24 13.63 123.96 13.37C123.68 13.12 123.46 12.81 123.3 12.45C123.14 12.1 123.05 11.66 123.05 11.13C123.05 10.12 123.43 9.32 124.18 8.74C124.92 8.16 125.93 7.86 127.21 7.86C127.86 7.86 128.48 7.92 129.07 8.04C129.66 8.16 130.11 8.28 130.4 8.39L129.94 10.46C129.66 10.33 129.3 10.22 128.86 10.11C128.42 10.01 127.92 9.95 127.34 9.95C126.82 9.95 126.4 10.04 126.07 10.22C125.75 10.39 125.59 10.66 125.59 11.03C125.59 11.21 125.62 11.37 125.68 11.52C125.75 11.66 125.85 11.79 126.01 11.91C126.16 12.02 126.37 12.14 126.62 12.26C126.88 12.38 127.19 12.51 127.55 12.63C128.16 12.86 128.67 13.08 129.09 13.3C129.52 13.52 129.86 13.76 130.14 14.04C130.41 14.31 130.61 14.63 130.74 14.98C130.86 15.33 130.93 15.75 130.93 16.24C130.93 17.3 130.54 18.1 129.76 18.64C128.98 19.18 127.86 19.45 126.41 19.45C125.44 19.45 124.66 19.37 124.07 19.21C123.48 19.05 123.06 18.92 122.82 18.82L123.27 16.69C123.65 16.84 124.1 16.99 124.63 17.13C125.16 17.27 125.76 17.34 126.43 17.34Z" />
				<path id="Path 8396" class="shp2" d="M135.74 12.7C136.06 12.36 136.41 12 136.77 11.61C137.14 11.22 137.5 10.84 137.85 10.45C138.2 10.07 138.54 9.69 138.85 9.33C139.17 8.97 139.44 8.66 139.67 8.39L142.68 8.39C141.98 9.18 141.24 10 140.46 10.84C139.68 11.69 138.89 12.51 138.1 13.31C138.53 13.66 138.97 14.09 139.43 14.59C139.9 15.09 140.35 15.62 140.78 16.18C141.22 16.74 141.63 17.31 142.01 17.87C142.39 18.43 142.71 18.95 142.96 19.43L140 19.43C139.75 19 139.46 18.54 139.13 18.06C138.8 17.58 138.44 17.12 138.06 16.67C137.68 16.22 137.29 15.79 136.9 15.39C136.51 14.99 136.12 14.65 135.74 14.37L135.74 19.43L133.19 19.43L133.19 5.23L135.74 4.81L135.74 12.7Z" />
				<path id="Path 8397" fill-rule="evenodd" class="shp2" d="M148.36 7.91C149.21 7.91 149.92 8.01 150.49 8.22C151.07 8.43 151.53 8.73 151.88 9.11C152.22 9.49 152.47 9.95 152.62 10.49C152.76 11.04 152.84 11.63 152.84 12.28L152.84 18.97C152.44 19.05 151.85 19.15 151.05 19.27C150.26 19.39 149.36 19.45 148.36 19.45C147.7 19.45 147.1 19.39 146.55 19.26C146 19.14 145.53 18.93 145.14 18.65C144.76 18.37 144.45 18 144.24 17.55C144.02 17.1 143.91 16.55 143.91 15.88C143.91 15.25 144.03 14.72 144.28 14.28C144.52 13.84 144.86 13.49 145.28 13.21C145.7 12.94 146.19 12.75 146.75 12.62C147.3 12.5 147.88 12.44 148.49 12.44C148.77 12.44 149.06 12.46 149.37 12.5C149.68 12.53 150.02 12.59 150.37 12.68L150.37 12.26C150.37 11.96 150.33 11.68 150.26 11.41C150.19 11.14 150.07 10.91 149.89 10.7C149.72 10.5 149.49 10.34 149.2 10.23C148.91 10.12 148.54 10.06 148.11 10.06C147.52 10.06 146.98 10.1 146.48 10.19C145.99 10.27 145.59 10.37 145.28 10.48L144.96 8.41C145.29 8.3 145.76 8.19 146.38 8.08C147 7.96 147.66 7.91 148.36 7.91ZM148.57 17.43C149.36 17.43 149.96 17.38 150.37 17.3L150.37 14.47C150.23 14.43 150.02 14.39 149.76 14.34C149.49 14.3 149.19 14.28 148.87 14.28C148.59 14.28 148.3 14.3 148.01 14.34C147.72 14.39 147.47 14.46 147.23 14.58C147 14.69 146.81 14.85 146.67 15.05C146.53 15.26 146.46 15.51 146.46 15.82C146.46 16.43 146.65 16.85 147.03 17.08C147.41 17.31 147.93 17.43 148.57 17.43Z" />
			</g>
		</g>
	</g>
</svg>