<svg xmlns="http://www.w3.org/2000/svg" viewBox="0 0 49 35" width="49" height="35">
	<defs>
		<clipPath clipPathUnits="userSpaceOnUse" id="cp1">
			<path d="M-1852 -1178L68 -1178L68 2055L-1852 2055Z" />
		</clipPath>
	</defs>
	<style>
		tspan { white-space:pre }
		.shp0 { fill: #ffffff } 
	</style>
	<g id="03_kontakt" clip-path="url(#cp1)">
		<g id="Group 6059">
			<path id="Path 8276" fill-rule="evenodd" class="shp0" d="M47.06 3.3C48.81 5.38 48.95 8.58 48.95 13.22L48.95 21.6C48.95 26.92 48.11 29.99 46.14 31.87C44.23 33.7 41.26 34.45 35.92 34.45L13.54 34.45C2.53 34.45 0.52 30.12 0.52 21.6L0.52 13.22C0.52 8.82 0.52 5.64 2.22 3.48C3.96 1.27 7.24 0.37 13.54 0.37L35.92 0.37C42.08 0.37 45.31 1.22 47.06 3.3ZM31.61 18.57C32.12 18.3 32.45 17.76 32.45 17.18C32.45 16.6 32.12 16.07 31.61 15.8L21.45 10.52C20.96 10.27 20.38 10.29 19.91 10.57C19.45 10.86 19.16 11.36 19.16 11.91L19.16 22.49C19.16 23.04 19.45 23.55 19.92 23.83C20.16 23.98 20.44 24.06 20.73 24.06C20.97 24.06 21.22 24 21.45 23.88L31.61 18.57Z" />
		</g>
	</g>
</svg>