<svg xmlns="http://www.w3.org/2000/svg" viewBox="0 0 29 21" width="29" height="21">
	<defs>
		<clipPath clipPathUnits="userSpaceOnUse" id="cp1">
			<path d="M-1622 -7470L298 -7470L298 163L-1622 163Z" />
		</clipPath>
	</defs>
	<style>
		tspan { white-space:pre }
		.shp0 { fill: #878787 } 
	</style>
	<g id="01a_strona_glowna" clip-path="url(#cp1)">
		<g id="Group 6062">
			<path id="Path 8276" fill-rule="evenodd" class="shp0" d="M27.51 2.7C28.53 3.92 28.61 5.77 28.61 8.47L28.61 13.35C28.61 16.44 28.12 18.22 26.98 19.32C25.86 20.39 24.14 20.82 21.03 20.82L8.02 20.82C1.62 20.82 0.45 18.3 0.45 13.35L0.45 8.47C0.45 5.91 0.45 4.07 1.43 2.81C2.45 1.52 4.35 1 8.02 1L21.03 1C24.62 1 26.49 1.49 27.51 2.7ZM18.53 11.58C18.83 11.43 19.01 11.12 19.01 10.78C19.01 10.44 18.82 10.13 18.52 9.97L12.62 6.9C12.33 6.76 12 6.77 11.73 6.93C11.45 7.1 11.29 7.39 11.29 7.71L11.29 13.87C11.29 14.18 11.45 14.48 11.73 14.64C11.87 14.73 12.03 14.77 12.2 14.77C12.34 14.77 12.49 14.74 12.62 14.67L18.53 11.58Z" />
		</g>
	</g>
</svg>