<svg xmlns="http://www.w3.org/2000/svg" viewBox="0 0 51 39" width="51" height="39">
	<defs>
		<clipPath clipPathUnits="userSpaceOnUse" id="cp1">
			<path d="M-950 -1184L970 -1184L970 2049L-950 2049Z" />
		</clipPath>
	</defs>
	<style>
		tspan { white-space:pre }
		.shp0 { fill: #033d2e } 
	</style>
	<g id="03_kontakt" clip-path="url(#cp1)">
		<path id="Union 68" fill-rule="evenodd" class="shp0" d="M6.79 38.06C3.42 38.06 0.68 35.32 0.68 31.95L0.68 6.12C0.68 2.75 3.42 0.01 6.79 0.01L44.57 0.01C47.95 0.01 50.68 2.76 50.68 6.13L50.68 31.95C50.68 35.32 47.94 38.06 44.56 38.06L6.79 38.06ZM3.47 6.13L3.47 31.95C3.47 33.78 4.96 35.27 6.79 35.27L44.57 35.27C46.4 35.27 47.89 33.78 47.89 31.95L47.88 31.95L47.88 6.13C47.88 4.3 46.39 2.81 44.56 2.81L6.79 2.81C4.96 2.81 3.47 4.3 3.47 6.13ZM42.57 32.4L30.13 20.59L26.64 23.71C26.39 23.95 26.04 24.07 25.71 24.07C25.38 24.07 25.05 23.96 24.78 23.72L21.39 20.69L8.88 32.39C8.61 32.64 8.27 32.76 7.93 32.76C7.56 32.76 7.18 32.61 6.9 32.32C6.37 31.75 6.41 30.87 6.97 30.34L19.29 18.81L6.92 7.75C6.33 7.23 6.28 6.35 6.8 5.77C7.32 5.19 8.2 5.14 8.78 5.66L22.16 17.64C22.25 17.7 22.32 17.76 22.39 17.84C22.39 17.85 22.4 17.86 22.41 17.87L25.7 20.8L42.57 5.67C43.15 5.15 44.02 5.2 44.54 5.77C45.06 6.35 45.01 7.23 44.44 7.75L32.21 18.71L44.49 30.37C45.05 30.9 45.07 31.79 44.54 32.35C44.26 32.64 43.9 32.78 43.53 32.78C43.18 32.78 42.83 32.66 42.57 32.4Z" />
	</g>
</svg>