<svg xmlns="http://www.w3.org/2000/svg" viewBox="0 0 50 51" width="50" height="51">
	<defs>
		<clipPath clipPathUnits="userSpaceOnUse" id="cp1">
			<path d="M-597 -1177L1323 -1177L1323 2056L-597 2056Z" />
		</clipPath>
	</defs>
	<style>
		tspan { white-space:pre }
		.shp0 { fill: #033d2e } 
	</style>
	<g id="03_kontakt" clip-path="url(#cp1)">
		<g id="Group 5202">
			<path id="Union 67" fill-rule="evenodd" class="shp0" d="M35.29 50.93C31.67 50.7 28.43 49.34 26 48.19C19.65 45.12 14.09 40.76 9.47 35.24C5.66 30.66 3.11 26.39 1.39 21.78C0.7 19.9 -0.21 17.03 0.04 13.95C0.21 12.04 0.98 10.39 2.33 9.04L5.92 5.42C5.93 5.41 5.93 5.41 5.94 5.4C7 4.39 8.24 3.85 9.53 3.85C10.82 3.85 12.04 4.39 13.07 5.4C13.75 6.03 14.42 6.71 15.05 7.36C15.37 7.7 15.7 8.04 16.03 8.36L18.91 11.24C21.13 13.46 21.13 16.33 18.91 18.55C18.62 18.84 18.32 19.15 18.02 19.44C17.24 20.24 16.44 21.06 15.58 21.85C16.22 23.28 17.11 24.68 18.43 26.35C21.15 29.69 23.99 32.28 27.11 34.26C27.42 34.45 27.78 34.63 28.16 34.82C28.42 34.96 28.69 35.09 28.97 35.24L32.3 31.92C33.37 30.85 34.62 30.29 35.91 30.29C37.22 30.29 38.46 30.86 39.48 31.93L45.27 37.74C46.34 38.8 46.9 40.05 46.9 41.36C46.9 42.66 46.35 43.93 45.31 45.01C44.85 45.49 44.39 45.94 43.93 46.38C43.27 47.02 42.64 47.62 42.09 48.29C42.08 48.31 42.05 48.32 42.04 48.34C40.44 50.08 38.39 50.96 35.95 50.96C35.74 50.96 35.51 50.94 35.29 50.93ZM7.95 7.45L4.35 11.04C3.47 11.92 3 12.94 2.89 14.18C2.73 16.11 3.09 18.16 4.07 20.78C5.67 25.09 8.07 29.1 11.67 33.44C16.03 38.64 21.27 42.75 27.25 45.64C29.43 46.68 32.35 47.91 35.48 48.11C35.64 48.12 35.81 48.12 35.97 48.12C37.61 48.12 38.87 47.58 39.93 46.44C40.59 45.67 41.28 44.98 41.97 44.33C42.42 43.89 42.84 43.49 43.25 43.04C43.26 43.04 43.26 43.04 43.26 43.04C44.33 41.92 44.33 40.81 43.25 39.74L37.43 33.92C37.42 33.91 37.42 33.91 37.41 33.9C37.08 33.54 36.55 33.13 35.89 33.13C35.23 33.13 34.66 33.56 34.3 33.92L30.69 37.53C30.51 37.71 29.96 38.26 29.08 38.26C28.74 38.26 28.4 38.18 28.04 38C28 37.98 27.96 37.94 27.91 37.92C27.61 37.73 27.25 37.55 26.87 37.36C26.45 37.15 26 36.93 25.57 36.66C22.18 34.51 19.11 31.72 16.2 28.13L16.19 28.12C14.59 26.08 13.53 24.37 12.78 22.56C12.77 22.53 12.76 22.49 12.75 22.46C12.56 21.86 12.39 20.97 13.3 20.07C13.31 20.05 13.33 20.04 13.35 20.01C14.27 19.19 15.11 18.35 16 17.44C16.31 17.14 16.6 16.84 16.91 16.53C18.02 15.41 18.02 14.38 16.91 13.26L14.03 10.38C13.69 10.03 13.35 9.69 13.02 9.36C12.38 8.69 11.77 8.07 11.12 7.47C11.11 7.46 11.1 7.45 11.09 7.44C10.75 7.1 10.22 6.7 9.55 6.7C9.01 6.7 8.46 6.96 7.95 7.45ZM43.26 43.04C43.26 43.04 43.26 43.04 43.25 43.04C43.25 43.04 43.25 43.05 43.25 43.05C43.25 43.05 43.25 43.04 43.26 43.04ZM38.05 23.91C37.57 21.14 36.27 18.63 34.27 16.63C32.26 14.62 29.75 13.31 26.99 12.85C26.2 12.72 25.7 11.97 25.83 11.2C25.97 10.43 26.7 9.92 27.48 10.04C30.83 10.61 33.88 12.19 36.29 14.61C38.71 17.03 40.29 20.08 40.86 23.42C40.99 24.2 40.47 24.94 39.69 25.07C39.61 25.08 39.53 25.09 39.45 25.09C38.76 25.09 38.16 24.6 38.05 23.91ZM47.1 23.48C46.26 18.56 43.94 14.07 40.38 10.51C36.81 6.95 32.32 4.62 27.41 3.78C26.63 3.65 26.11 2.92 26.24 2.14C26.37 1.37 27.1 0.84 27.87 0.98C33.38 1.92 38.39 4.51 42.38 8.5C46.37 12.49 48.97 17.5 49.91 23.01C50.04 23.78 49.52 24.52 48.74 24.64C48.66 24.65 48.59 24.66 48.5 24.66C47.82 24.66 47.21 24.17 47.1 23.48Z" />
		</g>
	</g>
</svg>